<mxfile host="app.diagrams.net" modified="2024-05-16T22:41:27.501Z" agent="Mozilla/5.0 (Macintosh; Intel Mac OS X 10_15_7) AppleWebKit/537.36 (KHTML, like Gecko) Chrome/124.0.0.0 Safari/537.36" etag="RlAmbaVlp2PBrenhXE7k" version="24.4.2" type="device">
  <diagram id="C5RBs43oDa-KdzZeNtuy" name="Page-1">
    <mxGraphModel dx="4920" dy="3542" grid="1" gridSize="10" guides="1" tooltips="1" connect="1" arrows="1" fold="1" page="1" pageScale="1" pageWidth="1169" pageHeight="827" math="0" shadow="0">
      <root>
        <mxCell id="WIyWlLk6GJQsqaUBKTNV-0" />
        <mxCell id="WIyWlLk6GJQsqaUBKTNV-1" parent="WIyWlLk6GJQsqaUBKTNV-0" />
        <mxCell id="o1A0--Sq_GG2lv819rfo-22" value="EndScreenController" style="swimlane;fontStyle=1;align=center;verticalAlign=top;childLayout=stackLayout;horizontal=1;startSize=26;horizontalStack=0;resizeParent=1;resizeParentMax=0;resizeLast=0;collapsible=1;marginBottom=0;whiteSpace=wrap;html=1;" parent="WIyWlLk6GJQsqaUBKTNV-1" vertex="1">
          <mxGeometry x="917.5" y="91" width="310" height="350" as="geometry" />
        </mxCell>
        <mxCell id="o1A0--Sq_GG2lv819rfo-23" value="- gameManager: GameManager&lt;div&gt;- nameService: NameInputService&lt;/div&gt;&lt;div&gt;- roundsService: RoundsSelectionService&lt;/div&gt;&lt;div&gt;- moneyService: MoneyBalanceService&lt;/div&gt;&lt;div&gt;- currentRoundService: CurrentRoundService&lt;/div&gt;&lt;div&gt;- inventoryService: InventoryService&lt;/div&gt;&lt;div&gt;- difficultyService: DifficultySelectionService&lt;/div&gt;&lt;div&gt;- shopAvailabilityService: ShopAvailabilityService&lt;/div&gt;&lt;div&gt;- playerScoreService: PlayerScoreService&lt;/div&gt;&lt;div&gt;&lt;span style=&quot;background-color: initial;&quot;&gt;- gameMessage: Label&lt;/span&gt;&lt;br&gt;&lt;/div&gt;&lt;div&gt;- roundsChosenLabel: Label&lt;/div&gt;&lt;div&gt;&lt;span style=&quot;background-color: initial;&quot;&gt;- roundsCompletedLabel: Label&lt;/span&gt;&lt;br&gt;&lt;/div&gt;&lt;div&gt;&lt;span style=&quot;background-color: initial;&quot;&gt;- moneyGainedLabel: Label&lt;/span&gt;&lt;/div&gt;&lt;div&gt;&lt;span style=&quot;background-color: initial;&quot;&gt;- scoreLabel: Label&lt;/span&gt;&lt;/div&gt;&lt;div&gt;+ exitButton: Button&lt;/div&gt;&lt;div&gt;+ restartGameButton: Button&lt;/div&gt;" style="text;strokeColor=none;fillColor=none;align=left;verticalAlign=top;spacingLeft=4;spacingRight=4;overflow=hidden;rotatable=0;points=[[0,0.5],[1,0.5]];portConstraint=eastwest;whiteSpace=wrap;html=1;" parent="o1A0--Sq_GG2lv819rfo-22" vertex="1">
          <mxGeometry y="26" width="310" height="244" as="geometry" />
        </mxCell>
        <mxCell id="o1A0--Sq_GG2lv819rfo-24" value="" style="line;strokeWidth=1;fillColor=none;align=left;verticalAlign=middle;spacingTop=-1;spacingLeft=3;spacingRight=3;rotatable=0;labelPosition=right;points=[];portConstraint=eastwest;strokeColor=inherit;" parent="o1A0--Sq_GG2lv819rfo-22" vertex="1">
          <mxGeometry y="270" width="310" height="8" as="geometry" />
        </mxCell>
        <mxCell id="o1A0--Sq_GG2lv819rfo-25" value="+ EndScreenController(gameManager: GameManager)&lt;div&gt;+ initialize(): void&lt;/div&gt;&lt;div&gt;- onRestartGameButtonClicked(): void&lt;/div&gt;&lt;div&gt;- onExitButtonClicked(): void&lt;/div&gt;" style="text;strokeColor=none;fillColor=none;align=left;verticalAlign=top;spacingLeft=4;spacingRight=4;overflow=hidden;rotatable=0;points=[[0,0.5],[1,0.5]];portConstraint=eastwest;whiteSpace=wrap;html=1;" parent="o1A0--Sq_GG2lv819rfo-22" vertex="1">
          <mxGeometry y="278" width="310" height="72" as="geometry" />
        </mxCell>
        <mxCell id="o1A0--Sq_GG2lv819rfo-35" value="ShopController" style="swimlane;fontStyle=1;align=center;verticalAlign=top;childLayout=stackLayout;horizontal=1;startSize=26;horizontalStack=0;resizeParent=1;resizeParentMax=0;resizeLast=0;collapsible=1;marginBottom=0;whiteSpace=wrap;html=1;" parent="WIyWlLk6GJQsqaUBKTNV-1" vertex="1">
          <mxGeometry x="3072.5" y="91" width="280" height="710" as="geometry" />
        </mxCell>
        <mxCell id="o1A0--Sq_GG2lv819rfo-36" value="- gameManager: GameManager&lt;div&gt;&lt;span style=&quot;background-color: initial;&quot;&gt;- roundsService: RoundsSelectionService&lt;/span&gt;&lt;/div&gt;&lt;div&gt;&lt;div&gt;&lt;span style=&quot;background-color: initial;&quot;&gt;- inventoryService: InventoryService&lt;/span&gt;&lt;/div&gt;&lt;/div&gt;&lt;div&gt;- moneyService: MoneyBalanceService&lt;/div&gt;&lt;div&gt;&lt;span style=&quot;background-color: initial;&quot;&gt;- currentRoundService: CurrentRoundService&lt;/span&gt;&lt;br&gt;&lt;/div&gt;&lt;div&gt;&lt;span style=&quot;background-color: initial;&quot;&gt;- shopAvailabilityService: ShopAvailabilityService&lt;/span&gt;&lt;/div&gt;&lt;div&gt;&lt;span style=&quot;background-color: initial;&quot;&gt;- currentMoneyLabel: Label&lt;/span&gt;&lt;br&gt;&lt;/div&gt;&lt;div&gt;- currentRoundLabel: Label&lt;/div&gt;&lt;div&gt;- roundsRemainingLabel: Label&lt;/div&gt;&lt;div&gt;&lt;span style=&quot;background-color: initial;&quot;&gt;- towerButton1: Button&lt;/span&gt;&lt;br&gt;&lt;/div&gt;&lt;div&gt;- towerButton2: Button&lt;/div&gt;&lt;div&gt;- towerButton3: Button&lt;/div&gt;&lt;div&gt;- towerButton4: Button&lt;/div&gt;&lt;div&gt;- towerButton5: Button&lt;/div&gt;&lt;div&gt;&lt;span style=&quot;background-color: initial;&quot;&gt;- upgradeButton1: Button&lt;/span&gt;&lt;br&gt;&lt;/div&gt;&lt;div&gt;- upgradeButton2: Button&lt;/div&gt;&lt;div&gt;- upgradeButton3: Button&lt;/div&gt;&lt;div&gt;- upgradeButton4: Button&lt;/div&gt;&lt;div&gt;- upgradeButton5: Button&lt;/div&gt;&lt;div&gt;- upgradeButton6: Button&lt;/div&gt;&lt;div&gt;- purchaseTowerButton: Button&lt;/div&gt;&lt;div&gt;- purchaseUpgradeButton: Button&lt;/div&gt;&lt;div&gt;- sellItemsButton: Button&lt;/div&gt;&lt;div&gt;- backButton: Button&lt;/div&gt;&lt;div&gt;- towersListView: ListView&amp;lt;Tower&amp;gt;&lt;/div&gt;&lt;div&gt;- upgradesListView: ListView&amp;lt;Upgrade&amp;gt;&lt;/div&gt;&lt;div&gt;- shopTowers: List&amp;lt;Tower&amp;gt;&lt;/div&gt;&lt;div&gt;- shopUpgrades: List&amp;lt;Tower&amp;gt;&lt;/div&gt;&lt;div&gt;- purchasedTowers: List&amp;lt;Booleanr&amp;gt;&lt;/div&gt;&lt;div&gt;- purchasedUpgrades: List&amp;lt;Boolean&amp;gt;&lt;/div&gt;&lt;div&gt;- towerToPurchase: Tower&lt;/div&gt;&lt;div&gt;- towerButton: Integer&lt;/div&gt;&lt;div&gt;- upgradeToPurchase: Upgrade&lt;/div&gt;&lt;div&gt;- upgradeButton: Integer&lt;/div&gt;" style="text;strokeColor=none;fillColor=none;align=left;verticalAlign=top;spacingLeft=4;spacingRight=4;overflow=hidden;rotatable=0;points=[[0,0.5],[1,0.5]];portConstraint=eastwest;whiteSpace=wrap;html=1;" parent="o1A0--Sq_GG2lv819rfo-35" vertex="1">
          <mxGeometry y="26" width="280" height="504" as="geometry" />
        </mxCell>
        <mxCell id="o1A0--Sq_GG2lv819rfo-37" value="" style="line;strokeWidth=1;fillColor=none;align=left;verticalAlign=middle;spacingTop=-1;spacingLeft=3;spacingRight=3;rotatable=0;labelPosition=right;points=[];portConstraint=eastwest;strokeColor=inherit;" parent="o1A0--Sq_GG2lv819rfo-35" vertex="1">
          <mxGeometry y="530" width="280" height="8" as="geometry" />
        </mxCell>
        <mxCell id="o1A0--Sq_GG2lv819rfo-38" value="+ ShopController(gameManager: GameManager)&lt;div&gt;+ initialize(): void&lt;/div&gt;&lt;div&gt;- onBackButtonClicked(): void&lt;/div&gt;&lt;div&gt;- onSellButtonClicked(): void&lt;/div&gt;&lt;div&gt;- showTowerStats(towerIndex: int): void&lt;/div&gt;&lt;div&gt;- clearTowerStats(): void&lt;/div&gt;&lt;div&gt;- showUpgradeStats(upgradeIndex: int): void&lt;/div&gt;&lt;div&gt;- clearUpgradeStats(): void&lt;/div&gt;&lt;div&gt;- onTowerPurchaseClicked(): void&lt;/div&gt;&lt;div&gt;- onUpgradePurchaseClicked(): void&lt;/div&gt;&lt;div&gt;- openErrorDialog(message: String): void&lt;/div&gt;" style="text;strokeColor=none;fillColor=none;align=left;verticalAlign=top;spacingLeft=4;spacingRight=4;overflow=hidden;rotatable=0;points=[[0,0.5],[1,0.5]];portConstraint=eastwest;whiteSpace=wrap;html=1;" parent="o1A0--Sq_GG2lv819rfo-35" vertex="1">
          <mxGeometry y="538" width="280" height="172" as="geometry" />
        </mxCell>
        <mxCell id="o1A0--Sq_GG2lv819rfo-39" value="MainController" style="swimlane;fontStyle=1;align=center;verticalAlign=top;childLayout=stackLayout;horizontal=1;startSize=26;horizontalStack=0;resizeParent=1;resizeParentMax=0;resizeLast=0;collapsible=1;marginBottom=0;whiteSpace=wrap;html=1;" parent="WIyWlLk6GJQsqaUBKTNV-1" vertex="1">
          <mxGeometry x="1817.5" y="91" width="280" height="560" as="geometry" />
        </mxCell>
        <mxCell id="o1A0--Sq_GG2lv819rfo-40" value="- gameManager: GameManager&lt;div&gt;&lt;span style=&quot;background-color: initial;&quot;&gt;- roundsService: RoundsSelectionService&lt;/span&gt;&lt;br&gt;&lt;/div&gt;&lt;div&gt;&lt;span style=&quot;background-color: initial;&quot;&gt;- inventoryService: InventoryService&lt;/span&gt;&lt;/div&gt;&lt;div&gt;- moneyService: MoneyBalanceService&lt;/div&gt;&lt;div&gt;- currentRoundService: CurrentRoundService&lt;/div&gt;&lt;div&gt;&lt;span style=&quot;background-color: initial;&quot;&gt;- shopAvailabilityService: ShopAvailabilityService&lt;/span&gt;&lt;br&gt;&lt;/div&gt;&lt;div&gt;&lt;span style=&quot;background-color: initial;&quot;&gt;- playerScoreService: PlayerScoreService&lt;/span&gt;&lt;/div&gt;&lt;div&gt;- mainLabel: Label&lt;/div&gt;&lt;div&gt;&lt;span style=&quot;background-color: initial;&quot;&gt;- currentMoneyLabel: Label&lt;/span&gt;&lt;br&gt;&lt;/div&gt;&lt;div&gt;&lt;span style=&quot;background-color: initial;&quot;&gt;- currentRoundLabel: Label&lt;/span&gt;&lt;br&gt;&lt;/div&gt;&lt;div&gt;&lt;span style=&quot;background-color: initial;&quot;&gt;- roundsRemainingLabel: Label&lt;/span&gt;&lt;br&gt;&lt;/div&gt;&lt;div&gt;- roundDifficultyLabel: Label&lt;/div&gt;&lt;div&gt;&lt;span style=&quot;background-color: initial;&quot;&gt;- distance: Label&lt;/span&gt;&lt;br&gt;&lt;/div&gt;&lt;div&gt;&lt;span style=&quot;background-color: initial;&quot;&gt;- numberCarts: Label&lt;/span&gt;&lt;br&gt;&lt;/div&gt;&lt;div&gt;- roundDifficultyDropdown: ChoiceBox&amp;lt;String&amp;gt;&lt;/div&gt;&lt;div&gt;- cartList: ListView&amp;lt;Cart&amp;gt;&lt;/div&gt;&lt;div&gt;- playRound: Button&lt;/div&gt;&lt;div&gt;- shopButton: Button&lt;/div&gt;&lt;div&gt;- inventoryButton: Button&lt;/div&gt;&lt;div&gt;- randomEventList: List&amp;lt;String&amp;gt;&lt;/div&gt;&lt;div&gt;- remainingRounds: int&lt;/div&gt;" style="text;strokeColor=none;fillColor=none;align=left;verticalAlign=top;spacingLeft=4;spacingRight=4;overflow=hidden;rotatable=0;points=[[0,0.5],[1,0.5]];portConstraint=eastwest;whiteSpace=wrap;html=1;" parent="o1A0--Sq_GG2lv819rfo-39" vertex="1">
          <mxGeometry y="26" width="280" height="314" as="geometry" />
        </mxCell>
        <mxCell id="o1A0--Sq_GG2lv819rfo-41" value="" style="line;strokeWidth=1;fillColor=none;align=left;verticalAlign=middle;spacingTop=-1;spacingLeft=3;spacingRight=3;rotatable=0;labelPosition=right;points=[];portConstraint=eastwest;strokeColor=inherit;" parent="o1A0--Sq_GG2lv819rfo-39" vertex="1">
          <mxGeometry y="340" width="280" height="8" as="geometry" />
        </mxCell>
        <mxCell id="o1A0--Sq_GG2lv819rfo-42" value="+ MainController(gameManager: GameManager)&lt;div&gt;+ initialize(): void&lt;/div&gt;&lt;div&gt;- onShopButtonClicked(): void&lt;/div&gt;&lt;div&gt;- onInventoryButtonClicked(): void&lt;/div&gt;&lt;div&gt;- gameOver(): void&lt;/div&gt;&lt;div&gt;- onPlayRoundButtonClicked(): void&lt;/div&gt;&lt;div&gt;- startRound(): void&lt;/div&gt;&lt;div&gt;- finishRound(): void&lt;/div&gt;&lt;div&gt;- checkResources(): Boolean&lt;/div&gt;&lt;div&gt;- randomTowerEvent(): void&lt;/div&gt;&lt;div&gt;- resetAndUpdateLabelsAndStats(): void&lt;/div&gt;&lt;div&gt;- resetCartInfo(): void&lt;/div&gt;&lt;div&gt;- openRandomEventDialog(): void&lt;/div&gt;&lt;div&gt;- openErrorDialog(message: String): void&lt;/div&gt;" style="text;strokeColor=none;fillColor=none;align=left;verticalAlign=top;spacingLeft=4;spacingRight=4;overflow=hidden;rotatable=0;points=[[0,0.5],[1,0.5]];portConstraint=eastwest;whiteSpace=wrap;html=1;" parent="o1A0--Sq_GG2lv819rfo-39" vertex="1">
          <mxGeometry y="348" width="280" height="212" as="geometry" />
        </mxCell>
        <mxCell id="o1A0--Sq_GG2lv819rfo-43" value="MenuController" style="swimlane;fontStyle=1;align=center;verticalAlign=top;childLayout=stackLayout;horizontal=1;startSize=26;horizontalStack=0;resizeParent=1;resizeParentMax=0;resizeLast=0;collapsible=1;marginBottom=0;whiteSpace=wrap;html=1;" parent="WIyWlLk6GJQsqaUBKTNV-1" vertex="1">
          <mxGeometry x="2237.5" y="91" width="280" height="550" as="geometry" />
        </mxCell>
        <mxCell id="o1A0--Sq_GG2lv819rfo-44" value="- gameManager: GameManager&lt;div&gt;&lt;span style=&quot;background-color: initial;&quot;&gt;- difficultyService: DifficultySelectionService&lt;/span&gt;&lt;br&gt;&lt;/div&gt;&lt;div&gt;&lt;span style=&quot;background-color: initial;&quot;&gt;- nameService: NameInputService&lt;/span&gt;&lt;/div&gt;&lt;div&gt;&lt;span style=&quot;background-color: initial;&quot;&gt;- roundsService: RoundsSelectionService&lt;/span&gt;&lt;/div&gt;&lt;div&gt;&lt;span style=&quot;background-color: initial;&quot;&gt;- inventoryService: InventoryService&lt;/span&gt;&lt;/div&gt;&lt;div&gt;- moneyService: MoneyBalanceService&lt;/div&gt;&lt;div&gt;- currentRoundService: CurrentRoundService&lt;/div&gt;&lt;div&gt;&lt;span style=&quot;background-color: initial;&quot;&gt;- shopAvailabilityService: ShopAvailabilityService&lt;/span&gt;&lt;br&gt;&lt;/div&gt;&lt;div&gt;&lt;span style=&quot;background-color: initial;&quot;&gt;- playerScoreService: PlayerScoreService&lt;/span&gt;&lt;/div&gt;&lt;div&gt;&lt;span style=&quot;background-color: initial;&quot;&gt;- nameInput: TextField&lt;/span&gt;&lt;br&gt;&lt;/div&gt;&lt;div&gt;&lt;span style=&quot;background-color: initial;&quot;&gt;- roundsSlider: Slider&lt;/span&gt;&lt;br&gt;&lt;/div&gt;&lt;div&gt;&lt;span style=&quot;background-color: initial;&quot;&gt;- difficultyDropdown: ChoiceBox&amp;lt;String&amp;gt;&lt;/span&gt;&lt;br&gt;&lt;/div&gt;&lt;div&gt;&lt;span style=&quot;background-color: initial;&quot;&gt;- towerButton1: Button&lt;/span&gt;&lt;br&gt;&lt;/div&gt;&lt;div&gt;&lt;span style=&quot;background-color: initial;&quot;&gt;- towerButton2: Button&lt;/span&gt;&lt;/div&gt;&lt;div&gt;&lt;span style=&quot;background-color: initial;&quot;&gt;- towerButton3: Button&lt;/span&gt;&lt;/div&gt;&lt;div&gt;&lt;span style=&quot;background-color: initial;&quot;&gt;- towerButton4: Button&lt;/span&gt;&lt;/div&gt;&lt;div&gt;&lt;span style=&quot;background-color: initial;&quot;&gt;- towerButton5: Button&lt;/span&gt;&lt;/div&gt;&lt;div&gt;&lt;span style=&quot;background-color: initial;&quot;&gt;- towerButton6: Button&lt;/span&gt;&lt;/div&gt;&lt;div&gt;&lt;span style=&quot;background-color: initial;&quot;&gt;- selectedTowerResourcesLabel: Label&lt;/span&gt;&lt;br&gt;&lt;/div&gt;&lt;div&gt;&lt;span style=&quot;background-color: initial;&quot;&gt;- selectedTowerReloadSpeedLabel: Label&lt;/span&gt;&lt;/div&gt;&lt;div&gt;&lt;span style=&quot;background-color: initial;&quot;&gt;- selectedTowerLevelLabel: Label&lt;/span&gt;&lt;/div&gt;&lt;div&gt;&lt;span style=&quot;background-color: initial;&quot;&gt;- selectedTowerCostLabel: Label&lt;/span&gt;&lt;/div&gt;&lt;div&gt;&lt;span style=&quot;background-color: initial;&quot;&gt;- submitButton: Button&lt;/span&gt;&lt;/div&gt;&lt;div&gt;&lt;span style=&quot;background-color: initial;&quot;&gt;- towerGrid: GridPane&lt;/span&gt;&lt;/div&gt;&lt;div&gt;&lt;span style=&quot;background-color: initial;&quot;&gt;- selectedRounds: int = 5&lt;/span&gt;&lt;/div&gt;&lt;div&gt;&lt;span style=&quot;background-color: initial;&quot;&gt;- towerTypes: ArrayList&amp;lt;Tower&amp;gt;&lt;/span&gt;&lt;/div&gt;&lt;div&gt;&lt;span style=&quot;background-color: initial;&quot;&gt;- tempSelectedTowers: ArrayList&amp;lt;Integer&amp;gt;&lt;/span&gt;&lt;/div&gt;&lt;div&gt;- selectedTowers: ArrayList&amp;lt;Tower&amp;gt;&lt;/div&gt;&lt;div&gt;&lt;span style=&quot;background-color: initial;&quot;&gt;- errorsList: List&amp;lt;String&amp;gt;&lt;/span&gt;&lt;/div&gt;" style="text;strokeColor=none;fillColor=none;align=left;verticalAlign=top;spacingLeft=4;spacingRight=4;overflow=hidden;rotatable=0;points=[[0,0.5],[1,0.5]];portConstraint=eastwest;whiteSpace=wrap;html=1;" parent="o1A0--Sq_GG2lv819rfo-43" vertex="1">
          <mxGeometry y="26" width="280" height="434" as="geometry" />
        </mxCell>
        <mxCell id="o1A0--Sq_GG2lv819rfo-45" value="" style="line;strokeWidth=1;fillColor=none;align=left;verticalAlign=middle;spacingTop=-1;spacingLeft=3;spacingRight=3;rotatable=0;labelPosition=right;points=[];portConstraint=eastwest;strokeColor=inherit;" parent="o1A0--Sq_GG2lv819rfo-43" vertex="1">
          <mxGeometry y="460" width="280" height="8" as="geometry" />
        </mxCell>
        <mxCell id="o1A0--Sq_GG2lv819rfo-46" value="+ MenuController(gameManager: GameManager)&lt;div&gt;+ initialize(): void&lt;/div&gt;&lt;div&gt;- showStats(towerIndex: int): void&lt;/div&gt;&lt;div&gt;- onSubmitButtonClicked(): void&lt;/div&gt;&lt;div&gt;- openErrorDialog(): void&lt;/div&gt;" style="text;strokeColor=none;fillColor=none;align=left;verticalAlign=top;spacingLeft=4;spacingRight=4;overflow=hidden;rotatable=0;points=[[0,0.5],[1,0.5]];portConstraint=eastwest;whiteSpace=wrap;html=1;" parent="o1A0--Sq_GG2lv819rfo-43" vertex="1">
          <mxGeometry y="468" width="280" height="82" as="geometry" />
        </mxCell>
        <mxCell id="o1A0--Sq_GG2lv819rfo-51" value="SellScreenController" style="swimlane;fontStyle=1;align=center;verticalAlign=top;childLayout=stackLayout;horizontal=1;startSize=26;horizontalStack=0;resizeParent=1;resizeParentMax=0;resizeLast=0;collapsible=1;marginBottom=0;whiteSpace=wrap;html=1;" parent="WIyWlLk6GJQsqaUBKTNV-1" vertex="1">
          <mxGeometry x="2672.5" y="91" width="320" height="430" as="geometry" />
        </mxCell>
        <mxCell id="o1A0--Sq_GG2lv819rfo-52" value="- gameManager: GameManager&lt;div&gt;&lt;span style=&quot;background-color: initial;&quot;&gt;- roundsService: RoundsSelectionService&lt;/span&gt;&lt;/div&gt;&lt;div&gt;&lt;div&gt;- moneyService: MoneyBalanceService&lt;/div&gt;&lt;/div&gt;&lt;div&gt;&lt;span style=&quot;background-color: initial;&quot;&gt;- currentRoundService: CurrentRoundService&lt;/span&gt;&lt;br&gt;&lt;/div&gt;&lt;div&gt;&lt;div&gt;&lt;span style=&quot;background-color: initial;&quot;&gt;- inventoryService: InventoryService&lt;/span&gt;&lt;/div&gt;&lt;/div&gt;&lt;div&gt;&lt;span style=&quot;background-color: initial;&quot;&gt;- currentMoneyLabel: Label&lt;/span&gt;&lt;br&gt;&lt;/div&gt;&lt;div&gt;&lt;span style=&quot;background-color: initial;&quot;&gt;- currentRoundLabel: Label&lt;/span&gt;&lt;br&gt;&lt;/div&gt;&lt;div&gt;&lt;span style=&quot;background-color: initial;&quot;&gt;- roundsRemainingLabel: Label&lt;/span&gt;&lt;br&gt;&lt;/div&gt;&lt;div&gt;- mainTowerList: ListView&amp;lt;Tower&amp;gt;&lt;/div&gt;&lt;div&gt;&lt;span style=&quot;background-color: initial;&quot;&gt;- reserveTowerList: ListView&amp;lt;Tower&amp;gt;&lt;/span&gt;&lt;br&gt;&lt;/div&gt;&lt;div&gt;&lt;span style=&quot;background-color: initial;&quot;&gt;- upgradeList: ListView&amp;lt;Upgrade&amp;gt;&lt;/span&gt;&lt;br&gt;&lt;/div&gt;&lt;div&gt;- sellTower: Button&lt;/div&gt;&lt;div&gt;- sellUpgrade: Button&lt;/div&gt;&lt;div&gt;- backButton: Button&lt;/div&gt;&lt;div&gt;- selectedMainTower: Tower&lt;/div&gt;&lt;div&gt;- selectedReserveTower: Tower&lt;/div&gt;&lt;div&gt;- selectedUpgrade: Upgrade&lt;/div&gt;&lt;div&gt;- isTowerSelectedMain: Boolean&lt;/div&gt;" style="text;strokeColor=none;fillColor=none;align=left;verticalAlign=top;spacingLeft=4;spacingRight=4;overflow=hidden;rotatable=0;points=[[0,0.5],[1,0.5]];portConstraint=eastwest;whiteSpace=wrap;html=1;" parent="o1A0--Sq_GG2lv819rfo-51" vertex="1">
          <mxGeometry y="26" width="320" height="274" as="geometry" />
        </mxCell>
        <mxCell id="o1A0--Sq_GG2lv819rfo-53" value="" style="line;strokeWidth=1;fillColor=none;align=left;verticalAlign=middle;spacingTop=-1;spacingLeft=3;spacingRight=3;rotatable=0;labelPosition=right;points=[];portConstraint=eastwest;strokeColor=inherit;" parent="o1A0--Sq_GG2lv819rfo-51" vertex="1">
          <mxGeometry y="300" width="320" height="8" as="geometry" />
        </mxCell>
        <mxCell id="o1A0--Sq_GG2lv819rfo-54" value="+ SellScreenController(gameManager GameManager)&lt;div&gt;+ initialize(): void&lt;/div&gt;&lt;div&gt;- onBackButtonClicked(): void&lt;/div&gt;&lt;div&gt;- onSellTowerButtonClicked(): void&lt;/div&gt;&lt;div&gt;- onSellUpgradeButtonClicked(): void&lt;/div&gt;&lt;div&gt;- clearSelections(): void&lt;/div&gt;&lt;div&gt;- openErrorDialog(message: String): void&lt;/div&gt;" style="text;strokeColor=none;fillColor=none;align=left;verticalAlign=top;spacingLeft=4;spacingRight=4;overflow=hidden;rotatable=0;points=[[0,0.5],[1,0.5]];portConstraint=eastwest;whiteSpace=wrap;html=1;" parent="o1A0--Sq_GG2lv819rfo-51" vertex="1">
          <mxGeometry y="308" width="320" height="122" as="geometry" />
        </mxCell>
        <mxCell id="bF6cEsMJnZBFDN_E_Ubx-73" style="edgeStyle=orthogonalEdgeStyle;rounded=0;orthogonalLoop=1;jettySize=auto;html=1;exitX=0.75;exitY=0;exitDx=0;exitDy=0;entryX=0.5;entryY=0;entryDx=0;entryDy=0;dashed=1;dashPattern=12 12;" parent="WIyWlLk6GJQsqaUBKTNV-1" source="o1A0--Sq_GG2lv819rfo-31" target="o1A0--Sq_GG2lv819rfo-77" edge="1">
          <mxGeometry relative="1" as="geometry" />
        </mxCell>
        <mxCell id="o1A0--Sq_GG2lv819rfo-31" value="MenuWindow" style="swimlane;fontStyle=1;align=center;verticalAlign=top;childLayout=stackLayout;horizontal=1;startSize=26;horizontalStack=0;resizeParent=1;resizeParentMax=0;resizeLast=0;collapsible=1;marginBottom=0;whiteSpace=wrap;html=1;" parent="WIyWlLk6GJQsqaUBKTNV-1" vertex="1">
          <mxGeometry x="2120" y="-500" width="250" height="70" as="geometry" />
        </mxCell>
        <mxCell id="o1A0--Sq_GG2lv819rfo-34" value="+ start(primaryStage Stage): void&lt;div&gt;+ launchWrapper(args: String[]): void&lt;/div&gt;" style="text;strokeColor=none;fillColor=none;align=left;verticalAlign=top;spacingLeft=4;spacingRight=4;overflow=hidden;rotatable=0;points=[[0,0.5],[1,0.5]];portConstraint=eastwest;whiteSpace=wrap;html=1;" parent="o1A0--Sq_GG2lv819rfo-31" vertex="1">
          <mxGeometry y="26" width="250" height="44" as="geometry" />
        </mxCell>
        <mxCell id="bF6cEsMJnZBFDN_E_Ubx-72" style="edgeStyle=orthogonalEdgeStyle;rounded=0;orthogonalLoop=1;jettySize=auto;html=1;exitX=0.75;exitY=0;exitDx=0;exitDy=0;entryX=0.5;entryY=0;entryDx=0;entryDy=0;shadow=1;dashed=1;dashPattern=12 12;" parent="WIyWlLk6GJQsqaUBKTNV-1" source="o1A0--Sq_GG2lv819rfo-56" target="o1A0--Sq_GG2lv819rfo-31" edge="1">
          <mxGeometry relative="1" as="geometry" />
        </mxCell>
        <mxCell id="o1A0--Sq_GG2lv819rfo-56" value="GameWrapper" style="swimlane;fontStyle=1;align=center;verticalAlign=top;childLayout=stackLayout;horizontal=1;startSize=26;horizontalStack=0;resizeParent=1;resizeParentMax=0;resizeLast=0;collapsible=1;marginBottom=0;whiteSpace=wrap;html=1;" parent="WIyWlLk6GJQsqaUBKTNV-1" vertex="1">
          <mxGeometry x="1642.5" y="-500" width="340" height="220" as="geometry" />
        </mxCell>
        <mxCell id="o1A0--Sq_GG2lv819rfo-57" value="- pane: Pane&lt;div&gt;- stage: Stage&lt;/div&gt;" style="text;strokeColor=none;fillColor=none;align=left;verticalAlign=top;spacingLeft=4;spacingRight=4;overflow=hidden;rotatable=0;points=[[0,0.5],[1,0.5]];portConstraint=eastwest;whiteSpace=wrap;html=1;" parent="o1A0--Sq_GG2lv819rfo-56" vertex="1">
          <mxGeometry y="26" width="340" height="54" as="geometry" />
        </mxCell>
        <mxCell id="o1A0--Sq_GG2lv819rfo-58" value="" style="line;strokeWidth=1;fillColor=none;align=left;verticalAlign=middle;spacingTop=-1;spacingLeft=3;spacingRight=3;rotatable=0;labelPosition=right;points=[];portConstraint=eastwest;strokeColor=inherit;" parent="o1A0--Sq_GG2lv819rfo-56" vertex="1">
          <mxGeometry y="80" width="340" height="8" as="geometry" />
        </mxCell>
        <mxCell id="o1A0--Sq_GG2lv819rfo-59" value="+ init(stage: Stage): void&lt;div&gt;&lt;div&gt;+ clearPane(): void&lt;/div&gt;&lt;div&gt;+ launchMenuScreen(gameManger: GameManager): void&lt;/div&gt;&lt;div&gt;&lt;span style=&quot;background-color: initial;&quot;&gt;+ launchMainScreen&lt;/span&gt;&lt;span style=&quot;background-color: initial;&quot;&gt;(gameManger: GameManager): void&lt;/span&gt;&lt;br&gt;&lt;/div&gt;&lt;div&gt;&lt;span style=&quot;background-color: initial;&quot;&gt;+ launchShopScreen&lt;/span&gt;&lt;span style=&quot;background-color: initial;&quot;&gt;(gameManger: GameManager): void&lt;/span&gt;&lt;/div&gt;&lt;/div&gt;&lt;div&gt;&lt;span style=&quot;background-color: initial;&quot;&gt;+ launchInventoryScreen&lt;/span&gt;&lt;span style=&quot;background-color: initial;&quot;&gt;(gameManger: GameManager): void&lt;/span&gt;&lt;/div&gt;&lt;div&gt;&lt;span style=&quot;background-color: initial;&quot;&gt;+ launchSellScreen&lt;/span&gt;&lt;span style=&quot;background-color: initial;&quot;&gt;(gameManger: GameManager): void&lt;/span&gt;&lt;/div&gt;&lt;div&gt;&lt;span style=&quot;background-color: initial;&quot;&gt;+ launchEndScreen&lt;/span&gt;&lt;span style=&quot;background-color: initial;&quot;&gt;(gameManger: GameManager): void&lt;/span&gt;&lt;/div&gt;" style="text;strokeColor=none;fillColor=none;align=left;verticalAlign=top;spacingLeft=4;spacingRight=4;overflow=hidden;rotatable=0;points=[[0,0.5],[1,0.5]];portConstraint=eastwest;whiteSpace=wrap;html=1;" parent="o1A0--Sq_GG2lv819rfo-56" vertex="1">
          <mxGeometry y="88" width="340" height="132" as="geometry" />
        </mxCell>
        <mxCell id="o1A0--Sq_GG2lv819rfo-60" value="InventoryController" style="swimlane;fontStyle=1;align=center;verticalAlign=top;childLayout=stackLayout;horizontal=1;startSize=26;horizontalStack=0;resizeParent=1;resizeParentMax=0;resizeLast=0;collapsible=1;marginBottom=0;whiteSpace=wrap;html=1;" parent="WIyWlLk6GJQsqaUBKTNV-1" vertex="1">
          <mxGeometry x="1407.5" y="91" width="300" height="440" as="geometry" />
        </mxCell>
        <mxCell id="o1A0--Sq_GG2lv819rfo-61" value="- gameManager: GameManager&lt;div&gt;&lt;span style=&quot;background-color: initial;&quot;&gt;- roundsService: RoundsSelectionService&lt;/span&gt;&lt;br&gt;&lt;/div&gt;&lt;div&gt;- moneyService: MoneyBalanceService&lt;/div&gt;&lt;div&gt;- currentRoundService: CurrentRoundService&lt;/div&gt;&lt;div&gt;- inventoryService: InventoryService&lt;/div&gt;&lt;div&gt;- selectedMainTower: Tower&lt;/div&gt;&lt;div&gt;- selectedReserveTower: Tower&lt;/div&gt;&lt;div&gt;- selectedUpgrade: Upgrade&lt;/div&gt;&lt;div&gt;- currentMoneyLabel: Label&lt;/div&gt;&lt;div&gt;- currentRoundLabel: Label&lt;/div&gt;&lt;div&gt;- roundsRemainingLabel: Label&lt;/div&gt;&lt;div&gt;- mainTowerList: ListView&amp;lt;Tower&amp;gt;&lt;/div&gt;&lt;div&gt;- reserveTowerList: ListView&amp;lt;Tower&amp;gt;&lt;/div&gt;&lt;div&gt;- upgradeList: ListView&amp;lt;Upgrade&amp;gt;&lt;/div&gt;&lt;div&gt;- moveTowerButton: Button&lt;/div&gt;&lt;div&gt;- useUpgradeButton: Button&lt;/div&gt;&lt;div&gt;- backButton: Button&lt;/div&gt;&lt;div&gt;&lt;span style=&quot;background-color: initial;&quot;&gt;- towerSelected: String&lt;/span&gt;&lt;br&gt;&lt;/div&gt;&lt;div&gt;- upgradeSelected: boolean = false&lt;/div&gt;" style="text;strokeColor=none;fillColor=none;align=left;verticalAlign=top;spacingLeft=4;spacingRight=4;overflow=hidden;rotatable=0;points=[[0,0.5],[1,0.5]];portConstraint=eastwest;whiteSpace=wrap;html=1;" parent="o1A0--Sq_GG2lv819rfo-60" vertex="1">
          <mxGeometry y="26" width="300" height="294" as="geometry" />
        </mxCell>
        <mxCell id="o1A0--Sq_GG2lv819rfo-62" value="" style="line;strokeWidth=1;fillColor=none;align=left;verticalAlign=middle;spacingTop=-1;spacingLeft=3;spacingRight=3;rotatable=0;labelPosition=right;points=[];portConstraint=eastwest;strokeColor=inherit;" parent="o1A0--Sq_GG2lv819rfo-60" vertex="1">
          <mxGeometry y="320" width="300" height="8" as="geometry" />
        </mxCell>
        <mxCell id="o1A0--Sq_GG2lv819rfo-63" value="&lt;div&gt;+ InventoryController(gameManager: GameManager)&lt;/div&gt;+ initialize(): void&lt;div&gt;- onBackButtonClicked(): void&lt;/div&gt;&lt;div&gt;- onMoveTowerButtonClicked(): void&lt;/div&gt;&lt;div&gt;- clearSelection(): void&lt;/div&gt;&lt;div&gt;- onUseUpgradeButtonClicked(): void&lt;/div&gt;&lt;div&gt;- openErrorDialog(message: String): void&lt;br&gt;&lt;div&gt;&lt;br&gt;&lt;/div&gt;&lt;/div&gt;" style="text;strokeColor=none;fillColor=none;align=left;verticalAlign=top;spacingLeft=4;spacingRight=4;overflow=hidden;rotatable=0;points=[[0,0.5],[1,0.5]];portConstraint=eastwest;whiteSpace=wrap;html=1;" parent="o1A0--Sq_GG2lv819rfo-60" vertex="1">
          <mxGeometry y="328" width="300" height="112" as="geometry" />
        </mxCell>
        <mxCell id="o1A0--Sq_GG2lv819rfo-77" value="App" style="swimlane;fontStyle=1;align=center;verticalAlign=top;childLayout=stackLayout;horizontal=1;startSize=26;horizontalStack=0;resizeParent=1;resizeParentMax=0;resizeLast=0;collapsible=1;marginBottom=0;whiteSpace=wrap;html=1;" parent="WIyWlLk6GJQsqaUBKTNV-1" vertex="1">
          <mxGeometry x="2600" y="-500" width="310" height="50" as="geometry" />
        </mxCell>
        <mxCell id="o1A0--Sq_GG2lv819rfo-78" value="+ main(args: String[]): void" style="text;strokeColor=none;fillColor=none;align=left;verticalAlign=top;spacingLeft=4;spacingRight=4;overflow=hidden;rotatable=0;points=[[0,0.5],[1,0.5]];portConstraint=eastwest;whiteSpace=wrap;html=1;" parent="o1A0--Sq_GG2lv819rfo-77" vertex="1">
          <mxGeometry y="26" width="310" height="24" as="geometry" />
        </mxCell>
        <mxCell id="o1A0--Sq_GG2lv819rfo-89" value="Cart" style="swimlane;fontStyle=1;align=center;verticalAlign=top;childLayout=stackLayout;horizontal=1;startSize=26;horizontalStack=0;resizeParent=1;resizeParentMax=0;resizeLast=0;collapsible=1;marginBottom=0;whiteSpace=wrap;html=1;" parent="WIyWlLk6GJQsqaUBKTNV-1" vertex="1">
          <mxGeometry x="4270" y="870" width="330" height="200" as="geometry" />
        </mxCell>
        <mxCell id="o1A0--Sq_GG2lv819rfo-90" value="- size: Integer&lt;div&gt;- resourceType: String&lt;/div&gt;&lt;div&gt;- speed: Integer&lt;/div&gt;&lt;div&gt;- filledSize: Integer&lt;/div&gt;" style="text;strokeColor=none;fillColor=none;align=left;verticalAlign=top;spacingLeft=4;spacingRight=4;overflow=hidden;rotatable=0;points=[[0,0.5],[1,0.5]];portConstraint=eastwest;whiteSpace=wrap;html=1;" parent="o1A0--Sq_GG2lv819rfo-89" vertex="1">
          <mxGeometry y="26" width="330" height="64" as="geometry" />
        </mxCell>
        <mxCell id="o1A0--Sq_GG2lv819rfo-91" value="" style="line;strokeWidth=1;fillColor=none;align=left;verticalAlign=middle;spacingTop=-1;spacingLeft=3;spacingRight=3;rotatable=0;labelPosition=right;points=[];portConstraint=eastwest;strokeColor=inherit;" parent="o1A0--Sq_GG2lv819rfo-89" vertex="1">
          <mxGeometry y="90" width="330" height="8" as="geometry" />
        </mxCell>
        <mxCell id="o1A0--Sq_GG2lv819rfo-92" value="+ Cart(size: Integer, resourceType: String, speed: Integer)&lt;div&gt;+ getSize(): Integer&lt;/div&gt;&lt;div&gt;+ getResourceType(): String&lt;/div&gt;&lt;div&gt;+ getSpeed(): Integer&lt;/div&gt;&lt;div&gt;+ getFilledSize(): Integer&lt;/div&gt;&lt;div&gt;+ fill(amount: int): void&lt;/div&gt;" style="text;strokeColor=none;fillColor=none;align=left;verticalAlign=top;spacingLeft=4;spacingRight=4;overflow=hidden;rotatable=0;points=[[0,0.5],[1,0.5]];portConstraint=eastwest;whiteSpace=wrap;html=1;" parent="o1A0--Sq_GG2lv819rfo-89" vertex="1">
          <mxGeometry y="98" width="330" height="102" as="geometry" />
        </mxCell>
        <mxCell id="o1A0--Sq_GG2lv819rfo-93" value="CurrentRound" style="swimlane;fontStyle=1;align=center;verticalAlign=top;childLayout=stackLayout;horizontal=1;startSize=26;horizontalStack=0;resizeParent=1;resizeParentMax=0;resizeLast=0;collapsible=1;marginBottom=0;whiteSpace=wrap;html=1;" parent="WIyWlLk6GJQsqaUBKTNV-1" vertex="1">
          <mxGeometry x="1020" y="1420" width="230" height="400" as="geometry" />
        </mxCell>
        <mxCell id="o1A0--Sq_GG2lv819rfo-94" value="- round: Integer&lt;div&gt;- difficulty: String&lt;/div&gt;&lt;div&gt;- distance: Integer&lt;/div&gt;&lt;div&gt;- cartsNum: Integer = 0&lt;/div&gt;&lt;div&gt;- hardCartsNum: Integer = 0&lt;/div&gt;&lt;div&gt;- carts: ArrayList&amp;lt;Cart&amp;gt;&lt;/div&gt;&lt;div&gt;- tempCarts: ArrayList&amp;lt;Cart&amp;gt;&lt;/div&gt;&lt;div&gt;- gameSuccess: boolean = false&lt;/div&gt;&lt;div&gt;- totalRounds: int&lt;/div&gt;" style="text;strokeColor=none;fillColor=none;align=left;verticalAlign=top;spacingLeft=4;spacingRight=4;overflow=hidden;rotatable=0;points=[[0,0.5],[1,0.5]];portConstraint=eastwest;whiteSpace=wrap;html=1;" parent="o1A0--Sq_GG2lv819rfo-93" vertex="1">
          <mxGeometry y="26" width="230" height="154" as="geometry" />
        </mxCell>
        <mxCell id="o1A0--Sq_GG2lv819rfo-95" value="" style="line;strokeWidth=1;fillColor=none;align=left;verticalAlign=middle;spacingTop=-1;spacingLeft=3;spacingRight=3;rotatable=0;labelPosition=right;points=[];portConstraint=eastwest;strokeColor=inherit;" parent="o1A0--Sq_GG2lv819rfo-93" vertex="1">
          <mxGeometry y="180" width="230" height="8" as="geometry" />
        </mxCell>
        <mxCell id="o1A0--Sq_GG2lv819rfo-96" value="+ CurrentRound()&lt;div&gt;+ getRound(): Integer&lt;/div&gt;&lt;div&gt;&lt;div&gt;+ getDifficulty(): String&lt;/div&gt;&lt;/div&gt;&lt;div&gt;+ getDistance(): Integer&lt;/div&gt;&lt;div&gt;+ getNumCarts(): Integer&lt;/div&gt;&lt;div&gt;+ getGameSuccess(): boolean&lt;/div&gt;&lt;div&gt;+ getCarts(): ArrayList&amp;lt;Cart&amp;gt;&lt;/div&gt;&lt;div&gt;&lt;div&gt;&lt;span style=&quot;background-color: initial;&quot;&gt;+ getPotentialCarts(): ArrayList&amp;lt;Cart&amp;gt;&lt;/span&gt;&lt;/div&gt;&lt;/div&gt;&lt;div&gt;+ setRound(input: Integer): void&lt;/div&gt;&lt;div&gt;&lt;span style=&quot;background-color: initial;&quot;&gt;+ setDifficulty(input: String): void&lt;/span&gt;&lt;br&gt;&lt;/div&gt;&lt;div&gt;&lt;span style=&quot;background-color: initial;&quot;&gt;+ setCarts(): void&lt;/span&gt;&lt;/div&gt;&lt;div&gt;&lt;span style=&quot;background-color: initial;&quot;&gt;+ setGameSuccess(input: boolean): void&lt;/span&gt;&lt;br&gt;&lt;/div&gt;&lt;div&gt;&lt;span style=&quot;background-color: initial;&quot;&gt;+ setTotalRounds(input: int): void&lt;/span&gt;&lt;/div&gt;&lt;div&gt;&lt;span style=&quot;background-color: initial;&quot;&gt;+ storeCarts(input: ArrayList&amp;lt;Cart&amp;gt;): void&lt;/span&gt;&lt;/div&gt;" style="text;strokeColor=none;fillColor=none;align=left;verticalAlign=top;spacingLeft=4;spacingRight=4;overflow=hidden;rotatable=0;points=[[0,0.5],[1,0.5]];portConstraint=eastwest;whiteSpace=wrap;html=1;" parent="o1A0--Sq_GG2lv819rfo-93" vertex="1">
          <mxGeometry y="188" width="230" height="212" as="geometry" />
        </mxCell>
        <mxCell id="o1A0--Sq_GG2lv819rfo-97" value="DifficultySelection" style="swimlane;fontStyle=1;align=center;verticalAlign=top;childLayout=stackLayout;horizontal=1;startSize=26;horizontalStack=0;resizeParent=1;resizeParentMax=0;resizeLast=0;collapsible=1;marginBottom=0;whiteSpace=wrap;html=1;" parent="WIyWlLk6GJQsqaUBKTNV-1" vertex="1">
          <mxGeometry x="1325" y="1420" width="190" height="120" as="geometry" />
        </mxCell>
        <mxCell id="o1A0--Sq_GG2lv819rfo-98" value="- difficulty: String" style="text;strokeColor=none;fillColor=none;align=left;verticalAlign=top;spacingLeft=4;spacingRight=4;overflow=hidden;rotatable=0;points=[[0,0.5],[1,0.5]];portConstraint=eastwest;whiteSpace=wrap;html=1;" parent="o1A0--Sq_GG2lv819rfo-97" vertex="1">
          <mxGeometry y="26" width="190" height="24" as="geometry" />
        </mxCell>
        <mxCell id="o1A0--Sq_GG2lv819rfo-99" value="" style="line;strokeWidth=1;fillColor=none;align=left;verticalAlign=middle;spacingTop=-1;spacingLeft=3;spacingRight=3;rotatable=0;labelPosition=right;points=[];portConstraint=eastwest;strokeColor=inherit;" parent="o1A0--Sq_GG2lv819rfo-97" vertex="1">
          <mxGeometry y="50" width="190" height="8" as="geometry" />
        </mxCell>
        <mxCell id="o1A0--Sq_GG2lv819rfo-100" value="+ DifficultySelection()&lt;div&gt;+ getDifficulty(): String&lt;/div&gt;&lt;div&gt;+ setDifficulty(input: String): void&lt;/div&gt;" style="text;strokeColor=none;fillColor=none;align=left;verticalAlign=top;spacingLeft=4;spacingRight=4;overflow=hidden;rotatable=0;points=[[0,0.5],[1,0.5]];portConstraint=eastwest;whiteSpace=wrap;html=1;" parent="o1A0--Sq_GG2lv819rfo-97" vertex="1">
          <mxGeometry y="58" width="190" height="62" as="geometry" />
        </mxCell>
        <mxCell id="o1A0--Sq_GG2lv819rfo-105" value="Inventory" style="swimlane;fontStyle=1;align=center;verticalAlign=top;childLayout=stackLayout;horizontal=1;startSize=26;horizontalStack=0;resizeParent=1;resizeParentMax=0;resizeLast=0;collapsible=1;marginBottom=0;whiteSpace=wrap;html=1;" parent="WIyWlLk6GJQsqaUBKTNV-1" vertex="1">
          <mxGeometry x="1585" y="1420" width="270" height="270" as="geometry" />
        </mxCell>
        <mxCell id="o1A0--Sq_GG2lv819rfo-106" value="- mainTowers: ArrayList&amp;lt;Tower&amp;gt;&lt;div&gt;- reserveTowers: ArrayList&amp;lt;Tower&amp;gt;&lt;/div&gt;&lt;div&gt;- upgrade: ArrayList&amp;lt;Upgrade&amp;gt;&lt;/div&gt;" style="text;strokeColor=none;fillColor=none;align=left;verticalAlign=top;spacingLeft=4;spacingRight=4;overflow=hidden;rotatable=0;points=[[0,0.5],[1,0.5]];portConstraint=eastwest;whiteSpace=wrap;html=1;" parent="o1A0--Sq_GG2lv819rfo-105" vertex="1">
          <mxGeometry y="26" width="270" height="54" as="geometry" />
        </mxCell>
        <mxCell id="o1A0--Sq_GG2lv819rfo-107" value="" style="line;strokeWidth=1;fillColor=none;align=left;verticalAlign=middle;spacingTop=-1;spacingLeft=3;spacingRight=3;rotatable=0;labelPosition=right;points=[];portConstraint=eastwest;strokeColor=inherit;" parent="o1A0--Sq_GG2lv819rfo-105" vertex="1">
          <mxGeometry y="80" width="270" height="8" as="geometry" />
        </mxCell>
        <mxCell id="o1A0--Sq_GG2lv819rfo-108" value="+ Inventory()&lt;div&gt;+ resetInventory(): void&lt;/div&gt;&lt;div&gt;+ getMainTowers(): ArrayList&amp;lt;Tower&amp;gt;&lt;/div&gt;&lt;div&gt;+ getReserveTowers(): ArrayList&amp;lt;Tower&amp;gt;&lt;/div&gt;&lt;div&gt;+ getUpgrades(): ArrayList&amp;lt;Upgrade&amp;gt;&lt;/div&gt;&lt;div&gt;+ setMainTowers(input: ArrayList&amp;lt;Tower&amp;gt;): void&lt;/div&gt;&lt;div&gt;+ addMainTower(input: Tower): void&lt;/div&gt;&lt;div&gt;+ addReserveTower(input: Tower): void&lt;/div&gt;&lt;div&gt;+ addUpgrade(input: Upgrade): void&lt;/div&gt;&lt;div&gt;+ removeMainTower(input: Tower): void&lt;/div&gt;&lt;div&gt;+ removeReserveTower(input: Tower): void&lt;/div&gt;&lt;div&gt;+ removeUpgrade(input: Upgrade): void&lt;/div&gt;" style="text;strokeColor=none;fillColor=none;align=left;verticalAlign=top;spacingLeft=4;spacingRight=4;overflow=hidden;rotatable=0;points=[[0,0.5],[1,0.5]];portConstraint=eastwest;whiteSpace=wrap;html=1;" parent="o1A0--Sq_GG2lv819rfo-105" vertex="1">
          <mxGeometry y="88" width="270" height="182" as="geometry" />
        </mxCell>
        <mxCell id="o1A0--Sq_GG2lv819rfo-109" value="MoneyBalance" style="swimlane;fontStyle=1;align=center;verticalAlign=top;childLayout=stackLayout;horizontal=1;startSize=26;horizontalStack=0;resizeParent=1;resizeParentMax=0;resizeLast=0;collapsible=1;marginBottom=0;whiteSpace=wrap;html=1;" parent="WIyWlLk6GJQsqaUBKTNV-1" vertex="1">
          <mxGeometry x="1925" y="1420" width="190" height="120" as="geometry" />
        </mxCell>
        <mxCell id="o1A0--Sq_GG2lv819rfo-110" value="- money: Integer" style="text;strokeColor=none;fillColor=none;align=left;verticalAlign=top;spacingLeft=4;spacingRight=4;overflow=hidden;rotatable=0;points=[[0,0.5],[1,0.5]];portConstraint=eastwest;whiteSpace=wrap;html=1;" parent="o1A0--Sq_GG2lv819rfo-109" vertex="1">
          <mxGeometry y="26" width="190" height="24" as="geometry" />
        </mxCell>
        <mxCell id="o1A0--Sq_GG2lv819rfo-111" value="" style="line;strokeWidth=1;fillColor=none;align=left;verticalAlign=middle;spacingTop=-1;spacingLeft=3;spacingRight=3;rotatable=0;labelPosition=right;points=[];portConstraint=eastwest;strokeColor=inherit;" parent="o1A0--Sq_GG2lv819rfo-109" vertex="1">
          <mxGeometry y="50" width="190" height="8" as="geometry" />
        </mxCell>
        <mxCell id="o1A0--Sq_GG2lv819rfo-112" value="+ MoneyBalance()&lt;div&gt;+ getMoney(): Integer&lt;/div&gt;&lt;div&gt;+ setMoney(input: Integer): void&lt;/div&gt;" style="text;strokeColor=none;fillColor=none;align=left;verticalAlign=top;spacingLeft=4;spacingRight=4;overflow=hidden;rotatable=0;points=[[0,0.5],[1,0.5]];portConstraint=eastwest;whiteSpace=wrap;html=1;" parent="o1A0--Sq_GG2lv819rfo-109" vertex="1">
          <mxGeometry y="58" width="190" height="62" as="geometry" />
        </mxCell>
        <mxCell id="o1A0--Sq_GG2lv819rfo-113" value="NameInput" style="swimlane;fontStyle=1;align=center;verticalAlign=top;childLayout=stackLayout;horizontal=1;startSize=26;horizontalStack=0;resizeParent=1;resizeParentMax=0;resizeLast=0;collapsible=1;marginBottom=0;whiteSpace=wrap;html=1;" parent="WIyWlLk6GJQsqaUBKTNV-1" vertex="1">
          <mxGeometry x="2185" y="1420" width="170" height="120" as="geometry" />
        </mxCell>
        <mxCell id="o1A0--Sq_GG2lv819rfo-114" value="- name: String" style="text;strokeColor=none;fillColor=none;align=left;verticalAlign=top;spacingLeft=4;spacingRight=4;overflow=hidden;rotatable=0;points=[[0,0.5],[1,0.5]];portConstraint=eastwest;whiteSpace=wrap;html=1;" parent="o1A0--Sq_GG2lv819rfo-113" vertex="1">
          <mxGeometry y="26" width="170" height="24" as="geometry" />
        </mxCell>
        <mxCell id="o1A0--Sq_GG2lv819rfo-115" value="" style="line;strokeWidth=1;fillColor=none;align=left;verticalAlign=middle;spacingTop=-1;spacingLeft=3;spacingRight=3;rotatable=0;labelPosition=right;points=[];portConstraint=eastwest;strokeColor=inherit;" parent="o1A0--Sq_GG2lv819rfo-113" vertex="1">
          <mxGeometry y="50" width="170" height="8" as="geometry" />
        </mxCell>
        <mxCell id="o1A0--Sq_GG2lv819rfo-116" value="+ NameInput()&lt;div&gt;+ getName(): String&lt;/div&gt;&lt;div&gt;+ setName(input: String): void&lt;/div&gt;" style="text;strokeColor=none;fillColor=none;align=left;verticalAlign=top;spacingLeft=4;spacingRight=4;overflow=hidden;rotatable=0;points=[[0,0.5],[1,0.5]];portConstraint=eastwest;whiteSpace=wrap;html=1;" parent="o1A0--Sq_GG2lv819rfo-113" vertex="1">
          <mxGeometry y="58" width="170" height="62" as="geometry" />
        </mxCell>
        <mxCell id="o1A0--Sq_GG2lv819rfo-117" value="PlayerScore" style="swimlane;fontStyle=1;align=center;verticalAlign=top;childLayout=stackLayout;horizontal=1;startSize=26;horizontalStack=0;resizeParent=1;resizeParentMax=0;resizeLast=0;collapsible=1;marginBottom=0;whiteSpace=wrap;html=1;" parent="WIyWlLk6GJQsqaUBKTNV-1" vertex="1">
          <mxGeometry x="2417.5" y="1420" width="170" height="130" as="geometry" />
        </mxCell>
        <mxCell id="o1A0--Sq_GG2lv819rfo-118" value="- score: int" style="text;strokeColor=none;fillColor=none;align=left;verticalAlign=top;spacingLeft=4;spacingRight=4;overflow=hidden;rotatable=0;points=[[0,0.5],[1,0.5]];portConstraint=eastwest;whiteSpace=wrap;html=1;" parent="o1A0--Sq_GG2lv819rfo-117" vertex="1">
          <mxGeometry y="26" width="170" height="24" as="geometry" />
        </mxCell>
        <mxCell id="o1A0--Sq_GG2lv819rfo-119" value="" style="line;strokeWidth=1;fillColor=none;align=left;verticalAlign=middle;spacingTop=-1;spacingLeft=3;spacingRight=3;rotatable=0;labelPosition=right;points=[];portConstraint=eastwest;strokeColor=inherit;" parent="o1A0--Sq_GG2lv819rfo-117" vertex="1">
          <mxGeometry y="50" width="170" height="8" as="geometry" />
        </mxCell>
        <mxCell id="o1A0--Sq_GG2lv819rfo-120" value="+ PlayerScore()&lt;div&gt;+ getScore(): int&lt;/div&gt;&lt;div&gt;+ setScore(score: int): void&lt;/div&gt;&lt;div&gt;+ addScore(score: int): void&lt;/div&gt;" style="text;strokeColor=none;fillColor=none;align=left;verticalAlign=top;spacingLeft=4;spacingRight=4;overflow=hidden;rotatable=0;points=[[0,0.5],[1,0.5]];portConstraint=eastwest;whiteSpace=wrap;html=1;" parent="o1A0--Sq_GG2lv819rfo-117" vertex="1">
          <mxGeometry y="58" width="170" height="72" as="geometry" />
        </mxCell>
        <mxCell id="o1A0--Sq_GG2lv819rfo-126" value="RoundsSelection" style="swimlane;fontStyle=1;align=center;verticalAlign=top;childLayout=stackLayout;horizontal=1;startSize=26;horizontalStack=0;resizeParent=1;resizeParentMax=0;resizeLast=0;collapsible=1;marginBottom=0;whiteSpace=wrap;html=1;" parent="WIyWlLk6GJQsqaUBKTNV-1" vertex="1">
          <mxGeometry x="2670" y="1420" width="240" height="110" as="geometry" />
        </mxCell>
        <mxCell id="o1A0--Sq_GG2lv819rfo-127" value="- numberOfRounds: Integer" style="text;strokeColor=none;fillColor=none;align=left;verticalAlign=top;spacingLeft=4;spacingRight=4;overflow=hidden;rotatable=0;points=[[0,0.5],[1,0.5]];portConstraint=eastwest;whiteSpace=wrap;html=1;" parent="o1A0--Sq_GG2lv819rfo-126" vertex="1">
          <mxGeometry y="26" width="240" height="24" as="geometry" />
        </mxCell>
        <mxCell id="o1A0--Sq_GG2lv819rfo-128" value="" style="line;strokeWidth=1;fillColor=none;align=left;verticalAlign=middle;spacingTop=-1;spacingLeft=3;spacingRight=3;rotatable=0;labelPosition=right;points=[];portConstraint=eastwest;strokeColor=inherit;" parent="o1A0--Sq_GG2lv819rfo-126" vertex="1">
          <mxGeometry y="50" width="240" height="8" as="geometry" />
        </mxCell>
        <mxCell id="o1A0--Sq_GG2lv819rfo-129" value="+ RoundsSelection()&lt;div&gt;+ getNumberOfRounds(): Integer&lt;/div&gt;&lt;div&gt;+ setNumberOfRounds(input: Integer): void&lt;/div&gt;" style="text;strokeColor=none;fillColor=none;align=left;verticalAlign=top;spacingLeft=4;spacingRight=4;overflow=hidden;rotatable=0;points=[[0,0.5],[1,0.5]];portConstraint=eastwest;whiteSpace=wrap;html=1;" parent="o1A0--Sq_GG2lv819rfo-126" vertex="1">
          <mxGeometry y="58" width="240" height="52" as="geometry" />
        </mxCell>
        <mxCell id="o1A0--Sq_GG2lv819rfo-136" value="ShopAvailability" style="swimlane;fontStyle=1;align=center;verticalAlign=top;childLayout=stackLayout;horizontal=1;startSize=26;horizontalStack=0;resizeParent=1;resizeParentMax=0;resizeLast=0;collapsible=1;marginBottom=0;whiteSpace=wrap;html=1;" parent="WIyWlLk6GJQsqaUBKTNV-1" vertex="1">
          <mxGeometry x="2965" y="1420" width="320" height="320" as="geometry" />
        </mxCell>
        <mxCell id="o1A0--Sq_GG2lv819rfo-137" value="- numTowersAvailable: Integer&lt;div&gt;- numUpgradesAvailable: Integer&lt;/div&gt;&lt;div&gt;- totalRounds: int&lt;/div&gt;&lt;div&gt;- shopTowers: List&amp;lt;Tower&amp;gt;&lt;/div&gt;&lt;div&gt;- shopUpgrades: List&amp;lt;Upgrade&amp;gt;&lt;/div&gt;&lt;div&gt;- purchasedTowers: List&amp;lt;Boolean&amp;gt;&lt;/div&gt;&lt;div&gt;- purchasedUpgrades: List&amp;lt;Boolean&amp;gt;&lt;/div&gt;" style="text;strokeColor=none;fillColor=none;align=left;verticalAlign=top;spacingLeft=4;spacingRight=4;overflow=hidden;rotatable=0;points=[[0,0.5],[1,0.5]];portConstraint=eastwest;whiteSpace=wrap;html=1;" parent="o1A0--Sq_GG2lv819rfo-136" vertex="1">
          <mxGeometry y="26" width="320" height="114" as="geometry" />
        </mxCell>
        <mxCell id="o1A0--Sq_GG2lv819rfo-138" value="" style="line;strokeWidth=1;fillColor=none;align=left;verticalAlign=middle;spacingTop=-1;spacingLeft=3;spacingRight=3;rotatable=0;labelPosition=right;points=[];portConstraint=eastwest;strokeColor=inherit;" parent="o1A0--Sq_GG2lv819rfo-136" vertex="1">
          <mxGeometry y="140" width="320" height="8" as="geometry" />
        </mxCell>
        <mxCell id="o1A0--Sq_GG2lv819rfo-139" value="+ ShopAvailability()&lt;div&gt;+ getNumberTowersAvailable(): int&lt;/div&gt;&lt;div&gt;+ getNumberUpgradesAvailable(): int&lt;/div&gt;&lt;div&gt;+ getShopTowers(): List&amp;lt;Tower&amp;gt;&lt;/div&gt;&lt;div&gt;+ getShopUpgrades(): List&amp;lt;Upgrade&amp;gt;&lt;/div&gt;&lt;div&gt;+ getPurchasedTowers(): List&amp;lt;Boolean&amp;gt;&lt;/div&gt;&lt;div&gt;+ getPurchasedUpgrades(): List&amp;lt;Boolean&amp;gt;&lt;/div&gt;&lt;div&gt;+ setPurchasedTower(input: Integer): void&lt;/div&gt;&lt;div&gt;+ setPurchasedUpgrade(input: Integer): void&lt;/div&gt;&lt;div&gt;+ resetStore(round: int): void&lt;/div&gt;&lt;div&gt;+ setTotalRounds(input: int): void&lt;/div&gt;" style="text;strokeColor=none;fillColor=none;align=left;verticalAlign=top;spacingLeft=4;spacingRight=4;overflow=hidden;rotatable=0;points=[[0,0.5],[1,0.5]];portConstraint=eastwest;whiteSpace=wrap;html=1;" parent="o1A0--Sq_GG2lv819rfo-136" vertex="1">
          <mxGeometry y="148" width="320" height="172" as="geometry" />
        </mxCell>
        <mxCell id="o1A0--Sq_GG2lv819rfo-140" value="Tower" style="swimlane;fontStyle=1;align=center;verticalAlign=top;childLayout=stackLayout;horizontal=1;startSize=26;horizontalStack=0;resizeParent=1;resizeParentMax=0;resizeLast=0;collapsible=1;marginBottom=0;whiteSpace=wrap;html=1;" parent="WIyWlLk6GJQsqaUBKTNV-1" vertex="1">
          <mxGeometry x="4182.5" y="-40" width="480" height="420" as="geometry" />
        </mxCell>
        <mxCell id="o1A0--Sq_GG2lv819rfo-141" value="- resourceType: String&lt;div&gt;- resourceAmount: int&lt;/div&gt;&lt;div&gt;- reloadSpeed: double&lt;/div&gt;&lt;div&gt;- level: int&lt;/div&gt;&lt;div&gt;- cost: int&lt;/div&gt;&lt;div&gt;- sellPrice: int&lt;/div&gt;&lt;div&gt;- towerPoints: int&lt;/div&gt;&lt;div&gt;- roundsUsed: int&lt;/div&gt;" style="text;strokeColor=none;fillColor=none;align=left;verticalAlign=top;spacingLeft=4;spacingRight=4;overflow=hidden;rotatable=0;points=[[0,0.5],[1,0.5]];portConstraint=eastwest;whiteSpace=wrap;html=1;" parent="o1A0--Sq_GG2lv819rfo-140" vertex="1">
          <mxGeometry y="26" width="480" height="124" as="geometry" />
        </mxCell>
        <mxCell id="o1A0--Sq_GG2lv819rfo-142" value="" style="line;strokeWidth=1;fillColor=none;align=left;verticalAlign=middle;spacingTop=-1;spacingLeft=3;spacingRight=3;rotatable=0;labelPosition=right;points=[];portConstraint=eastwest;strokeColor=inherit;" parent="o1A0--Sq_GG2lv819rfo-140" vertex="1">
          <mxGeometry y="150" width="480" height="8" as="geometry" />
        </mxCell>
        <mxCell id="o1A0--Sq_GG2lv819rfo-143" value="+ Tower(resourceType: String, resourceAmount: int, reloadSpeed: int, level: int, cost: int)&lt;div&gt;+ setResourceType(resourceType String): void&lt;/div&gt;&lt;div&gt;+ getResourceType(): String&lt;/div&gt;&lt;div&gt;+ setResourceAmount(resourceAmount: int): void&lt;/div&gt;&lt;div&gt;+ getResourceAmount(): int&lt;/div&gt;&lt;div&gt;+ setReloadSpeed(reloadSpeed: double): void&lt;/div&gt;&lt;div&gt;+ getReloadSpeed(): int&lt;/div&gt;&lt;div&gt;+ getLevel(): int&amp;nbsp;&lt;/div&gt;&lt;div&gt;+ setCost(cost: int): void&lt;/div&gt;&lt;div&gt;+ getCost(): int&lt;/div&gt;&lt;div&gt;+ getSellPrice(): int&lt;/div&gt;&lt;div&gt;+ getRoundsUsed(): int&lt;/div&gt;&lt;div&gt;+ addRoundsUsed(): void&lt;/div&gt;&lt;div&gt;+ gainTowerPoints(points: int): void&lt;/div&gt;&lt;div&gt;+ checkIfTowerLevelUp(): void&lt;/div&gt;&lt;div&gt;+ applyUpgrade(upgrade: Upgrade): void&lt;/div&gt;&lt;div&gt;+ getFillRate(): int&lt;/div&gt;" style="text;strokeColor=none;fillColor=none;align=left;verticalAlign=top;spacingLeft=4;spacingRight=4;overflow=hidden;rotatable=0;points=[[0,0.5],[1,0.5]];portConstraint=eastwest;whiteSpace=wrap;html=1;" parent="o1A0--Sq_GG2lv819rfo-140" vertex="1">
          <mxGeometry y="158" width="480" height="262" as="geometry" />
        </mxCell>
        <mxCell id="o1A0--Sq_GG2lv819rfo-144" value="Upgrade" style="swimlane;fontStyle=1;align=center;verticalAlign=top;childLayout=stackLayout;horizontal=1;startSize=26;horizontalStack=0;resizeParent=1;resizeParentMax=0;resizeLast=0;collapsible=1;marginBottom=0;whiteSpace=wrap;html=1;" parent="WIyWlLk6GJQsqaUBKTNV-1" vertex="1">
          <mxGeometry x="4105" y="1160" width="690" height="230" as="geometry" />
        </mxCell>
        <mxCell id="o1A0--Sq_GG2lv819rfo-145" value="- upgradeTitle: String&lt;div&gt;- upgradeModifying: String&lt;/div&gt;&lt;div&gt;- cost: Integer&lt;/div&gt;&lt;div&gt;- upgradeModifier: Double&lt;/div&gt;&lt;div&gt;- resourceType: String&lt;/div&gt;" style="text;strokeColor=none;fillColor=none;align=left;verticalAlign=top;spacingLeft=4;spacingRight=4;overflow=hidden;rotatable=0;points=[[0,0.5],[1,0.5]];portConstraint=eastwest;whiteSpace=wrap;html=1;" parent="o1A0--Sq_GG2lv819rfo-144" vertex="1">
          <mxGeometry y="26" width="690" height="84" as="geometry" />
        </mxCell>
        <mxCell id="o1A0--Sq_GG2lv819rfo-146" value="" style="line;strokeWidth=1;fillColor=none;align=left;verticalAlign=middle;spacingTop=-1;spacingLeft=3;spacingRight=3;rotatable=0;labelPosition=right;points=[];portConstraint=eastwest;strokeColor=inherit;" parent="o1A0--Sq_GG2lv819rfo-144" vertex="1">
          <mxGeometry y="110" width="690" height="8" as="geometry" />
        </mxCell>
        <mxCell id="o1A0--Sq_GG2lv819rfo-147" value="+ Upgrade(upgradeTitle: String, upgradeModifying: String, cost: Integer, upgradeModifierAmount: Double)&lt;div&gt;+ Upgrade(upgradeTitle: String, upgradeModifying: String, resourceType: String, cost: Integer, upgradeModifierAmount: Double)&lt;/div&gt;&lt;div&gt;+ getUpgradeTitle(): String&lt;/div&gt;&lt;div&gt;+ getUpgradeType(): String&lt;/div&gt;&lt;div&gt;+ getCost(): Integer&lt;/div&gt;&lt;div&gt;+ getUpgradeModifierAmount(): Double&lt;/div&gt;&lt;div&gt;+ getResourceType(): String&lt;/div&gt;" style="text;strokeColor=none;fillColor=none;align=left;verticalAlign=top;spacingLeft=4;spacingRight=4;overflow=hidden;rotatable=0;points=[[0,0.5],[1,0.5]];portConstraint=eastwest;whiteSpace=wrap;html=1;" parent="o1A0--Sq_GG2lv819rfo-144" vertex="1">
          <mxGeometry y="118" width="690" height="112" as="geometry" />
        </mxCell>
        <mxCell id="o1A0--Sq_GG2lv819rfo-148" value="ShopTower1" style="swimlane;fontStyle=1;align=center;verticalAlign=top;childLayout=stackLayout;horizontal=1;startSize=26;horizontalStack=0;resizeParent=1;resizeParentMax=0;resizeLast=0;collapsible=1;marginBottom=0;whiteSpace=wrap;html=1;" parent="WIyWlLk6GJQsqaUBKTNV-1" vertex="1">
          <mxGeometry x="3820" y="570" width="100" height="60" as="geometry" />
        </mxCell>
        <mxCell id="o1A0--Sq_GG2lv819rfo-151" value="+ ShopTower1()" style="text;strokeColor=none;fillColor=none;align=left;verticalAlign=top;spacingLeft=4;spacingRight=4;overflow=hidden;rotatable=0;points=[[0,0.5],[1,0.5]];portConstraint=eastwest;whiteSpace=wrap;html=1;" parent="o1A0--Sq_GG2lv819rfo-148" vertex="1">
          <mxGeometry y="26" width="100" height="34" as="geometry" />
        </mxCell>
        <mxCell id="o1A0--Sq_GG2lv819rfo-152" value="ShopTower2" style="swimlane;fontStyle=1;align=center;verticalAlign=top;childLayout=stackLayout;horizontal=1;startSize=26;horizontalStack=0;resizeParent=1;resizeParentMax=0;resizeLast=0;collapsible=1;marginBottom=0;whiteSpace=wrap;html=1;" parent="WIyWlLk6GJQsqaUBKTNV-1" vertex="1">
          <mxGeometry x="3962.5" y="570" width="100" height="60" as="geometry" />
        </mxCell>
        <mxCell id="o1A0--Sq_GG2lv819rfo-153" value="+ ShopTower2()" style="text;strokeColor=none;fillColor=none;align=left;verticalAlign=top;spacingLeft=4;spacingRight=4;overflow=hidden;rotatable=0;points=[[0,0.5],[1,0.5]];portConstraint=eastwest;whiteSpace=wrap;html=1;" parent="o1A0--Sq_GG2lv819rfo-152" vertex="1">
          <mxGeometry y="26" width="100" height="34" as="geometry" />
        </mxCell>
        <mxCell id="o1A0--Sq_GG2lv819rfo-154" value="ShopTower4" style="swimlane;fontStyle=1;align=center;verticalAlign=top;childLayout=stackLayout;horizontal=1;startSize=26;horizontalStack=0;resizeParent=1;resizeParentMax=0;resizeLast=0;collapsible=1;marginBottom=0;whiteSpace=wrap;html=1;" parent="WIyWlLk6GJQsqaUBKTNV-1" vertex="1">
          <mxGeometry x="4242.5" y="570" width="100" height="60" as="geometry" />
        </mxCell>
        <mxCell id="o1A0--Sq_GG2lv819rfo-155" value="+ ShopTower4()" style="text;strokeColor=none;fillColor=none;align=left;verticalAlign=top;spacingLeft=4;spacingRight=4;overflow=hidden;rotatable=0;points=[[0,0.5],[1,0.5]];portConstraint=eastwest;whiteSpace=wrap;html=1;" parent="o1A0--Sq_GG2lv819rfo-154" vertex="1">
          <mxGeometry y="26" width="100" height="34" as="geometry" />
        </mxCell>
        <mxCell id="o1A0--Sq_GG2lv819rfo-156" value="ShopTower3" style="swimlane;fontStyle=1;align=center;verticalAlign=top;childLayout=stackLayout;horizontal=1;startSize=26;horizontalStack=0;resizeParent=1;resizeParentMax=0;resizeLast=0;collapsible=1;marginBottom=0;whiteSpace=wrap;html=1;" parent="WIyWlLk6GJQsqaUBKTNV-1" vertex="1">
          <mxGeometry x="4112.5" y="570" width="100" height="60" as="geometry" />
        </mxCell>
        <mxCell id="o1A0--Sq_GG2lv819rfo-157" value="+ ShopTower3()" style="text;strokeColor=none;fillColor=none;align=left;verticalAlign=top;spacingLeft=4;spacingRight=4;overflow=hidden;rotatable=0;points=[[0,0.5],[1,0.5]];portConstraint=eastwest;whiteSpace=wrap;html=1;" parent="o1A0--Sq_GG2lv819rfo-156" vertex="1">
          <mxGeometry y="26" width="100" height="34" as="geometry" />
        </mxCell>
        <mxCell id="o1A0--Sq_GG2lv819rfo-158" value="ShopTower5" style="swimlane;fontStyle=1;align=center;verticalAlign=top;childLayout=stackLayout;horizontal=1;startSize=26;horizontalStack=0;resizeParent=1;resizeParentMax=0;resizeLast=0;collapsible=1;marginBottom=0;whiteSpace=wrap;html=1;" parent="WIyWlLk6GJQsqaUBKTNV-1" vertex="1">
          <mxGeometry x="3892.5" y="690" width="100" height="60" as="geometry" />
        </mxCell>
        <mxCell id="o1A0--Sq_GG2lv819rfo-159" value="+ ShopTower5()" style="text;strokeColor=none;fillColor=none;align=left;verticalAlign=top;spacingLeft=4;spacingRight=4;overflow=hidden;rotatable=0;points=[[0,0.5],[1,0.5]];portConstraint=eastwest;whiteSpace=wrap;html=1;" parent="o1A0--Sq_GG2lv819rfo-158" vertex="1">
          <mxGeometry y="26" width="100" height="34" as="geometry" />
        </mxCell>
        <mxCell id="o1A0--Sq_GG2lv819rfo-160" value="ShopTower6" style="swimlane;fontStyle=1;align=center;verticalAlign=top;childLayout=stackLayout;horizontal=1;startSize=26;horizontalStack=0;resizeParent=1;resizeParentMax=0;resizeLast=0;collapsible=1;marginBottom=0;whiteSpace=wrap;html=1;" parent="WIyWlLk6GJQsqaUBKTNV-1" vertex="1">
          <mxGeometry x="4032.5" y="690" width="100" height="60" as="geometry" />
        </mxCell>
        <mxCell id="o1A0--Sq_GG2lv819rfo-161" value="+ ShopTower6()" style="text;strokeColor=none;fillColor=none;align=left;verticalAlign=top;spacingLeft=4;spacingRight=4;overflow=hidden;rotatable=0;points=[[0,0.5],[1,0.5]];portConstraint=eastwest;whiteSpace=wrap;html=1;" parent="o1A0--Sq_GG2lv819rfo-160" vertex="1">
          <mxGeometry y="26" width="100" height="34" as="geometry" />
        </mxCell>
        <mxCell id="o1A0--Sq_GG2lv819rfo-162" value="ShopTower7" style="swimlane;fontStyle=1;align=center;verticalAlign=top;childLayout=stackLayout;horizontal=1;startSize=26;horizontalStack=0;resizeParent=1;resizeParentMax=0;resizeLast=0;collapsible=1;marginBottom=0;whiteSpace=wrap;html=1;" parent="WIyWlLk6GJQsqaUBKTNV-1" vertex="1">
          <mxGeometry x="4175.5" y="690" width="100" height="60" as="geometry" />
        </mxCell>
        <mxCell id="o1A0--Sq_GG2lv819rfo-163" value="+ ShopTower7()" style="text;strokeColor=none;fillColor=none;align=left;verticalAlign=top;spacingLeft=4;spacingRight=4;overflow=hidden;rotatable=0;points=[[0,0.5],[1,0.5]];portConstraint=eastwest;whiteSpace=wrap;html=1;" parent="o1A0--Sq_GG2lv819rfo-162" vertex="1">
          <mxGeometry y="26" width="100" height="34" as="geometry" />
        </mxCell>
        <mxCell id="o1A0--Sq_GG2lv819rfo-164" value="ShopTower8" style="swimlane;fontStyle=1;align=center;verticalAlign=top;childLayout=stackLayout;horizontal=1;startSize=26;horizontalStack=0;resizeParent=1;resizeParentMax=0;resizeLast=0;collapsible=1;marginBottom=0;whiteSpace=wrap;html=1;" parent="WIyWlLk6GJQsqaUBKTNV-1" vertex="1">
          <mxGeometry x="4312.5" y="690" width="100" height="60" as="geometry" />
        </mxCell>
        <mxCell id="o1A0--Sq_GG2lv819rfo-165" value="+ ShopTower8()" style="text;strokeColor=none;fillColor=none;align=left;verticalAlign=top;spacingLeft=4;spacingRight=4;overflow=hidden;rotatable=0;points=[[0,0.5],[1,0.5]];portConstraint=eastwest;whiteSpace=wrap;html=1;" parent="o1A0--Sq_GG2lv819rfo-164" vertex="1">
          <mxGeometry y="26" width="100" height="34" as="geometry" />
        </mxCell>
        <mxCell id="o1A0--Sq_GG2lv819rfo-166" value="ShopTower9" style="swimlane;fontStyle=1;align=center;verticalAlign=top;childLayout=stackLayout;horizontal=1;startSize=26;horizontalStack=0;resizeParent=1;resizeParentMax=0;resizeLast=0;collapsible=1;marginBottom=0;whiteSpace=wrap;html=1;" parent="WIyWlLk6GJQsqaUBKTNV-1" vertex="1">
          <mxGeometry x="4447.5" y="690" width="100" height="60" as="geometry" />
        </mxCell>
        <mxCell id="o1A0--Sq_GG2lv819rfo-167" value="+ ShopTower9()" style="text;strokeColor=none;fillColor=none;align=left;verticalAlign=top;spacingLeft=4;spacingRight=4;overflow=hidden;rotatable=0;points=[[0,0.5],[1,0.5]];portConstraint=eastwest;whiteSpace=wrap;html=1;" parent="o1A0--Sq_GG2lv819rfo-166" vertex="1">
          <mxGeometry y="26" width="100" height="34" as="geometry" />
        </mxCell>
        <mxCell id="o1A0--Sq_GG2lv819rfo-168" value="ShopTower10" style="swimlane;fontStyle=1;align=center;verticalAlign=top;childLayout=stackLayout;horizontal=1;startSize=26;horizontalStack=0;resizeParent=1;resizeParentMax=0;resizeLast=0;collapsible=1;marginBottom=0;whiteSpace=wrap;html=1;" parent="WIyWlLk6GJQsqaUBKTNV-1" vertex="1">
          <mxGeometry x="4582.5" y="690" width="110" height="60" as="geometry" />
        </mxCell>
        <mxCell id="o1A0--Sq_GG2lv819rfo-169" value="+ ShopTower10()" style="text;strokeColor=none;fillColor=none;align=left;verticalAlign=top;spacingLeft=4;spacingRight=4;overflow=hidden;rotatable=0;points=[[0,0.5],[1,0.5]];portConstraint=eastwest;whiteSpace=wrap;html=1;" parent="o1A0--Sq_GG2lv819rfo-168" vertex="1">
          <mxGeometry y="26" width="110" height="34" as="geometry" />
        </mxCell>
        <mxCell id="o1A0--Sq_GG2lv819rfo-170" value="ShopTower11" style="swimlane;fontStyle=1;align=center;verticalAlign=top;childLayout=stackLayout;horizontal=1;startSize=26;horizontalStack=0;resizeParent=1;resizeParentMax=0;resizeLast=0;collapsible=1;marginBottom=0;whiteSpace=wrap;html=1;" parent="WIyWlLk6GJQsqaUBKTNV-1" vertex="1">
          <mxGeometry x="4720" y="690" width="110" height="60" as="geometry" />
        </mxCell>
        <mxCell id="o1A0--Sq_GG2lv819rfo-171" value="+ ShopTower11()" style="text;strokeColor=none;fillColor=none;align=left;verticalAlign=top;spacingLeft=4;spacingRight=4;overflow=hidden;rotatable=0;points=[[0,0.5],[1,0.5]];portConstraint=eastwest;whiteSpace=wrap;html=1;" parent="o1A0--Sq_GG2lv819rfo-170" vertex="1">
          <mxGeometry y="26" width="110" height="34" as="geometry" />
        </mxCell>
        <mxCell id="o1A0--Sq_GG2lv819rfo-172" value="ShopTower12" style="swimlane;fontStyle=1;align=center;verticalAlign=top;childLayout=stackLayout;horizontal=1;startSize=26;horizontalStack=0;resizeParent=1;resizeParentMax=0;resizeLast=0;collapsible=1;marginBottom=0;whiteSpace=wrap;html=1;" parent="WIyWlLk6GJQsqaUBKTNV-1" vertex="1">
          <mxGeometry x="4870" y="690" width="110" height="60" as="geometry" />
        </mxCell>
        <mxCell id="o1A0--Sq_GG2lv819rfo-173" value="+ ShopTower12()" style="text;strokeColor=none;fillColor=none;align=left;verticalAlign=top;spacingLeft=4;spacingRight=4;overflow=hidden;rotatable=0;points=[[0,0.5],[1,0.5]];portConstraint=eastwest;whiteSpace=wrap;html=1;" parent="o1A0--Sq_GG2lv819rfo-172" vertex="1">
          <mxGeometry y="26" width="110" height="34" as="geometry" />
        </mxCell>
        <mxCell id="o1A0--Sq_GG2lv819rfo-177" value="Tower1" style="swimlane;fontStyle=1;align=center;verticalAlign=top;childLayout=stackLayout;horizontal=1;startSize=26;horizontalStack=0;resizeParent=1;resizeParentMax=0;resizeLast=0;collapsible=1;marginBottom=0;whiteSpace=wrap;html=1;" parent="WIyWlLk6GJQsqaUBKTNV-1" vertex="1">
          <mxGeometry x="4382.5" y="570" width="80" height="60" as="geometry" />
        </mxCell>
        <mxCell id="o1A0--Sq_GG2lv819rfo-178" value="+ Tower1()" style="text;strokeColor=none;fillColor=none;align=left;verticalAlign=top;spacingLeft=4;spacingRight=4;overflow=hidden;rotatable=0;points=[[0,0.5],[1,0.5]];portConstraint=eastwest;whiteSpace=wrap;html=1;" parent="o1A0--Sq_GG2lv819rfo-177" vertex="1">
          <mxGeometry y="26" width="80" height="34" as="geometry" />
        </mxCell>
        <mxCell id="o1A0--Sq_GG2lv819rfo-179" value="Tower2" style="swimlane;fontStyle=1;align=center;verticalAlign=top;childLayout=stackLayout;horizontal=1;startSize=26;horizontalStack=0;resizeParent=1;resizeParentMax=0;resizeLast=0;collapsible=1;marginBottom=0;whiteSpace=wrap;html=1;" parent="WIyWlLk6GJQsqaUBKTNV-1" vertex="1">
          <mxGeometry x="4522.5" y="570" width="80" height="60" as="geometry" />
        </mxCell>
        <mxCell id="o1A0--Sq_GG2lv819rfo-180" value="+ Tower2()" style="text;strokeColor=none;fillColor=none;align=left;verticalAlign=top;spacingLeft=4;spacingRight=4;overflow=hidden;rotatable=0;points=[[0,0.5],[1,0.5]];portConstraint=eastwest;whiteSpace=wrap;html=1;" parent="o1A0--Sq_GG2lv819rfo-179" vertex="1">
          <mxGeometry y="26" width="80" height="34" as="geometry" />
        </mxCell>
        <mxCell id="o1A0--Sq_GG2lv819rfo-181" value="Tower3" style="swimlane;fontStyle=1;align=center;verticalAlign=top;childLayout=stackLayout;horizontal=1;startSize=26;horizontalStack=0;resizeParent=1;resizeParentMax=0;resizeLast=0;collapsible=1;marginBottom=0;whiteSpace=wrap;html=1;" parent="WIyWlLk6GJQsqaUBKTNV-1" vertex="1">
          <mxGeometry x="4652.5" y="570" width="80" height="60" as="geometry" />
        </mxCell>
        <mxCell id="o1A0--Sq_GG2lv819rfo-182" value="+ Tower3()" style="text;strokeColor=none;fillColor=none;align=left;verticalAlign=top;spacingLeft=4;spacingRight=4;overflow=hidden;rotatable=0;points=[[0,0.5],[1,0.5]];portConstraint=eastwest;whiteSpace=wrap;html=1;" parent="o1A0--Sq_GG2lv819rfo-181" vertex="1">
          <mxGeometry y="26" width="80" height="34" as="geometry" />
        </mxCell>
        <mxCell id="o1A0--Sq_GG2lv819rfo-183" value="Tower4" style="swimlane;fontStyle=1;align=center;verticalAlign=top;childLayout=stackLayout;horizontal=1;startSize=26;horizontalStack=0;resizeParent=1;resizeParentMax=0;resizeLast=0;collapsible=1;marginBottom=0;whiteSpace=wrap;html=1;" parent="WIyWlLk6GJQsqaUBKTNV-1" vertex="1">
          <mxGeometry x="4802.5" y="570" width="80" height="60" as="geometry" />
        </mxCell>
        <mxCell id="o1A0--Sq_GG2lv819rfo-184" value="+ Tower4()" style="text;strokeColor=none;fillColor=none;align=left;verticalAlign=top;spacingLeft=4;spacingRight=4;overflow=hidden;rotatable=0;points=[[0,0.5],[1,0.5]];portConstraint=eastwest;whiteSpace=wrap;html=1;" parent="o1A0--Sq_GG2lv819rfo-183" vertex="1">
          <mxGeometry y="26" width="80" height="34" as="geometry" />
        </mxCell>
        <mxCell id="o1A0--Sq_GG2lv819rfo-185" value="Tower5" style="swimlane;fontStyle=1;align=center;verticalAlign=top;childLayout=stackLayout;horizontal=1;startSize=26;horizontalStack=0;resizeParent=1;resizeParentMax=0;resizeLast=0;collapsible=1;marginBottom=0;whiteSpace=wrap;html=1;" parent="WIyWlLk6GJQsqaUBKTNV-1" vertex="1">
          <mxGeometry x="4950" y="570" width="80" height="60" as="geometry" />
        </mxCell>
        <mxCell id="o1A0--Sq_GG2lv819rfo-186" value="+ Tower5()" style="text;strokeColor=none;fillColor=none;align=left;verticalAlign=top;spacingLeft=4;spacingRight=4;overflow=hidden;rotatable=0;points=[[0,0.5],[1,0.5]];portConstraint=eastwest;whiteSpace=wrap;html=1;" parent="o1A0--Sq_GG2lv819rfo-185" vertex="1">
          <mxGeometry y="26" width="80" height="34" as="geometry" />
        </mxCell>
        <mxCell id="o1A0--Sq_GG2lv819rfo-187" value="Tower6" style="swimlane;fontStyle=1;align=center;verticalAlign=top;childLayout=stackLayout;horizontal=1;startSize=26;horizontalStack=0;resizeParent=1;resizeParentMax=0;resizeLast=0;collapsible=1;marginBottom=0;whiteSpace=wrap;html=1;" parent="WIyWlLk6GJQsqaUBKTNV-1" vertex="1">
          <mxGeometry x="5072.5" y="570" width="80" height="60" as="geometry" />
        </mxCell>
        <mxCell id="o1A0--Sq_GG2lv819rfo-188" value="+ Tower6()" style="text;strokeColor=none;fillColor=none;align=left;verticalAlign=top;spacingLeft=4;spacingRight=4;overflow=hidden;rotatable=0;points=[[0,0.5],[1,0.5]];portConstraint=eastwest;whiteSpace=wrap;html=1;" parent="o1A0--Sq_GG2lv819rfo-187" vertex="1">
          <mxGeometry y="26" width="80" height="34" as="geometry" />
        </mxCell>
        <mxCell id="o1A0--Sq_GG2lv819rfo-189" value="Upgrade1" style="swimlane;fontStyle=1;align=center;verticalAlign=top;childLayout=stackLayout;horizontal=1;startSize=26;horizontalStack=0;resizeParent=1;resizeParentMax=0;resizeLast=0;collapsible=1;marginBottom=0;whiteSpace=wrap;html=1;" parent="WIyWlLk6GJQsqaUBKTNV-1" vertex="1">
          <mxGeometry x="3990" y="1560" width="90" height="60" as="geometry" />
        </mxCell>
        <mxCell id="o1A0--Sq_GG2lv819rfo-190" value="+ Upgrade1()" style="text;strokeColor=none;fillColor=none;align=left;verticalAlign=top;spacingLeft=4;spacingRight=4;overflow=hidden;rotatable=0;points=[[0,0.5],[1,0.5]];portConstraint=eastwest;whiteSpace=wrap;html=1;" parent="o1A0--Sq_GG2lv819rfo-189" vertex="1">
          <mxGeometry y="26" width="90" height="34" as="geometry" />
        </mxCell>
        <mxCell id="o1A0--Sq_GG2lv819rfo-191" value="Upgrade2" style="swimlane;fontStyle=1;align=center;verticalAlign=top;childLayout=stackLayout;horizontal=1;startSize=26;horizontalStack=0;resizeParent=1;resizeParentMax=0;resizeLast=0;collapsible=1;marginBottom=0;whiteSpace=wrap;html=1;" parent="WIyWlLk6GJQsqaUBKTNV-1" vertex="1">
          <mxGeometry x="4110" y="1560" width="90" height="60" as="geometry" />
        </mxCell>
        <mxCell id="o1A0--Sq_GG2lv819rfo-192" value="+ Upgrade2()" style="text;strokeColor=none;fillColor=none;align=left;verticalAlign=top;spacingLeft=4;spacingRight=4;overflow=hidden;rotatable=0;points=[[0,0.5],[1,0.5]];portConstraint=eastwest;whiteSpace=wrap;html=1;" parent="o1A0--Sq_GG2lv819rfo-191" vertex="1">
          <mxGeometry y="26" width="90" height="34" as="geometry" />
        </mxCell>
        <mxCell id="o1A0--Sq_GG2lv819rfo-193" value="Upgrade10" style="swimlane;fontStyle=1;align=center;verticalAlign=top;childLayout=stackLayout;horizontal=1;startSize=26;horizontalStack=0;resizeParent=1;resizeParentMax=0;resizeLast=0;collapsible=1;marginBottom=0;whiteSpace=wrap;html=1;" parent="WIyWlLk6GJQsqaUBKTNV-1" vertex="1">
          <mxGeometry x="4167.5" y="1670" width="90" height="60" as="geometry" />
        </mxCell>
        <mxCell id="o1A0--Sq_GG2lv819rfo-194" value="+ Upgrade10()" style="text;strokeColor=none;fillColor=none;align=left;verticalAlign=top;spacingLeft=4;spacingRight=4;overflow=hidden;rotatable=0;points=[[0,0.5],[1,0.5]];portConstraint=eastwest;whiteSpace=wrap;html=1;" parent="o1A0--Sq_GG2lv819rfo-193" vertex="1">
          <mxGeometry y="26" width="90" height="34" as="geometry" />
        </mxCell>
        <mxCell id="o1A0--Sq_GG2lv819rfo-195" value="Upgrade8" style="swimlane;fontStyle=1;align=center;verticalAlign=top;childLayout=stackLayout;horizontal=1;startSize=26;horizontalStack=0;resizeParent=1;resizeParentMax=0;resizeLast=0;collapsible=1;marginBottom=0;whiteSpace=wrap;html=1;" parent="WIyWlLk6GJQsqaUBKTNV-1" vertex="1">
          <mxGeometry x="4830" y="1560" width="90" height="60" as="geometry" />
        </mxCell>
        <mxCell id="o1A0--Sq_GG2lv819rfo-196" value="+ Upgrade8()" style="text;strokeColor=none;fillColor=none;align=left;verticalAlign=top;spacingLeft=4;spacingRight=4;overflow=hidden;rotatable=0;points=[[0,0.5],[1,0.5]];portConstraint=eastwest;whiteSpace=wrap;html=1;" parent="o1A0--Sq_GG2lv819rfo-195" vertex="1">
          <mxGeometry y="26" width="90" height="34" as="geometry" />
        </mxCell>
        <mxCell id="o1A0--Sq_GG2lv819rfo-197" value="Upgrade3" style="swimlane;fontStyle=1;align=center;verticalAlign=top;childLayout=stackLayout;horizontal=1;startSize=26;horizontalStack=0;resizeParent=1;resizeParentMax=0;resizeLast=0;collapsible=1;marginBottom=0;whiteSpace=wrap;html=1;" parent="WIyWlLk6GJQsqaUBKTNV-1" vertex="1">
          <mxGeometry x="4230" y="1560" width="90" height="60" as="geometry" />
        </mxCell>
        <mxCell id="o1A0--Sq_GG2lv819rfo-198" value="+ Upgrade3()" style="text;strokeColor=none;fillColor=none;align=left;verticalAlign=top;spacingLeft=4;spacingRight=4;overflow=hidden;rotatable=0;points=[[0,0.5],[1,0.5]];portConstraint=eastwest;whiteSpace=wrap;html=1;" parent="o1A0--Sq_GG2lv819rfo-197" vertex="1">
          <mxGeometry y="26" width="90" height="34" as="geometry" />
        </mxCell>
        <mxCell id="o1A0--Sq_GG2lv819rfo-199" value="Upgrade11" style="swimlane;fontStyle=1;align=center;verticalAlign=top;childLayout=stackLayout;horizontal=1;startSize=26;horizontalStack=0;resizeParent=1;resizeParentMax=0;resizeLast=0;collapsible=1;marginBottom=0;whiteSpace=wrap;html=1;" parent="WIyWlLk6GJQsqaUBKTNV-1" vertex="1">
          <mxGeometry x="4290" y="1670" width="90" height="60" as="geometry" />
        </mxCell>
        <mxCell id="o1A0--Sq_GG2lv819rfo-200" value="+ Upgrade11()" style="text;strokeColor=none;fillColor=none;align=left;verticalAlign=top;spacingLeft=4;spacingRight=4;overflow=hidden;rotatable=0;points=[[0,0.5],[1,0.5]];portConstraint=eastwest;whiteSpace=wrap;html=1;" parent="o1A0--Sq_GG2lv819rfo-199" vertex="1">
          <mxGeometry y="26" width="90" height="34" as="geometry" />
        </mxCell>
        <mxCell id="o1A0--Sq_GG2lv819rfo-201" value="Upgrade6" style="swimlane;fontStyle=1;align=center;verticalAlign=top;childLayout=stackLayout;horizontal=1;startSize=26;horizontalStack=0;resizeParent=1;resizeParentMax=0;resizeLast=0;collapsible=1;marginBottom=0;whiteSpace=wrap;html=1;" parent="WIyWlLk6GJQsqaUBKTNV-1" vertex="1">
          <mxGeometry x="4580" y="1560" width="90" height="60" as="geometry" />
        </mxCell>
        <mxCell id="o1A0--Sq_GG2lv819rfo-202" value="+ Upgrade6()" style="text;strokeColor=none;fillColor=none;align=left;verticalAlign=top;spacingLeft=4;spacingRight=4;overflow=hidden;rotatable=0;points=[[0,0.5],[1,0.5]];portConstraint=eastwest;whiteSpace=wrap;html=1;" parent="o1A0--Sq_GG2lv819rfo-201" vertex="1">
          <mxGeometry y="26" width="90" height="34" as="geometry" />
        </mxCell>
        <mxCell id="o1A0--Sq_GG2lv819rfo-203" value="Upgrade4" style="swimlane;fontStyle=1;align=center;verticalAlign=top;childLayout=stackLayout;horizontal=1;startSize=26;horizontalStack=0;resizeParent=1;resizeParentMax=0;resizeLast=0;collapsible=1;marginBottom=0;whiteSpace=wrap;html=1;" parent="WIyWlLk6GJQsqaUBKTNV-1" vertex="1">
          <mxGeometry x="4350" y="1560" width="90" height="60" as="geometry" />
        </mxCell>
        <mxCell id="o1A0--Sq_GG2lv819rfo-204" value="+ Upgrade4()" style="text;strokeColor=none;fillColor=none;align=left;verticalAlign=top;spacingLeft=4;spacingRight=4;overflow=hidden;rotatable=0;points=[[0,0.5],[1,0.5]];portConstraint=eastwest;whiteSpace=wrap;html=1;" parent="o1A0--Sq_GG2lv819rfo-203" vertex="1">
          <mxGeometry y="26" width="90" height="34" as="geometry" />
        </mxCell>
        <mxCell id="o1A0--Sq_GG2lv819rfo-205" value="Upgrade5" style="swimlane;fontStyle=1;align=center;verticalAlign=top;childLayout=stackLayout;horizontal=1;startSize=26;horizontalStack=0;resizeParent=1;resizeParentMax=0;resizeLast=0;collapsible=1;marginBottom=0;whiteSpace=wrap;html=1;" parent="WIyWlLk6GJQsqaUBKTNV-1" vertex="1">
          <mxGeometry x="4460" y="1560" width="90" height="60" as="geometry" />
        </mxCell>
        <mxCell id="o1A0--Sq_GG2lv819rfo-206" value="+ Upgrade5()" style="text;strokeColor=none;fillColor=none;align=left;verticalAlign=top;spacingLeft=4;spacingRight=4;overflow=hidden;rotatable=0;points=[[0,0.5],[1,0.5]];portConstraint=eastwest;whiteSpace=wrap;html=1;" parent="o1A0--Sq_GG2lv819rfo-205" vertex="1">
          <mxGeometry y="26" width="90" height="34" as="geometry" />
        </mxCell>
        <mxCell id="o1A0--Sq_GG2lv819rfo-207" value="Upgrade7" style="swimlane;fontStyle=1;align=center;verticalAlign=top;childLayout=stackLayout;horizontal=1;startSize=26;horizontalStack=0;resizeParent=1;resizeParentMax=0;resizeLast=0;collapsible=1;marginBottom=0;whiteSpace=wrap;html=1;" parent="WIyWlLk6GJQsqaUBKTNV-1" vertex="1">
          <mxGeometry x="4700" y="1560" width="90" height="60" as="geometry" />
        </mxCell>
        <mxCell id="o1A0--Sq_GG2lv819rfo-208" value="+ Upgrade7()" style="text;strokeColor=none;fillColor=none;align=left;verticalAlign=top;spacingLeft=4;spacingRight=4;overflow=hidden;rotatable=0;points=[[0,0.5],[1,0.5]];portConstraint=eastwest;whiteSpace=wrap;html=1;" parent="o1A0--Sq_GG2lv819rfo-207" vertex="1">
          <mxGeometry y="26" width="90" height="34" as="geometry" />
        </mxCell>
        <mxCell id="o1A0--Sq_GG2lv819rfo-209" value="Upgrade9" style="swimlane;fontStyle=1;align=center;verticalAlign=top;childLayout=stackLayout;horizontal=1;startSize=26;horizontalStack=0;resizeParent=1;resizeParentMax=0;resizeLast=0;collapsible=1;marginBottom=0;whiteSpace=wrap;html=1;" parent="WIyWlLk6GJQsqaUBKTNV-1" vertex="1">
          <mxGeometry x="4045" y="1670" width="90" height="60" as="geometry" />
        </mxCell>
        <mxCell id="o1A0--Sq_GG2lv819rfo-210" value="+ Upgrade9()" style="text;strokeColor=none;fillColor=none;align=left;verticalAlign=top;spacingLeft=4;spacingRight=4;overflow=hidden;rotatable=0;points=[[0,0.5],[1,0.5]];portConstraint=eastwest;whiteSpace=wrap;html=1;" parent="o1A0--Sq_GG2lv819rfo-209" vertex="1">
          <mxGeometry y="26" width="90" height="34" as="geometry" />
        </mxCell>
        <mxCell id="o1A0--Sq_GG2lv819rfo-217" value="DifficultySelectionService" style="swimlane;fontStyle=1;align=center;verticalAlign=top;childLayout=stackLayout;horizontal=1;startSize=26;horizontalStack=0;resizeParent=1;resizeParentMax=0;resizeLast=0;collapsible=1;marginBottom=0;whiteSpace=wrap;html=1;" parent="WIyWlLk6GJQsqaUBKTNV-1" vertex="1">
          <mxGeometry x="1300" y="1024" width="240" height="120" as="geometry" />
        </mxCell>
        <mxCell id="o1A0--Sq_GG2lv819rfo-218" value="- difficultySelection: DifficultySelection" style="text;strokeColor=none;fillColor=none;align=left;verticalAlign=top;spacingLeft=4;spacingRight=4;overflow=hidden;rotatable=0;points=[[0,0.5],[1,0.5]];portConstraint=eastwest;whiteSpace=wrap;html=1;" parent="o1A0--Sq_GG2lv819rfo-217" vertex="1">
          <mxGeometry y="26" width="240" height="24" as="geometry" />
        </mxCell>
        <mxCell id="o1A0--Sq_GG2lv819rfo-219" value="" style="line;strokeWidth=1;fillColor=none;align=left;verticalAlign=middle;spacingTop=-1;spacingLeft=3;spacingRight=3;rotatable=0;labelPosition=right;points=[];portConstraint=eastwest;strokeColor=inherit;" parent="o1A0--Sq_GG2lv819rfo-217" vertex="1">
          <mxGeometry y="50" width="240" height="8" as="geometry" />
        </mxCell>
        <mxCell id="o1A0--Sq_GG2lv819rfo-220" value="+ DifficultySelectionService()&lt;div&gt;+ setDifficultySelection(input: String): void&lt;/div&gt;&lt;div&gt;+ getDifficultySelection(): String&lt;/div&gt;" style="text;strokeColor=none;fillColor=none;align=left;verticalAlign=top;spacingLeft=4;spacingRight=4;overflow=hidden;rotatable=0;points=[[0,0.5],[1,0.5]];portConstraint=eastwest;whiteSpace=wrap;html=1;" parent="o1A0--Sq_GG2lv819rfo-217" vertex="1">
          <mxGeometry y="58" width="240" height="62" as="geometry" />
        </mxCell>
        <mxCell id="o1A0--Sq_GG2lv819rfo-222" value="CurrentRoundService" style="swimlane;fontStyle=1;align=center;verticalAlign=top;childLayout=stackLayout;horizontal=1;startSize=26;horizontalStack=0;resizeParent=1;resizeParentMax=0;resizeLast=0;collapsible=1;marginBottom=0;whiteSpace=wrap;html=1;" parent="WIyWlLk6GJQsqaUBKTNV-1" vertex="1">
          <mxGeometry x="1020" y="1024" width="230" height="270" as="geometry" />
        </mxCell>
        <mxCell id="o1A0--Sq_GG2lv819rfo-223" value="- currentRound: CurrentRound" style="text;strokeColor=none;fillColor=none;align=left;verticalAlign=top;spacingLeft=4;spacingRight=4;overflow=hidden;rotatable=0;points=[[0,0.5],[1,0.5]];portConstraint=eastwest;whiteSpace=wrap;html=1;" parent="o1A0--Sq_GG2lv819rfo-222" vertex="1">
          <mxGeometry y="26" width="230" height="24" as="geometry" />
        </mxCell>
        <mxCell id="o1A0--Sq_GG2lv819rfo-224" value="" style="line;strokeWidth=1;fillColor=none;align=left;verticalAlign=middle;spacingTop=-1;spacingLeft=3;spacingRight=3;rotatable=0;labelPosition=right;points=[];portConstraint=eastwest;strokeColor=inherit;" parent="o1A0--Sq_GG2lv819rfo-222" vertex="1">
          <mxGeometry y="50" width="230" height="8" as="geometry" />
        </mxCell>
        <mxCell id="o1A0--Sq_GG2lv819rfo-225" value="+ CurrentRoundService()&lt;div&gt;+ setCurrentRound(input: Integer): void&lt;/div&gt;&lt;div&gt;+ getCurrentRound(): Integer&lt;/div&gt;&lt;div&gt;+ setDifficulty(input: String): void&lt;/div&gt;&lt;div&gt;+ getDifficulty(): String&lt;/div&gt;&lt;div&gt;+ getDistance(): Integer&lt;/div&gt;&lt;div&gt;+ getNumCarts(): Integer&lt;/div&gt;&lt;div&gt;+ setCarts(): void&lt;/div&gt;&lt;div&gt;+ getPotentialCarts(): ArrayList&amp;lt;Cart&amp;gt;&lt;/div&gt;&lt;div&gt;+ storeCarts(input: ArrayList&amp;lt;Cart&amp;gt;): void&lt;/div&gt;&lt;div&gt;+ getCarts(): ArrayList&amp;lt;Cart&amp;gt;&lt;/div&gt;&lt;div&gt;+ setGameSuccess(): void&lt;/div&gt;&lt;div&gt;+ getGameSuccess(): boolean&lt;/div&gt;&lt;div&gt;+ setTotalRounds(rounds: int): void&lt;/div&gt;" style="text;strokeColor=none;fillColor=none;align=left;verticalAlign=top;spacingLeft=4;spacingRight=4;overflow=hidden;rotatable=0;points=[[0,0.5],[1,0.5]];portConstraint=eastwest;whiteSpace=wrap;html=1;" parent="o1A0--Sq_GG2lv819rfo-222" vertex="1">
          <mxGeometry y="58" width="230" height="212" as="geometry" />
        </mxCell>
        <mxCell id="o1A0--Sq_GG2lv819rfo-226" value="InventoryService" style="swimlane;fontStyle=1;align=center;verticalAlign=top;childLayout=stackLayout;horizontal=1;startSize=26;horizontalStack=0;resizeParent=1;resizeParentMax=0;resizeLast=0;collapsible=1;marginBottom=0;whiteSpace=wrap;html=1;" parent="WIyWlLk6GJQsqaUBKTNV-1" vertex="1">
          <mxGeometry x="1560" y="1020" width="320" height="250" as="geometry" />
        </mxCell>
        <mxCell id="o1A0--Sq_GG2lv819rfo-227" value="- inventory: Inventory" style="text;strokeColor=none;fillColor=none;align=left;verticalAlign=top;spacingLeft=4;spacingRight=4;overflow=hidden;rotatable=0;points=[[0,0.5],[1,0.5]];portConstraint=eastwest;whiteSpace=wrap;html=1;" parent="o1A0--Sq_GG2lv819rfo-226" vertex="1">
          <mxGeometry y="26" width="320" height="24" as="geometry" />
        </mxCell>
        <mxCell id="o1A0--Sq_GG2lv819rfo-228" value="" style="line;strokeWidth=1;fillColor=none;align=left;verticalAlign=middle;spacingTop=-1;spacingLeft=3;spacingRight=3;rotatable=0;labelPosition=right;points=[];portConstraint=eastwest;strokeColor=inherit;" parent="o1A0--Sq_GG2lv819rfo-226" vertex="1">
          <mxGeometry y="50" width="320" height="8" as="geometry" />
        </mxCell>
        <mxCell id="o1A0--Sq_GG2lv819rfo-229" value="&lt;div&gt;+ InventoryService()&lt;/div&gt;+ setMainTowerSelection(input: ArrayList&amp;lt;Tower&amp;gt;): void&lt;div&gt;+ getMainTowerSelection(): ArrayList&amp;lt;Tower&amp;gt;&lt;/div&gt;&lt;div&gt;&lt;div&gt;+ getReserveTowerSelection(): ArrayList&amp;lt;Tower&amp;gt;&lt;/div&gt;&lt;div&gt;+ addToMainTowerSelection(input: Tower): void&lt;/div&gt;&lt;div&gt;&lt;div&gt;+ addToReserveTowerSelection(input: Tower): void&lt;/div&gt;&lt;/div&gt;&lt;div&gt;+ getUserUpgrades(): ArrayList&amp;lt;Upgrade&amp;gt;&lt;/div&gt;&lt;div&gt;+ addUserUpgrade(input: Upgrade): void&lt;/div&gt;&lt;div&gt;+ removeMainTower(input: Tower): void&lt;/div&gt;&lt;div&gt;+ removeReserveTower(input: Tower): void&lt;/div&gt;&lt;div&gt;+ removeUserUpgrade(input: Upgrade): void&lt;/div&gt;&lt;div&gt;+ resetInventory(): void&lt;/div&gt;&lt;div&gt;&lt;br&gt;&lt;/div&gt;&lt;/div&gt;&lt;div&gt;&lt;br&gt;&lt;/div&gt;" style="text;strokeColor=none;fillColor=none;align=left;verticalAlign=top;spacingLeft=4;spacingRight=4;overflow=hidden;rotatable=0;points=[[0,0.5],[1,0.5]];portConstraint=eastwest;whiteSpace=wrap;html=1;" parent="o1A0--Sq_GG2lv819rfo-226" vertex="1">
          <mxGeometry y="58" width="320" height="192" as="geometry" />
        </mxCell>
        <mxCell id="o1A0--Sq_GG2lv819rfo-230" value="MoneyBalanceService" style="swimlane;fontStyle=1;align=center;verticalAlign=top;childLayout=stackLayout;horizontal=1;startSize=26;horizontalStack=0;resizeParent=1;resizeParentMax=0;resizeLast=0;collapsible=1;marginBottom=0;whiteSpace=wrap;html=1;" parent="WIyWlLk6GJQsqaUBKTNV-1" vertex="1">
          <mxGeometry x="1910" y="1020" width="220" height="120" as="geometry" />
        </mxCell>
        <mxCell id="o1A0--Sq_GG2lv819rfo-231" value="- moneyBalance: MoneyBalance" style="text;strokeColor=none;fillColor=none;align=left;verticalAlign=top;spacingLeft=4;spacingRight=4;overflow=hidden;rotatable=0;points=[[0,0.5],[1,0.5]];portConstraint=eastwest;whiteSpace=wrap;html=1;" parent="o1A0--Sq_GG2lv819rfo-230" vertex="1">
          <mxGeometry y="26" width="220" height="24" as="geometry" />
        </mxCell>
        <mxCell id="o1A0--Sq_GG2lv819rfo-232" value="" style="line;strokeWidth=1;fillColor=none;align=left;verticalAlign=middle;spacingTop=-1;spacingLeft=3;spacingRight=3;rotatable=0;labelPosition=right;points=[];portConstraint=eastwest;strokeColor=inherit;" parent="o1A0--Sq_GG2lv819rfo-230" vertex="1">
          <mxGeometry y="50" width="220" height="8" as="geometry" />
        </mxCell>
        <mxCell id="o1A0--Sq_GG2lv819rfo-233" value="+ MoneyBalanceService()&lt;div&gt;+ setNewBalance(input: Integer): void&lt;/div&gt;&lt;div&gt;+ getCurrentBalance(): Integer&lt;br&gt;&lt;div&gt;&lt;div&gt;&lt;br&gt;&lt;/div&gt;&lt;/div&gt;&lt;div&gt;&lt;br&gt;&lt;/div&gt;&lt;/div&gt;" style="text;strokeColor=none;fillColor=none;align=left;verticalAlign=top;spacingLeft=4;spacingRight=4;overflow=hidden;rotatable=0;points=[[0,0.5],[1,0.5]];portConstraint=eastwest;whiteSpace=wrap;html=1;" parent="o1A0--Sq_GG2lv819rfo-230" vertex="1">
          <mxGeometry y="58" width="220" height="62" as="geometry" />
        </mxCell>
        <mxCell id="o1A0--Sq_GG2lv819rfo-234" value="NameInputService" style="swimlane;fontStyle=1;align=center;verticalAlign=top;childLayout=stackLayout;horizontal=1;startSize=26;horizontalStack=0;resizeParent=1;resizeParentMax=0;resizeLast=0;collapsible=1;marginBottom=0;whiteSpace=wrap;html=1;" parent="WIyWlLk6GJQsqaUBKTNV-1" vertex="1">
          <mxGeometry x="2170" y="1020" width="200" height="120" as="geometry" />
        </mxCell>
        <mxCell id="o1A0--Sq_GG2lv819rfo-235" value="- nameInput: NameInput" style="text;strokeColor=none;fillColor=none;align=left;verticalAlign=top;spacingLeft=4;spacingRight=4;overflow=hidden;rotatable=0;points=[[0,0.5],[1,0.5]];portConstraint=eastwest;whiteSpace=wrap;html=1;" parent="o1A0--Sq_GG2lv819rfo-234" vertex="1">
          <mxGeometry y="26" width="200" height="24" as="geometry" />
        </mxCell>
        <mxCell id="o1A0--Sq_GG2lv819rfo-236" value="" style="line;strokeWidth=1;fillColor=none;align=left;verticalAlign=middle;spacingTop=-1;spacingLeft=3;spacingRight=3;rotatable=0;labelPosition=right;points=[];portConstraint=eastwest;strokeColor=inherit;" parent="o1A0--Sq_GG2lv819rfo-234" vertex="1">
          <mxGeometry y="50" width="200" height="8" as="geometry" />
        </mxCell>
        <mxCell id="o1A0--Sq_GG2lv819rfo-237" value="+ NameInputService()&lt;div&gt;+ setNewName(input: String): void&lt;/div&gt;&lt;div&gt;+ getCurrentName(): String&lt;/div&gt;&lt;div&gt;&lt;div&gt;&lt;div&gt;&lt;br&gt;&lt;/div&gt;&lt;/div&gt;&lt;div&gt;&lt;br&gt;&lt;/div&gt;&lt;/div&gt;" style="text;strokeColor=none;fillColor=none;align=left;verticalAlign=top;spacingLeft=4;spacingRight=4;overflow=hidden;rotatable=0;points=[[0,0.5],[1,0.5]];portConstraint=eastwest;whiteSpace=wrap;html=1;" parent="o1A0--Sq_GG2lv819rfo-234" vertex="1">
          <mxGeometry y="58" width="200" height="62" as="geometry" />
        </mxCell>
        <mxCell id="o1A0--Sq_GG2lv819rfo-238" value="PlayerScoreService" style="swimlane;fontStyle=1;align=center;verticalAlign=top;childLayout=stackLayout;horizontal=1;startSize=26;horizontalStack=0;resizeParent=1;resizeParentMax=0;resizeLast=0;collapsible=1;marginBottom=0;whiteSpace=wrap;html=1;" parent="WIyWlLk6GJQsqaUBKTNV-1" vertex="1">
          <mxGeometry x="2402.5" y="1020" width="200" height="130" as="geometry" />
        </mxCell>
        <mxCell id="o1A0--Sq_GG2lv819rfo-239" value="playerScore: PlayerScore" style="text;strokeColor=none;fillColor=none;align=left;verticalAlign=top;spacingLeft=4;spacingRight=4;overflow=hidden;rotatable=0;points=[[0,0.5],[1,0.5]];portConstraint=eastwest;whiteSpace=wrap;html=1;" parent="o1A0--Sq_GG2lv819rfo-238" vertex="1">
          <mxGeometry y="26" width="200" height="24" as="geometry" />
        </mxCell>
        <mxCell id="o1A0--Sq_GG2lv819rfo-240" value="" style="line;strokeWidth=1;fillColor=none;align=left;verticalAlign=middle;spacingTop=-1;spacingLeft=3;spacingRight=3;rotatable=0;labelPosition=right;points=[];portConstraint=eastwest;strokeColor=inherit;" parent="o1A0--Sq_GG2lv819rfo-238" vertex="1">
          <mxGeometry y="50" width="200" height="8" as="geometry" />
        </mxCell>
        <mxCell id="o1A0--Sq_GG2lv819rfo-241" value="&lt;div&gt;&lt;div&gt;+ PlayerScoreService()&lt;/div&gt;&lt;/div&gt;&lt;div&gt;+ getPlayerScore(): int&lt;/div&gt;&lt;div&gt;+ setPlayerScore(score: int): void&lt;/div&gt;&lt;div&gt;+ addPlayerScore(score: int): void&lt;/div&gt;" style="text;strokeColor=none;fillColor=none;align=left;verticalAlign=top;spacingLeft=4;spacingRight=4;overflow=hidden;rotatable=0;points=[[0,0.5],[1,0.5]];portConstraint=eastwest;whiteSpace=wrap;html=1;" parent="o1A0--Sq_GG2lv819rfo-238" vertex="1">
          <mxGeometry y="58" width="200" height="72" as="geometry" />
        </mxCell>
        <mxCell id="o1A0--Sq_GG2lv819rfo-242" value="RoundsSelectionService" style="swimlane;fontStyle=1;align=center;verticalAlign=top;childLayout=stackLayout;horizontal=1;startSize=26;horizontalStack=0;resizeParent=1;resizeParentMax=0;resizeLast=0;collapsible=1;marginBottom=0;whiteSpace=wrap;html=1;" parent="WIyWlLk6GJQsqaUBKTNV-1" vertex="1">
          <mxGeometry x="2670" y="1020" width="240" height="120" as="geometry" />
        </mxCell>
        <mxCell id="o1A0--Sq_GG2lv819rfo-243" value="roundsSelection: RoundsSelection" style="text;strokeColor=none;fillColor=none;align=left;verticalAlign=top;spacingLeft=4;spacingRight=4;overflow=hidden;rotatable=0;points=[[0,0.5],[1,0.5]];portConstraint=eastwest;whiteSpace=wrap;html=1;" parent="o1A0--Sq_GG2lv819rfo-242" vertex="1">
          <mxGeometry y="26" width="240" height="24" as="geometry" />
        </mxCell>
        <mxCell id="o1A0--Sq_GG2lv819rfo-244" value="" style="line;strokeWidth=1;fillColor=none;align=left;verticalAlign=middle;spacingTop=-1;spacingLeft=3;spacingRight=3;rotatable=0;labelPosition=right;points=[];portConstraint=eastwest;strokeColor=inherit;" parent="o1A0--Sq_GG2lv819rfo-242" vertex="1">
          <mxGeometry y="50" width="240" height="8" as="geometry" />
        </mxCell>
        <mxCell id="o1A0--Sq_GG2lv819rfo-245" value="&lt;div&gt;&lt;div&gt;+ RoundsSelectionService()&lt;/div&gt;&lt;/div&gt;&lt;div&gt;+ setRoundsSelection(input: Integer): void&lt;/div&gt;&lt;div&gt;+ getRoundsSelection(): Integer&lt;/div&gt;" style="text;strokeColor=none;fillColor=none;align=left;verticalAlign=top;spacingLeft=4;spacingRight=4;overflow=hidden;rotatable=0;points=[[0,0.5],[1,0.5]];portConstraint=eastwest;whiteSpace=wrap;html=1;" parent="o1A0--Sq_GG2lv819rfo-242" vertex="1">
          <mxGeometry y="58" width="240" height="62" as="geometry" />
        </mxCell>
        <mxCell id="o1A0--Sq_GG2lv819rfo-246" value="ShopAvailabilityService" style="swimlane;fontStyle=1;align=center;verticalAlign=top;childLayout=stackLayout;horizontal=1;startSize=26;horizontalStack=0;resizeParent=1;resizeParentMax=0;resizeLast=0;collapsible=1;marginBottom=0;whiteSpace=wrap;html=1;" parent="WIyWlLk6GJQsqaUBKTNV-1" vertex="1">
          <mxGeometry x="3000" y="1020" width="250" height="230" as="geometry" />
        </mxCell>
        <mxCell id="o1A0--Sq_GG2lv819rfo-247" value="shopAvailability: ShopAvailability" style="text;strokeColor=none;fillColor=none;align=left;verticalAlign=top;spacingLeft=4;spacingRight=4;overflow=hidden;rotatable=0;points=[[0,0.5],[1,0.5]];portConstraint=eastwest;whiteSpace=wrap;html=1;" parent="o1A0--Sq_GG2lv819rfo-246" vertex="1">
          <mxGeometry y="26" width="250" height="24" as="geometry" />
        </mxCell>
        <mxCell id="o1A0--Sq_GG2lv819rfo-248" value="" style="line;strokeWidth=1;fillColor=none;align=left;verticalAlign=middle;spacingTop=-1;spacingLeft=3;spacingRight=3;rotatable=0;labelPosition=right;points=[];portConstraint=eastwest;strokeColor=inherit;" parent="o1A0--Sq_GG2lv819rfo-246" vertex="1">
          <mxGeometry y="50" width="250" height="8" as="geometry" />
        </mxCell>
        <mxCell id="o1A0--Sq_GG2lv819rfo-249" value="&lt;div&gt;&lt;div&gt;+ ShopAvailabilityService()&lt;/div&gt;&lt;/div&gt;&lt;div&gt;+ getNumberTowersAvailable(): int&lt;/div&gt;&lt;div&gt;+ getNumberUpgradesAvailable(): int&lt;/div&gt;&lt;div&gt;+ getAvailableTowers(): List&amp;lt;Tower&amp;gt;&lt;/div&gt;&lt;div&gt;+ getAvailableUpgrades(): List&amp;lt;Upgrade&amp;gt;&lt;/div&gt;&lt;div&gt;+ getPurchasedTowers(): List&amp;lt;Boolean&amp;gt;&lt;/div&gt;&lt;div&gt;+ getPurchasedUpgrades(): List&amp;lt;Boolean&amp;gt;&lt;/div&gt;&lt;div&gt;+ setTowerPurchased(input: Integer): void&lt;/div&gt;&lt;div&gt;+ setUpgradePurchased(input: Integer): void&lt;/div&gt;&lt;div&gt;+ resetStore(round: int): void&lt;/div&gt;&lt;div&gt;+ setTotalRounds(rounds: int): void&lt;/div&gt;" style="text;strokeColor=none;fillColor=none;align=left;verticalAlign=top;spacingLeft=4;spacingRight=4;overflow=hidden;rotatable=0;points=[[0,0.5],[1,0.5]];portConstraint=eastwest;whiteSpace=wrap;html=1;" parent="o1A0--Sq_GG2lv819rfo-246" vertex="1">
          <mxGeometry y="58" width="250" height="172" as="geometry" />
        </mxCell>
        <mxCell id="o1A0--Sq_GG2lv819rfo-277" value="&lt;div&gt;&lt;br&gt;&lt;/div&gt;&lt;div&gt;&lt;br&gt;&lt;/div&gt;" style="endArrow=block;endSize=16;endFill=0;html=1;rounded=0;entryX=0.502;entryY=0.995;entryDx=0;entryDy=0;entryPerimeter=0;" parent="WIyWlLk6GJQsqaUBKTNV-1" target="o1A0--Sq_GG2lv819rfo-147" edge="1">
          <mxGeometry x="-0.007" width="160" relative="1" as="geometry">
            <mxPoint x="4451" y="1470" as="sourcePoint" />
            <mxPoint x="4530" y="1410" as="targetPoint" />
            <mxPoint as="offset" />
          </mxGeometry>
        </mxCell>
        <mxCell id="o1A0--Sq_GG2lv819rfo-284" value="" style="endArrow=none;html=1;rounded=0;" parent="WIyWlLk6GJQsqaUBKTNV-1" edge="1">
          <mxGeometry width="50" height="50" relative="1" as="geometry">
            <mxPoint x="4040" y="1560" as="sourcePoint" />
            <mxPoint x="4450" y="1470" as="targetPoint" />
            <Array as="points">
              <mxPoint x="4040" y="1470" />
            </Array>
          </mxGeometry>
        </mxCell>
        <mxCell id="o1A0--Sq_GG2lv819rfo-285" value="" style="endArrow=none;html=1;rounded=0;" parent="WIyWlLk6GJQsqaUBKTNV-1" edge="1">
          <mxGeometry width="50" height="50" relative="1" as="geometry">
            <mxPoint x="4154.57" y="1560" as="sourcePoint" />
            <mxPoint x="4154.57" y="1470" as="targetPoint" />
            <Array as="points">
              <mxPoint x="4154.57" y="1470" />
            </Array>
          </mxGeometry>
        </mxCell>
        <mxCell id="o1A0--Sq_GG2lv819rfo-286" value="" style="endArrow=none;html=1;rounded=0;" parent="WIyWlLk6GJQsqaUBKTNV-1" edge="1">
          <mxGeometry width="50" height="50" relative="1" as="geometry">
            <mxPoint x="4274.57" y="1560" as="sourcePoint" />
            <mxPoint x="4274.57" y="1470" as="targetPoint" />
            <Array as="points">
              <mxPoint x="4274.57" y="1470" />
            </Array>
          </mxGeometry>
        </mxCell>
        <mxCell id="o1A0--Sq_GG2lv819rfo-287" value="" style="endArrow=none;html=1;rounded=0;" parent="WIyWlLk6GJQsqaUBKTNV-1" edge="1">
          <mxGeometry width="50" height="50" relative="1" as="geometry">
            <mxPoint x="4394.57" y="1560" as="sourcePoint" />
            <mxPoint x="4394.57" y="1470" as="targetPoint" />
            <Array as="points">
              <mxPoint x="4394.57" y="1470" />
            </Array>
          </mxGeometry>
        </mxCell>
        <mxCell id="o1A0--Sq_GG2lv819rfo-288" value="" style="endArrow=none;html=1;rounded=0;" parent="WIyWlLk6GJQsqaUBKTNV-1" edge="1">
          <mxGeometry width="50" height="50" relative="1" as="geometry">
            <mxPoint x="4874.639999999999" y="1560" as="sourcePoint" />
            <mxPoint x="4874.639999999999" y="1470" as="targetPoint" />
            <Array as="points">
              <mxPoint x="4874.639999999999" y="1470" />
              <mxPoint x="4450" y="1470" />
            </Array>
          </mxGeometry>
        </mxCell>
        <mxCell id="o1A0--Sq_GG2lv819rfo-289" value="" style="endArrow=none;html=1;rounded=0;" parent="WIyWlLk6GJQsqaUBKTNV-1" edge="1">
          <mxGeometry width="50" height="50" relative="1" as="geometry">
            <mxPoint x="4624.639999999999" y="1560" as="sourcePoint" />
            <mxPoint x="4624.639999999999" y="1470" as="targetPoint" />
            <Array as="points">
              <mxPoint x="4624.639999999999" y="1470" />
            </Array>
          </mxGeometry>
        </mxCell>
        <mxCell id="o1A0--Sq_GG2lv819rfo-290" value="" style="endArrow=none;html=1;rounded=0;" parent="WIyWlLk6GJQsqaUBKTNV-1" edge="1">
          <mxGeometry width="50" height="50" relative="1" as="geometry">
            <mxPoint x="4504.639999999999" y="1560" as="sourcePoint" />
            <mxPoint x="4504.639999999999" y="1470" as="targetPoint" />
            <Array as="points">
              <mxPoint x="4504.639999999999" y="1470" />
            </Array>
          </mxGeometry>
        </mxCell>
        <mxCell id="o1A0--Sq_GG2lv819rfo-291" value="" style="endArrow=none;html=1;rounded=0;" parent="WIyWlLk6GJQsqaUBKTNV-1" edge="1">
          <mxGeometry width="50" height="50" relative="1" as="geometry">
            <mxPoint x="4744.639999999999" y="1560" as="sourcePoint" />
            <mxPoint x="4744.639999999999" y="1470" as="targetPoint" />
            <Array as="points">
              <mxPoint x="4744.639999999999" y="1470" />
            </Array>
          </mxGeometry>
        </mxCell>
        <mxCell id="o1A0--Sq_GG2lv819rfo-299" value="" style="endArrow=none;html=1;rounded=0;exitX=0.5;exitY=0;exitDx=0;exitDy=0;" parent="WIyWlLk6GJQsqaUBKTNV-1" edge="1">
          <mxGeometry width="50" height="50" relative="1" as="geometry">
            <mxPoint x="4092.5" y="1670" as="sourcePoint" />
            <mxPoint x="4092.5" y="1470" as="targetPoint" />
            <Array as="points">
              <mxPoint x="4092.5" y="1470" />
            </Array>
          </mxGeometry>
        </mxCell>
        <mxCell id="o1A0--Sq_GG2lv819rfo-302" value="" style="endArrow=none;html=1;rounded=0;exitX=0.5;exitY=0;exitDx=0;exitDy=0;" parent="WIyWlLk6GJQsqaUBKTNV-1" edge="1">
          <mxGeometry width="50" height="50" relative="1" as="geometry">
            <mxPoint x="4214.57" y="1670" as="sourcePoint" />
            <mxPoint x="4214.57" y="1470" as="targetPoint" />
            <Array as="points">
              <mxPoint x="4214.57" y="1470" />
            </Array>
          </mxGeometry>
        </mxCell>
        <mxCell id="o1A0--Sq_GG2lv819rfo-304" value="" style="endArrow=none;html=1;rounded=0;exitX=0.5;exitY=0;exitDx=0;exitDy=0;" parent="WIyWlLk6GJQsqaUBKTNV-1" edge="1">
          <mxGeometry width="50" height="50" relative="1" as="geometry">
            <mxPoint x="4334.57" y="1670" as="sourcePoint" />
            <mxPoint x="4334.57" y="1470" as="targetPoint" />
            <Array as="points">
              <mxPoint x="4334.57" y="1470" />
            </Array>
          </mxGeometry>
        </mxCell>
        <mxCell id="o1A0--Sq_GG2lv819rfo-305" value="&lt;div&gt;&lt;br&gt;&lt;/div&gt;&lt;div&gt;&lt;br&gt;&lt;/div&gt;" style="endArrow=block;endSize=16;endFill=0;html=1;rounded=0;entryX=0.498;entryY=1.008;entryDx=0;entryDy=0;entryPerimeter=0;" parent="WIyWlLk6GJQsqaUBKTNV-1" target="o1A0--Sq_GG2lv819rfo-143" edge="1">
          <mxGeometry width="160" relative="1" as="geometry">
            <mxPoint x="4422.5" y="461" as="sourcePoint" />
            <mxPoint x="4422.5" y="380" as="targetPoint" />
          </mxGeometry>
        </mxCell>
        <mxCell id="o1A0--Sq_GG2lv819rfo-306" value="" style="endArrow=none;html=1;rounded=0;exitX=0.5;exitY=0;exitDx=0;exitDy=0;" parent="WIyWlLk6GJQsqaUBKTNV-1" edge="1">
          <mxGeometry width="50" height="50" relative="1" as="geometry">
            <mxPoint x="3870" y="570" as="sourcePoint" />
            <mxPoint x="4422.5" y="460" as="targetPoint" />
            <Array as="points">
              <mxPoint x="3870.5" y="460" />
            </Array>
          </mxGeometry>
        </mxCell>
        <mxCell id="o1A0--Sq_GG2lv819rfo-307" value="" style="endArrow=none;html=1;rounded=0;exitX=0.5;exitY=0;exitDx=0;exitDy=0;" parent="WIyWlLk6GJQsqaUBKTNV-1" source="o1A0--Sq_GG2lv819rfo-152" edge="1">
          <mxGeometry width="50" height="50" relative="1" as="geometry">
            <mxPoint x="4012.5" y="550" as="sourcePoint" />
            <mxPoint x="4012.5" y="460" as="targetPoint" />
          </mxGeometry>
        </mxCell>
        <mxCell id="o1A0--Sq_GG2lv819rfo-308" value="" style="endArrow=none;html=1;rounded=0;exitX=0.5;exitY=0;exitDx=0;exitDy=0;" parent="WIyWlLk6GJQsqaUBKTNV-1" edge="1">
          <mxGeometry width="50" height="50" relative="1" as="geometry">
            <mxPoint x="4162.16" y="570" as="sourcePoint" />
            <mxPoint x="4162.16" y="460" as="targetPoint" />
          </mxGeometry>
        </mxCell>
        <mxCell id="o1A0--Sq_GG2lv819rfo-309" value="" style="endArrow=none;html=1;rounded=0;exitX=0.5;exitY=0;exitDx=0;exitDy=0;" parent="WIyWlLk6GJQsqaUBKTNV-1" edge="1">
          <mxGeometry width="50" height="50" relative="1" as="geometry">
            <mxPoint x="4292.16" y="570" as="sourcePoint" />
            <mxPoint x="4292.16" y="460" as="targetPoint" />
          </mxGeometry>
        </mxCell>
        <mxCell id="o1A0--Sq_GG2lv819rfo-310" value="" style="endArrow=none;html=1;rounded=0;exitX=0.5;exitY=0;exitDx=0;exitDy=0;" parent="WIyWlLk6GJQsqaUBKTNV-1" edge="1">
          <mxGeometry width="50" height="50" relative="1" as="geometry">
            <mxPoint x="4422.16" y="570" as="sourcePoint" />
            <mxPoint x="4422.16" y="460" as="targetPoint" />
          </mxGeometry>
        </mxCell>
        <mxCell id="o1A0--Sq_GG2lv819rfo-311" value="" style="endArrow=none;html=1;rounded=0;exitX=0.5;exitY=0;exitDx=0;exitDy=0;" parent="WIyWlLk6GJQsqaUBKTNV-1" edge="1">
          <mxGeometry width="50" height="50" relative="1" as="geometry">
            <mxPoint x="4561.25" y="570" as="sourcePoint" />
            <mxPoint x="4561.25" y="460" as="targetPoint" />
          </mxGeometry>
        </mxCell>
        <mxCell id="o1A0--Sq_GG2lv819rfo-312" value="" style="endArrow=none;html=1;rounded=0;exitX=0.5;exitY=0;exitDx=0;exitDy=0;" parent="WIyWlLk6GJQsqaUBKTNV-1" edge="1">
          <mxGeometry width="50" height="50" relative="1" as="geometry">
            <mxPoint x="4692.5" y="570" as="sourcePoint" />
            <mxPoint x="4692.5" y="460" as="targetPoint" />
          </mxGeometry>
        </mxCell>
        <mxCell id="o1A0--Sq_GG2lv819rfo-313" value="" style="endArrow=none;html=1;rounded=0;exitX=0.5;exitY=0;exitDx=0;exitDy=0;" parent="WIyWlLk6GJQsqaUBKTNV-1" edge="1">
          <mxGeometry width="50" height="50" relative="1" as="geometry">
            <mxPoint x="4841.870000000001" y="570" as="sourcePoint" />
            <mxPoint x="4841.870000000001" y="460" as="targetPoint" />
          </mxGeometry>
        </mxCell>
        <mxCell id="o1A0--Sq_GG2lv819rfo-314" value="" style="endArrow=none;html=1;rounded=0;exitX=0.5;exitY=0;exitDx=0;exitDy=0;" parent="WIyWlLk6GJQsqaUBKTNV-1" edge="1">
          <mxGeometry width="50" height="50" relative="1" as="geometry">
            <mxPoint x="4989.380000000001" y="570" as="sourcePoint" />
            <mxPoint x="4989.380000000001" y="460" as="targetPoint" />
          </mxGeometry>
        </mxCell>
        <mxCell id="o1A0--Sq_GG2lv819rfo-315" value="" style="endArrow=none;html=1;rounded=0;exitX=0.5;exitY=0;exitDx=0;exitDy=0;" parent="WIyWlLk6GJQsqaUBKTNV-1" edge="1">
          <mxGeometry width="50" height="50" relative="1" as="geometry">
            <mxPoint x="5117.5" y="570" as="sourcePoint" />
            <mxPoint x="4422.5" y="460" as="targetPoint" />
            <Array as="points">
              <mxPoint x="5117.030000000001" y="460" />
            </Array>
          </mxGeometry>
        </mxCell>
        <mxCell id="o1A0--Sq_GG2lv819rfo-316" value="" style="endArrow=none;html=1;rounded=0;exitX=0.5;exitY=0;exitDx=0;exitDy=0;" parent="WIyWlLk6GJQsqaUBKTNV-1" edge="1">
          <mxGeometry width="50" height="50" relative="1" as="geometry">
            <mxPoint x="3941.5" y="690" as="sourcePoint" />
            <mxPoint x="3941.17" y="460" as="targetPoint" />
          </mxGeometry>
        </mxCell>
        <mxCell id="o1A0--Sq_GG2lv819rfo-319" value="" style="endArrow=none;html=1;rounded=0;exitX=0.5;exitY=0;exitDx=0;exitDy=0;" parent="WIyWlLk6GJQsqaUBKTNV-1" edge="1">
          <mxGeometry width="50" height="50" relative="1" as="geometry">
            <mxPoint x="4082.83" y="690" as="sourcePoint" />
            <mxPoint x="4082.5" y="460" as="targetPoint" />
          </mxGeometry>
        </mxCell>
        <mxCell id="o1A0--Sq_GG2lv819rfo-320" value="" style="endArrow=none;html=1;rounded=0;exitX=0.5;exitY=0;exitDx=0;exitDy=0;" parent="WIyWlLk6GJQsqaUBKTNV-1" edge="1">
          <mxGeometry width="50" height="50" relative="1" as="geometry">
            <mxPoint x="4225.35" y="690" as="sourcePoint" />
            <mxPoint x="4225.02" y="460" as="targetPoint" />
          </mxGeometry>
        </mxCell>
        <mxCell id="o1A0--Sq_GG2lv819rfo-321" value="" style="endArrow=none;html=1;rounded=0;exitX=0.5;exitY=0;exitDx=0;exitDy=0;" parent="WIyWlLk6GJQsqaUBKTNV-1" edge="1">
          <mxGeometry width="50" height="50" relative="1" as="geometry">
            <mxPoint x="4362.35" y="690" as="sourcePoint" />
            <mxPoint x="4362.02" y="460" as="targetPoint" />
          </mxGeometry>
        </mxCell>
        <mxCell id="o1A0--Sq_GG2lv819rfo-322" value="" style="endArrow=none;html=1;rounded=0;exitX=0.5;exitY=0;exitDx=0;exitDy=0;" parent="WIyWlLk6GJQsqaUBKTNV-1" edge="1">
          <mxGeometry width="50" height="50" relative="1" as="geometry">
            <mxPoint x="4492.83" y="690" as="sourcePoint" />
            <mxPoint x="4492.5" y="460" as="targetPoint" />
          </mxGeometry>
        </mxCell>
        <mxCell id="o1A0--Sq_GG2lv819rfo-323" value="" style="endArrow=none;html=1;rounded=0;exitX=0.5;exitY=0;exitDx=0;exitDy=0;" parent="WIyWlLk6GJQsqaUBKTNV-1" edge="1">
          <mxGeometry width="50" height="50" relative="1" as="geometry">
            <mxPoint x="4632.83" y="690" as="sourcePoint" />
            <mxPoint x="4632.5" y="460" as="targetPoint" />
          </mxGeometry>
        </mxCell>
        <mxCell id="o1A0--Sq_GG2lv819rfo-324" value="" style="endArrow=none;html=1;rounded=0;exitX=0.5;exitY=0;exitDx=0;exitDy=0;" parent="WIyWlLk6GJQsqaUBKTNV-1" edge="1">
          <mxGeometry width="50" height="50" relative="1" as="geometry">
            <mxPoint x="4924.71" y="690" as="sourcePoint" />
            <mxPoint x="4924.38" y="460" as="targetPoint" />
          </mxGeometry>
        </mxCell>
        <mxCell id="o1A0--Sq_GG2lv819rfo-325" value="" style="endArrow=none;html=1;rounded=0;exitX=0.5;exitY=0;exitDx=0;exitDy=0;" parent="WIyWlLk6GJQsqaUBKTNV-1" edge="1">
          <mxGeometry width="50" height="50" relative="1" as="geometry">
            <mxPoint x="4774.71" y="690" as="sourcePoint" />
            <mxPoint x="4774.38" y="460" as="targetPoint" />
          </mxGeometry>
        </mxCell>
        <mxCell id="bF6cEsMJnZBFDN_E_Ubx-0" value="&lt;div&gt;&lt;br&gt;&lt;/div&gt;&lt;div&gt;&lt;br&gt;&lt;/div&gt;" style="endArrow=block;endFill=1;html=1;align=left;verticalAlign=top;rounded=0;exitX=0.496;exitY=1.005;exitDx=0;exitDy=0;exitPerimeter=0;entryX=0.5;entryY=0;entryDx=0;entryDy=0;" parent="WIyWlLk6GJQsqaUBKTNV-1" source="o1A0--Sq_GG2lv819rfo-225" target="o1A0--Sq_GG2lv819rfo-93" edge="1">
          <mxGeometry x="-1" relative="1" as="geometry">
            <mxPoint x="1075.5" y="1360" as="sourcePoint" />
            <mxPoint x="1170" y="1330" as="targetPoint" />
          </mxGeometry>
        </mxCell>
        <mxCell id="bF6cEsMJnZBFDN_E_Ubx-2" value="&lt;div&gt;&lt;br&gt;&lt;/div&gt;" style="endArrow=block;endFill=1;html=1;align=left;verticalAlign=top;rounded=0;exitX=0.496;exitY=1;exitDx=0;exitDy=0;exitPerimeter=0;entryX=0.5;entryY=0;entryDx=0;entryDy=0;" parent="WIyWlLk6GJQsqaUBKTNV-1" source="o1A0--Sq_GG2lv819rfo-220" target="o1A0--Sq_GG2lv819rfo-97" edge="1">
          <mxGeometry x="-1" relative="1" as="geometry">
            <mxPoint x="1402.5" y="1376" as="sourcePoint" />
            <mxPoint x="1460" y="1210" as="targetPoint" />
          </mxGeometry>
        </mxCell>
        <mxCell id="bF6cEsMJnZBFDN_E_Ubx-3" value="&lt;div&gt;&lt;br&gt;&lt;/div&gt;&lt;div&gt;&lt;br&gt;&lt;/div&gt;" style="endArrow=block;endFill=1;html=1;align=left;verticalAlign=top;rounded=0;exitX=0.497;exitY=1.005;exitDx=0;exitDy=0;exitPerimeter=0;" parent="WIyWlLk6GJQsqaUBKTNV-1" source="o1A0--Sq_GG2lv819rfo-229" target="o1A0--Sq_GG2lv819rfo-105" edge="1">
          <mxGeometry x="-1" relative="1" as="geometry">
            <mxPoint x="1717.87" y="1396" as="sourcePoint" />
            <mxPoint x="1760" y="1370" as="targetPoint" />
          </mxGeometry>
        </mxCell>
        <mxCell id="bF6cEsMJnZBFDN_E_Ubx-4" value="&lt;div&gt;&lt;br&gt;&lt;/div&gt;&lt;div&gt;&lt;br&gt;&lt;/div&gt;" style="endArrow=block;endFill=1;html=1;align=left;verticalAlign=top;rounded=0;entryX=0.5;entryY=0;entryDx=0;entryDy=0;exitX=0.5;exitY=1;exitDx=0;exitDy=0;" parent="WIyWlLk6GJQsqaUBKTNV-1" source="o1A0--Sq_GG2lv819rfo-230" target="o1A0--Sq_GG2lv819rfo-109" edge="1">
          <mxGeometry x="-1" relative="1" as="geometry">
            <mxPoint x="2050" y="1170" as="sourcePoint" />
            <mxPoint x="2017.5" y="1250" as="targetPoint" />
          </mxGeometry>
        </mxCell>
        <mxCell id="bF6cEsMJnZBFDN_E_Ubx-5" value="&lt;div&gt;&lt;br&gt;&lt;/div&gt;&lt;div&gt;&lt;br&gt;&lt;/div&gt;" style="endArrow=block;endFill=1;html=1;align=left;verticalAlign=top;rounded=0;entryX=0.5;entryY=0;entryDx=0;entryDy=0;exitX=0.5;exitY=1;exitDx=0;exitDy=0;" parent="WIyWlLk6GJQsqaUBKTNV-1" source="o1A0--Sq_GG2lv819rfo-234" target="o1A0--Sq_GG2lv819rfo-113" edge="1">
          <mxGeometry x="-1" relative="1" as="geometry">
            <mxPoint x="2310" y="1210" as="sourcePoint" />
            <mxPoint x="2237.5" y="1150" as="targetPoint" />
          </mxGeometry>
        </mxCell>
        <mxCell id="bF6cEsMJnZBFDN_E_Ubx-6" value="&lt;div&gt;&lt;br&gt;&lt;/div&gt;&lt;div&gt;&lt;br&gt;&lt;/div&gt;" style="endArrow=block;endFill=1;html=1;align=left;verticalAlign=top;rounded=0;exitX=0.504;exitY=0.999;exitDx=0;exitDy=0;exitPerimeter=0;entryX=0.5;entryY=0;entryDx=0;entryDy=0;" parent="WIyWlLk6GJQsqaUBKTNV-1" source="o1A0--Sq_GG2lv819rfo-241" target="o1A0--Sq_GG2lv819rfo-117" edge="1">
          <mxGeometry x="-1" relative="1" as="geometry">
            <mxPoint x="2505.68" y="1423" as="sourcePoint" />
            <mxPoint x="2540" y="1330" as="targetPoint" />
          </mxGeometry>
        </mxCell>
        <mxCell id="bF6cEsMJnZBFDN_E_Ubx-7" value="&lt;div&gt;&lt;br&gt;&lt;/div&gt;&lt;div&gt;&lt;br&gt;&lt;/div&gt;" style="endArrow=block;endFill=1;html=1;align=left;verticalAlign=top;rounded=0;exitX=0.499;exitY=0.999;exitDx=0;exitDy=0;exitPerimeter=0;entryX=0.5;entryY=0;entryDx=0;entryDy=0;" parent="WIyWlLk6GJQsqaUBKTNV-1" source="o1A0--Sq_GG2lv819rfo-245" target="o1A0--Sq_GG2lv819rfo-126" edge="1">
          <mxGeometry x="-1" relative="1" as="geometry">
            <mxPoint x="2769.09" y="1436" as="sourcePoint" />
            <mxPoint x="2870" y="1330" as="targetPoint" />
          </mxGeometry>
        </mxCell>
        <mxCell id="bF6cEsMJnZBFDN_E_Ubx-8" value="&lt;div&gt;&lt;br&gt;&lt;/div&gt;&lt;div&gt;&lt;br&gt;&lt;/div&gt;" style="endArrow=block;endFill=1;html=1;align=left;verticalAlign=top;rounded=0;exitX=0.5;exitY=1;exitDx=0;exitDy=0;entryX=0.5;entryY=0;entryDx=0;entryDy=0;" parent="WIyWlLk6GJQsqaUBKTNV-1" source="o1A0--Sq_GG2lv819rfo-246" target="o1A0--Sq_GG2lv819rfo-136" edge="1">
          <mxGeometry x="-1" relative="1" as="geometry">
            <mxPoint x="2900" y="1456" as="sourcePoint" />
            <mxPoint x="3170" y="1400" as="targetPoint" />
          </mxGeometry>
        </mxCell>
        <mxCell id="bF6cEsMJnZBFDN_E_Ubx-19" value="GameManager" style="swimlane;fontStyle=1;align=center;verticalAlign=top;childLayout=stackLayout;horizontal=1;startSize=26;horizontalStack=0;resizeParent=1;resizeParentMax=0;resizeLast=0;collapsible=1;marginBottom=0;whiteSpace=wrap;html=1;" parent="WIyWlLk6GJQsqaUBKTNV-1" vertex="1">
          <mxGeometry x="1095" y="-700" width="420" height="560" as="geometry" />
        </mxCell>
        <mxCell id="bF6cEsMJnZBFDN_E_Ubx-20" value="- menuScreenLauncher: Consumer&amp;lt;GameManager&amp;gt;&lt;div&gt;- mainScreenLauncher: Consumer&amp;lt;GameManager&amp;gt;&lt;/div&gt;&lt;div&gt;- shopScreenLauncher: Consumer&amp;lt;GameManager&amp;gt;&lt;/div&gt;&lt;div&gt;- inventoryScreenLauncher: Consumer&amp;lt;GameManager&amp;gt;&lt;/div&gt;&lt;div&gt;- inventorySellScreenLauncher: Consumer&amp;lt;GameManager&amp;gt;&lt;/div&gt;&lt;div&gt;- endScreenLauncher: Consumer&amp;lt;GameManager&amp;gt;&lt;/div&gt;&lt;div&gt;- clearScreen: Runnable&lt;/div&gt;&lt;div&gt;- difficultyService: DifficultySelectionService&lt;/div&gt;&lt;div&gt;- nameService: NameInputService&lt;/div&gt;&lt;div&gt;- roundsService: RoundsSelectionService&lt;/div&gt;&lt;div&gt;- inventoryService: InventoryService&lt;/div&gt;&lt;div&gt;- moneyBalanceService: moneyService&lt;/div&gt;&lt;div&gt;- currentRoundService: CurrentRoundService&lt;/div&gt;&lt;div&gt;- shopAvailabilityService: ShopAvailabilityService&lt;/div&gt;&lt;div&gt;- playerScoreService: PlayerScoreService&lt;/div&gt;" style="text;strokeColor=none;fillColor=none;align=left;verticalAlign=top;spacingLeft=4;spacingRight=4;overflow=hidden;rotatable=0;points=[[0,0.5],[1,0.5]];portConstraint=eastwest;whiteSpace=wrap;html=1;" parent="bF6cEsMJnZBFDN_E_Ubx-19" vertex="1">
          <mxGeometry y="26" width="420" height="224" as="geometry" />
        </mxCell>
        <mxCell id="bF6cEsMJnZBFDN_E_Ubx-21" value="" style="line;strokeWidth=1;fillColor=none;align=left;verticalAlign=middle;spacingTop=-1;spacingLeft=3;spacingRight=3;rotatable=0;labelPosition=right;points=[];portConstraint=eastwest;strokeColor=inherit;" parent="bF6cEsMJnZBFDN_E_Ubx-19" vertex="1">
          <mxGeometry y="250" width="420" height="8" as="geometry" />
        </mxCell>
        <mxCell id="bF6cEsMJnZBFDN_E_Ubx-22" value="+ GameManager(menuScreenLauncher: Consumer&amp;lt;GameManager&amp;gt;, mainScreenLauncher: Consumer&amp;lt;GameManager&amp;gt;, shopScreenLauncher: Consumer&amp;lt;GameManager&amp;gt;, inventoryScreenLauncher: Consumer&amp;lt;GameManager&amp;gt;, inventorySellScreenLauncher: Consumer&amp;lt;GameManager&amp;gt;, endScreenLauncher: Consumer&amp;lt;GameManager&amp;gt;, clearScreen: Runnable)&lt;div&gt;+ resetAndLaunchMenuScreen(): void&lt;/div&gt;&lt;div&gt;+ resetAndLaunchMainScreen(): void&lt;/div&gt;&lt;div&gt;+ resetAndOpenShopScreen(): void&lt;/div&gt;&lt;div&gt;+ resetAndOpenInventoryScreen(): void&lt;/div&gt;&lt;div&gt;+ resetAndOpenInventorySellScreen(): void&lt;/div&gt;&lt;div&gt;+ resetAndOpenEndScreen(): void&lt;/div&gt;&lt;div&gt;+ getDifficultyService(): DifficultySelectionService&lt;/div&gt;&lt;div&gt;+ getNameService(): NameInputService&lt;/div&gt;&lt;div&gt;+ getRoundsService(): RoundsSelectionService&lt;/div&gt;&lt;div&gt;+ getInventoryService(): InventoryService&lt;/div&gt;&lt;div&gt;+ getMoneyService(): MoneyBalanceService&lt;/div&gt;&lt;div&gt;+ getCurrentRoundService(): CurrentRoundService&lt;/div&gt;&lt;div&gt;+ getShopAvailabilityService(): ShopAvailabilityService&lt;/div&gt;&lt;div&gt;+ getPlayerScoreService(): PlayerScoreService&lt;/div&gt;" style="text;strokeColor=none;fillColor=none;align=left;verticalAlign=top;spacingLeft=4;spacingRight=4;overflow=hidden;rotatable=0;points=[[0,0.5],[1,0.5]];portConstraint=eastwest;whiteSpace=wrap;html=1;" parent="bF6cEsMJnZBFDN_E_Ubx-19" vertex="1">
          <mxGeometry y="258" width="420" height="302" as="geometry" />
        </mxCell>
        <mxCell id="bF6cEsMJnZBFDN_E_Ubx-29" value="" style="endArrow=block;endFill=1;html=1;edgeStyle=orthogonalEdgeStyle;align=left;verticalAlign=top;rounded=0;exitX=0.5;exitY=0;exitDx=0;exitDy=0;entryX=0.502;entryY=1.001;entryDx=0;entryDy=0;entryPerimeter=0;" parent="WIyWlLk6GJQsqaUBKTNV-1" source="o1A0--Sq_GG2lv819rfo-22" target="bF6cEsMJnZBFDN_E_Ubx-22" edge="1">
          <mxGeometry x="-1" relative="1" as="geometry">
            <mxPoint x="1329" y="-50" as="sourcePoint" />
            <mxPoint x="1169" y="-50" as="targetPoint" />
            <Array as="points">
              <mxPoint x="1073" y="-30" />
              <mxPoint x="1306" y="-30" />
            </Array>
          </mxGeometry>
        </mxCell>
        <mxCell id="bF6cEsMJnZBFDN_E_Ubx-52" value="UpgradeCellFactory" style="swimlane;fontStyle=1;align=center;verticalAlign=top;childLayout=stackLayout;horizontal=1;startSize=26;horizontalStack=0;resizeParent=1;resizeParentMax=0;resizeLast=0;collapsible=1;marginBottom=0;whiteSpace=wrap;html=1;" parent="WIyWlLk6GJQsqaUBKTNV-1" vertex="1">
          <mxGeometry x="280" y="180" width="310" height="70" as="geometry" />
        </mxCell>
        <mxCell id="bF6cEsMJnZBFDN_E_Ubx-53" value="+ call(param: ListView&amp;lt;Upgrade&amp;gt;): ListCell&amp;lt;Upgrade&amp;gt;&lt;div&gt;+ updateItem(upgrade: Upgrade, empty: boolean): void&lt;br&gt;&lt;/div&gt;" style="text;strokeColor=none;fillColor=none;align=left;verticalAlign=top;spacingLeft=4;spacingRight=4;overflow=hidden;rotatable=0;points=[[0,0.5],[1,0.5]];portConstraint=eastwest;whiteSpace=wrap;html=1;" parent="bF6cEsMJnZBFDN_E_Ubx-52" vertex="1">
          <mxGeometry y="26" width="310" height="44" as="geometry" />
        </mxCell>
        <mxCell id="bF6cEsMJnZBFDN_E_Ubx-54" value="TowerCellFactory" style="swimlane;fontStyle=1;align=center;verticalAlign=top;childLayout=stackLayout;horizontal=1;startSize=26;horizontalStack=0;resizeParent=1;resizeParentMax=0;resizeLast=0;collapsible=1;marginBottom=0;whiteSpace=wrap;html=1;" parent="WIyWlLk6GJQsqaUBKTNV-1" vertex="1">
          <mxGeometry x="280" y="80" width="310" height="70" as="geometry" />
        </mxCell>
        <mxCell id="bF6cEsMJnZBFDN_E_Ubx-55" value="+ call(param: ListView&amp;lt;Tower&amp;gt;): ListCell&amp;lt;Tower&amp;gt;&lt;div&gt;+ updateItem(tower: Tower, empty: boolean): void&lt;/div&gt;" style="text;strokeColor=none;fillColor=none;align=left;verticalAlign=top;spacingLeft=4;spacingRight=4;overflow=hidden;rotatable=0;points=[[0,0.5],[1,0.5]];portConstraint=eastwest;whiteSpace=wrap;html=1;" parent="bF6cEsMJnZBFDN_E_Ubx-54" vertex="1">
          <mxGeometry y="26" width="310" height="44" as="geometry" />
        </mxCell>
        <mxCell id="bF6cEsMJnZBFDN_E_Ubx-56" value="ShopTowerCellFactory&lt;span style=&quot;color: rgba(0, 0, 0, 0); font-family: monospace; font-size: 0px; font-weight: 400; text-align: start; text-wrap: nowrap;&quot;&gt;%3CmxGraphModel%3E%3Croot%3E%3CmxCell%20id%3D%220%22%2F%3E%3CmxCell%20id%3D%221%22%20parent%3D%220%22%2F%3E%3CmxCell%20id%3D%222%22%20value%3D%22TowerCellFactory%22%20style%3D%22swimlane%3BfontStyle%3D1%3Balign%3Dcenter%3BverticalAlign%3Dtop%3BchildLayout%3DstackLayout%3Bhorizontal%3D1%3BstartSize%3D26%3BhorizontalStack%3D0%3BresizeParent%3D1%3BresizeParentMax%3D0%3BresizeLast%3D0%3Bcollapsible%3D1%3BmarginBottom%3D0%3BwhiteSpace%3Dwrap%3Bhtml%3D1%3B%22%20vertex%3D%221%22%20parent%3D%221%22%3E%3CmxGeometry%20x%3D%22380%22%20y%3D%22700%22%20width%3D%22310%22%20height%3D%2270%22%20as%3D%22geometry%22%2F%3E%3C%2FmxCell%3E%3CmxCell%20id%3D%223%22%20value%3D%22%2B%20call(param%3A%20ListView%26amp%3Blt%3BTower%26amp%3Bgt%3B)%3A%20ListCell%26amp%3Blt%3BTower%26amp%3Bgt%3B%26lt%3Bdiv%26gt%3B%2B%20updateItem(tower%3A%20Tower%2C%20empty%3A%20boolean)%3A%20void%26lt%3B%2Fdiv%26gt%3B%22%20style%3D%22text%3BstrokeColor%3Dnone%3BfillColor%3Dnone%3Balign%3Dleft%3BverticalAlign%3Dtop%3BspacingLeft%3D4%3BspacingRight%3D4%3Boverflow%3Dhidden%3Brotatable%3D0%3Bpoints%3D%5B%5B0%2C0.5%5D%2C%5B1%2C0.5%5D%5D%3BportConstraint%3Deastwest%3BwhiteSpace%3Dwrap%3Bhtml%3D1%3B%22%20vertex%3D%221%22%20parent%3D%222%22%3E%3CmxGeometry%20y%3D%2226%22%20width%3D%22310%22%20height%3D%2244%22%20as%3D%22geometry%22%2F%3E%3C%2FmxCell%3E%3C%2Froot%3E%3C%2FmxGraphModel%3E&lt;/span&gt;&lt;span style=&quot;color: rgba(0, 0, 0, 0); font-family: monospace; font-size: 0px; font-weight: 400; text-align: start; text-wrap: nowrap;&quot;&gt;%3CmxGraphModel%3E%3Croot%3E%3CmxCell%20id%3D%220%22%2F%3E%3CmxCell%20id%3D%221%22%20parent%3D%220%22%2F%3E%3CmxCell%20id%3D%222%22%20value%3D%22TowerCellFactory%22%20style%3D%22swimlane%3BfontStyle%3D1%3Balign%3Dcenter%3BverticalAlign%3Dtop%3BchildLayout%3DstackLayout%3Bhorizontal%3D1%3BstartSize%3D26%3BhorizontalStack%3D0%3BresizeParent%3D1%3BresizeParentMax%3D0%3BresizeLast%3D0%3Bcollapsible%3D1%3BmarginBottom%3D0%3BwhiteSpace%3Dwrap%3Bhtml%3D1%3B%22%20vertex%3D%221%22%20parent%3D%221%22%3E%3CmxGeometry%20x%3D%22380%22%20y%3D%22700%22%20width%3D%22310%22%20height%3D%2270%22%20as%3D%22geometry%22%2F%3E%3C%2FmxCell%3E%3CmxCell%20id%3D%223%22%20value%3D%22%2B%20call(param%3A%20ListView%26amp%3Blt%3BTower%26amp%3Bgt%3B)%3A%20ListCell%26amp%3Blt%3BTower%26amp%3Bgt%3B%26lt%3Bdiv%26gt%3B%2B%20updateItem(tower%3A%20Tower%2C%20empty%3A%20boolean)%3A%20void%26lt%3B%2Fdiv%26gt%3B%22%20style%3D%22text%3BstrokeColor%3Dnone%3BfillColor%3Dnone%3Balign%3Dleft%3BverticalAlign%3Dtop%3BspacingLeft%3D4%3BspacingRight%3D4%3Boverflow%3Dhidden%3Brotatable%3D0%3Bpoints%3D%5B%5B0%2C0.5%5D%2C%5B1%2C0.5%5D%5D%3BportConstraint%3Deastwest%3BwhiteSpace%3Dwrap%3Bhtml%3D1%3B%22%20vertex%3D%221%22%20parent%3D%222%22%3E%3CmxGeometry%20y%3D%2226%22%20width%3D%22310%22%20height%3D%2244%22%20as%3D%22geometry%22%2F%3E%3C%2FmxCell%3E%3C%2Froot%3E%3C%2FmxGraphModel%3E&lt;/span&gt;&lt;span style=&quot;color: rgba(0, 0, 0, 0); font-family: monospace; font-size: 0px; font-weight: 400; text-align: start; text-wrap: nowrap;&quot;&gt;%3CmxGraphModel%3E%3Croot%3E%3CmxCell%20id%3D%220%22%2F%3E%3CmxCell%20id%3D%221%22%20parent%3D%220%22%2F%3E%3CmxCell%20id%3D%222%22%20value%3D%22TowerCellFactory%22%20style%3D%22swimlane%3BfontStyle%3D1%3Balign%3Dcenter%3BverticalAlign%3Dtop%3BchildLayout%3DstackLayout%3Bhorizontal%3D1%3BstartSize%3D26%3BhorizontalStack%3D0%3BresizeParent%3D1%3BresizeParentMax%3D0%3BresizeLast%3D0%3Bcollapsible%3D1%3BmarginBottom%3D0%3BwhiteSpace%3Dwrap%3Bhtml%3D1%3B%22%20vertex%3D%221%22%20parent%3D%221%22%3E%3CmxGeometry%20x%3D%22380%22%20y%3D%22700%22%20width%3D%22310%22%20height%3D%2270%22%20as%3D%22geometry%22%2F%3E%3C%2FmxCell%3E%3CmxCell%20id%3D%223%22%20value%3D%22%2B%20call(param%3A%20ListView%26amp%3Blt%3BTower%26amp%3Bgt%3B)%3A%20ListCell%26amp%3Blt%3BTower%26amp%3Bgt%3B%26lt%3Bdiv%26gt%3B%2B%20updateItem(tower%3A%20Tower%2C%20empty%3A%20boolean)%3A%20void%26lt%3B%2Fdiv%26gt%3B%22%20style%3D%22text%3BstrokeColor%3Dnone%3BfillColor%3Dnone%3Balign%3Dleft%3BverticalAlign%3Dtop%3BspacingLeft%3D4%3BspacingRight%3D4%3Boverflow%3Dhidden%3Brotatable%3D0%3Bpoints%3D%5B%5B0%2C0.5%5D%2C%5B1%2C0.5%5D%5D%3BportConstraint%3Deastwest%3BwhiteSpace%3Dwrap%3Bhtml%3D1%3B%22%20vertex%3D%221%22%20parent%3D%222%22%3E%3CmxGeometry%20y%3D%2226%22%20width%3D%22310%22%20height%3D%2244%22%20as%3D%22geometry%22%2F%3E%3C%2FmxCell%3E%3C%2Froot%3E%3C%2FmxGraphModel%3E&lt;/span&gt;&lt;span style=&quot;color: rgba(0, 0, 0, 0); font-family: monospace; font-size: 0px; font-weight: 400; text-align: start; text-wrap: nowrap;&quot;&gt;%3CmxGraphModel%3E%3Croot%3E%3CmxCell%20id%3D%220%22%2F%3E%3CmxCell%20id%3D%221%22%20parent%3D%220%22%2F%3E%3CmxCell%20id%3D%222%22%20value%3D%22TowerCellFactory%22%20style%3D%22swimlane%3BfontStyle%3D1%3Balign%3Dcenter%3BverticalAlign%3Dtop%3BchildLayout%3DstackLayout%3Bhorizontal%3D1%3BstartSize%3D26%3BhorizontalStack%3D0%3BresizeParent%3D1%3BresizeParentMax%3D0%3BresizeLast%3D0%3Bcollapsible%3D1%3BmarginBottom%3D0%3BwhiteSpace%3Dwrap%3Bhtml%3D1%3B%22%20vertex%3D%221%22%20parent%3D%221%22%3E%3CmxGeometry%20x%3D%22380%22%20y%3D%22700%22%20width%3D%22310%22%20height%3D%2270%22%20as%3D%22geometry%22%2F%3E%3C%2FmxCell%3E%3CmxCell%20id%3D%223%22%20value%3D%22%2B%20call(param%3A%20ListView%26amp%3Blt%3BTower%26amp%3Bgt%3B)%3A%20ListCell%26amp%3Blt%3BTower%26amp%3Bgt%3B%26lt%3Bdiv%26gt%3B%2B%20updateItem(tower%3A%20Tower%2C%20empty%3A%20boolean)%3A%20void%26lt%3B%2Fdiv%26gt%3B%22%20style%3D%22text%3BstrokeColor%3Dnone%3BfillColor%3Dnone%3Balign%3Dleft%3BverticalAlign%3Dtop%3BspacingLeft%3D4%3BspacingRight%3D4%3Boverflow%3Dhidden%3Brotatable%3D0%3Bpoints%3D%5B%5B0%2C0.5%5D%2C%5B1%2C0.5%5D%5D%3BportConstraint%3Deastwest%3BwhiteSpace%3Dwrap%3Bhtml%3D1%3B%22%20vertex%3D%221%22%20parent%3D%222%22%3E%3CmxGeometry%20y%3D%2226%22%20width%3D%22310%22%20height%3D%2244%22%20as%3D%22geometry%22%2F%3E%3C%2FmxCell%3E%3C%2Froot%3E%3C%2FmxGraphModel%3E&lt;/span&gt;" style="swimlane;fontStyle=1;align=center;verticalAlign=top;childLayout=stackLayout;horizontal=1;startSize=26;horizontalStack=0;resizeParent=1;resizeParentMax=0;resizeLast=0;collapsible=1;marginBottom=0;whiteSpace=wrap;html=1;" parent="WIyWlLk6GJQsqaUBKTNV-1" vertex="1">
          <mxGeometry x="280" y="440" width="310" height="70" as="geometry" />
        </mxCell>
        <mxCell id="bF6cEsMJnZBFDN_E_Ubx-57" value="+ call(param: ListView&amp;lt;Tower&amp;gt;): ListCell&amp;lt;Tower&amp;gt;&lt;div&gt;+ updateItem(tower: Tower, empty: boolean): void&lt;/div&gt;" style="text;strokeColor=none;fillColor=none;align=left;verticalAlign=top;spacingLeft=4;spacingRight=4;overflow=hidden;rotatable=0;points=[[0,0.5],[1,0.5]];portConstraint=eastwest;whiteSpace=wrap;html=1;" parent="bF6cEsMJnZBFDN_E_Ubx-56" vertex="1">
          <mxGeometry y="26" width="310" height="44" as="geometry" />
        </mxCell>
        <mxCell id="bF6cEsMJnZBFDN_E_Ubx-58" value="ShopUpgradeCellFactory" style="swimlane;fontStyle=1;align=center;verticalAlign=top;childLayout=stackLayout;horizontal=1;startSize=26;horizontalStack=0;resizeParent=1;resizeParentMax=0;resizeLast=0;collapsible=1;marginBottom=0;whiteSpace=wrap;html=1;" parent="WIyWlLk6GJQsqaUBKTNV-1" vertex="1">
          <mxGeometry x="280" y="560" width="310" height="70" as="geometry" />
        </mxCell>
        <mxCell id="bF6cEsMJnZBFDN_E_Ubx-59" value="+ call(param: ListView&amp;lt;Upgrade&amp;gt;): ListCell&amp;lt;Upgrade&amp;gt;&lt;div&gt;+ updateItem(upgrade: Upgrade, empty: boolean): void&lt;/div&gt;" style="text;strokeColor=none;fillColor=none;align=left;verticalAlign=top;spacingLeft=4;spacingRight=4;overflow=hidden;rotatable=0;points=[[0,0.5],[1,0.5]];portConstraint=eastwest;whiteSpace=wrap;html=1;" parent="bF6cEsMJnZBFDN_E_Ubx-58" vertex="1">
          <mxGeometry y="26" width="310" height="44" as="geometry" />
        </mxCell>
        <mxCell id="bF6cEsMJnZBFDN_E_Ubx-60" value="CartCellFactory" style="swimlane;fontStyle=1;align=center;verticalAlign=top;childLayout=stackLayout;horizontal=1;startSize=26;horizontalStack=0;resizeParent=1;resizeParentMax=0;resizeLast=0;collapsible=1;marginBottom=0;whiteSpace=wrap;html=1;" parent="WIyWlLk6GJQsqaUBKTNV-1" vertex="1">
          <mxGeometry x="280" y="322" width="310" height="70" as="geometry" />
        </mxCell>
        <mxCell id="bF6cEsMJnZBFDN_E_Ubx-61" value="+ call(param: ListView&amp;lt;Cart&amp;gt;): ListCell&amp;lt;Cart&amp;gt;&lt;div&gt;+ updateItem(cart: Cart, empty: boolean): void&lt;/div&gt;" style="text;strokeColor=none;fillColor=none;align=left;verticalAlign=top;spacingLeft=4;spacingRight=4;overflow=hidden;rotatable=0;points=[[0,0.5],[1,0.5]];portConstraint=eastwest;whiteSpace=wrap;html=1;" parent="bF6cEsMJnZBFDN_E_Ubx-60" vertex="1">
          <mxGeometry y="26" width="310" height="44" as="geometry" />
        </mxCell>
        <mxCell id="bF6cEsMJnZBFDN_E_Ubx-67" style="edgeStyle=orthogonalEdgeStyle;rounded=0;orthogonalLoop=1;jettySize=auto;html=1;exitX=1;exitY=0.5;exitDx=0;exitDy=0;entryX=1.002;entryY=0.757;entryDx=0;entryDy=0;entryPerimeter=0;" parent="WIyWlLk6GJQsqaUBKTNV-1" target="bF6cEsMJnZBFDN_E_Ubx-53" edge="1">
          <mxGeometry relative="1" as="geometry">
            <mxPoint x="590" y="280" as="targetPoint" />
            <Array as="points">
              <mxPoint x="2629" y="307" />
              <mxPoint x="2629" y="732" />
              <mxPoint x="679" y="732" />
              <mxPoint x="679" y="239" />
            </Array>
            <mxPoint x="2670.0000000000005" y="307.09799999999996" as="sourcePoint" />
          </mxGeometry>
        </mxCell>
        <mxCell id="QzqUqXhoPKJTjenks_hg-0" value="&lt;div&gt;&lt;br&gt;&lt;/div&gt;&lt;div&gt;&lt;br&gt;&lt;/div&gt;" style="endArrow=block;endFill=1;html=1;edgeStyle=orthogonalEdgeStyle;align=left;verticalAlign=top;rounded=0;exitX=0.504;exitY=1.009;exitDx=0;exitDy=0;fillColor=#1ba1e2;strokeColor=#006EAF;strokeWidth=2;exitPerimeter=0;" parent="WIyWlLk6GJQsqaUBKTNV-1" source="o1A0--Sq_GG2lv819rfo-25" target="o1A0--Sq_GG2lv819rfo-222" edge="1">
          <mxGeometry x="-0.7952" relative="1" as="geometry">
            <mxPoint x="1100" y="840" as="sourcePoint" />
            <mxPoint x="1050" y="930" as="targetPoint" />
            <Array as="points">
              <mxPoint x="1074" y="850" />
              <mxPoint x="1050" y="850" />
            </Array>
            <mxPoint as="offset" />
          </mxGeometry>
        </mxCell>
        <mxCell id="QzqUqXhoPKJTjenks_hg-1" value="&lt;div&gt;&lt;br&gt;&lt;/div&gt;&lt;div&gt;&lt;br&gt;&lt;/div&gt;" style="edgeLabel;resizable=0;html=1;align=left;verticalAlign=bottom;" parent="QzqUqXhoPKJTjenks_hg-0" connectable="0" vertex="1">
          <mxGeometry x="-1" relative="1" as="geometry" />
        </mxCell>
        <mxCell id="q5Wzd799PpqzLv_GGQuX-2" value="" style="endArrow=block;endFill=1;html=1;edgeStyle=orthogonalEdgeStyle;align=left;verticalAlign=top;rounded=0;exitX=0;exitY=0.203;exitDx=0;exitDy=0;exitPerimeter=0;" edge="1" parent="WIyWlLk6GJQsqaUBKTNV-1" source="bF6cEsMJnZBFDN_E_Ubx-22">
          <mxGeometry x="-1" relative="1" as="geometry">
            <mxPoint x="1093.3200000000002" y="-410.8" as="sourcePoint" />
            <mxPoint x="2742" y="1140" as="targetPoint" />
            <Array as="points">
              <mxPoint x="1050" y="-381" />
              <mxPoint x="800" y="-380" />
              <mxPoint x="800" y="1361" />
              <mxPoint x="2742" y="1361" />
            </Array>
          </mxGeometry>
        </mxCell>
        <mxCell id="q5Wzd799PpqzLv_GGQuX-4" value="" style="endArrow=block;endFill=1;html=1;edgeStyle=orthogonalEdgeStyle;align=left;verticalAlign=top;rounded=0;exitX=0;exitY=0.138;exitDx=0;exitDy=0;exitPerimeter=0;entryX=0.198;entryY=0.999;entryDx=0;entryDy=0;entryPerimeter=0;" edge="1" parent="WIyWlLk6GJQsqaUBKTNV-1" source="bF6cEsMJnZBFDN_E_Ubx-22">
          <mxGeometry x="-1" relative="1" as="geometry">
            <mxPoint x="1093.3200000000002" y="-399.966" as="sourcePoint" />
            <mxPoint x="3049.5" y="1249.828" as="targetPoint" />
            <Array as="points">
              <mxPoint x="790" y="-400" />
              <mxPoint x="790" y="1373" />
              <mxPoint x="3050" y="1373" />
            </Array>
          </mxGeometry>
        </mxCell>
        <mxCell id="q5Wzd799PpqzLv_GGQuX-5" value="" style="endArrow=block;endFill=1;html=1;edgeStyle=orthogonalEdgeStyle;align=left;verticalAlign=top;rounded=0;exitX=0;exitY=0.202;exitDx=0;exitDy=0;exitPerimeter=0;entryX=0.245;entryY=1.007;entryDx=0;entryDy=0;entryPerimeter=0;" edge="1" parent="WIyWlLk6GJQsqaUBKTNV-1" target="o1A0--Sq_GG2lv819rfo-241">
          <mxGeometry x="-1" relative="1" as="geometry">
            <mxPoint x="1095" y="-360" as="sourcePoint" />
            <mxPoint x="2742" y="1161" as="targetPoint" />
            <Array as="points">
              <mxPoint x="810" y="-360" />
              <mxPoint x="810" y="1350" />
              <mxPoint x="2452" y="1350" />
              <mxPoint x="2452" y="1161" />
              <mxPoint x="2451" y="1161" />
            </Array>
          </mxGeometry>
        </mxCell>
        <mxCell id="q5Wzd799PpqzLv_GGQuX-8" value="" style="endArrow=block;endFill=1;html=1;edgeStyle=orthogonalEdgeStyle;align=left;verticalAlign=top;rounded=0;exitX=0;exitY=0.202;exitDx=0;exitDy=0;exitPerimeter=0;entryX=0.251;entryY=1.006;entryDx=0;entryDy=0;entryPerimeter=0;" edge="1" parent="WIyWlLk6GJQsqaUBKTNV-1" target="o1A0--Sq_GG2lv819rfo-237">
          <mxGeometry x="-1" relative="1" as="geometry">
            <mxPoint x="1095" y="-340" as="sourcePoint" />
            <mxPoint x="2210" y="1160" as="targetPoint" />
            <Array as="points">
              <mxPoint x="820" y="-340" />
              <mxPoint x="820" y="1340" />
              <mxPoint x="2220" y="1340" />
            </Array>
          </mxGeometry>
        </mxCell>
        <mxCell id="q5Wzd799PpqzLv_GGQuX-9" value="" style="endArrow=block;endFill=1;html=1;edgeStyle=orthogonalEdgeStyle;align=left;verticalAlign=top;rounded=0;exitX=0;exitY=0.202;exitDx=0;exitDy=0;exitPerimeter=0;entryX=0.245;entryY=0.998;entryDx=0;entryDy=0;entryPerimeter=0;" edge="1" parent="WIyWlLk6GJQsqaUBKTNV-1" target="o1A0--Sq_GG2lv819rfo-233">
          <mxGeometry x="-1" relative="1" as="geometry">
            <mxPoint x="1095" y="-320" as="sourcePoint" />
            <mxPoint x="2220" y="1160" as="targetPoint" />
            <Array as="points">
              <mxPoint x="830" y="-320" />
              <mxPoint x="830" y="1330" />
              <mxPoint x="1964" y="1330" />
            </Array>
          </mxGeometry>
        </mxCell>
        <mxCell id="q5Wzd799PpqzLv_GGQuX-10" value="" style="endArrow=block;endFill=1;html=1;edgeStyle=orthogonalEdgeStyle;align=left;verticalAlign=top;rounded=0;exitX=0;exitY=0.202;exitDx=0;exitDy=0;exitPerimeter=0;" edge="1" parent="WIyWlLk6GJQsqaUBKTNV-1">
          <mxGeometry x="-1" relative="1" as="geometry">
            <mxPoint x="1095" y="-300" as="sourcePoint" />
            <mxPoint x="1600" y="1270" as="targetPoint" />
            <Array as="points">
              <mxPoint x="840" y="-300" />
              <mxPoint x="840" y="1320" />
              <mxPoint x="1600" y="1320" />
            </Array>
          </mxGeometry>
        </mxCell>
        <mxCell id="q5Wzd799PpqzLv_GGQuX-11" value="" style="endArrow=block;endFill=1;html=1;edgeStyle=orthogonalEdgeStyle;align=left;verticalAlign=top;rounded=0;exitX=0;exitY=0.202;exitDx=0;exitDy=0;exitPerimeter=0;entryX=0.245;entryY=1.003;entryDx=0;entryDy=0;entryPerimeter=0;" edge="1" parent="WIyWlLk6GJQsqaUBKTNV-1" target="o1A0--Sq_GG2lv819rfo-220">
          <mxGeometry x="-1" relative="1" as="geometry">
            <mxPoint x="1095" y="-280" as="sourcePoint" />
            <mxPoint x="1600" y="1290" as="targetPoint" />
            <Array as="points">
              <mxPoint x="850" y="-280" />
              <mxPoint x="850" y="1310" />
              <mxPoint x="1359" y="1310" />
            </Array>
          </mxGeometry>
        </mxCell>
        <mxCell id="q5Wzd799PpqzLv_GGQuX-12" value="" style="endArrow=block;endFill=1;html=1;edgeStyle=orthogonalEdgeStyle;align=left;verticalAlign=top;rounded=0;exitX=0;exitY=0.202;exitDx=0;exitDy=0;exitPerimeter=0;entryX=0;entryY=0.5;entryDx=0;entryDy=0;" edge="1" parent="WIyWlLk6GJQsqaUBKTNV-1" target="o1A0--Sq_GG2lv819rfo-225">
          <mxGeometry x="-1" relative="1" as="geometry">
            <mxPoint x="1095" y="-260" as="sourcePoint" />
            <mxPoint x="1359" y="1164" as="targetPoint" />
            <Array as="points">
              <mxPoint x="860" y="-260" />
              <mxPoint x="860" y="1188" />
            </Array>
          </mxGeometry>
        </mxCell>
        <mxCell id="q5Wzd799PpqzLv_GGQuX-13" style="edgeStyle=orthogonalEdgeStyle;rounded=0;orthogonalLoop=1;jettySize=auto;html=1;exitX=1;exitY=0.5;exitDx=0;exitDy=0;entryX=0.25;entryY=0;entryDx=0;entryDy=0;shadow=1;dashed=1;dashPattern=12 12;" edge="1" parent="WIyWlLk6GJQsqaUBKTNV-1" source="bF6cEsMJnZBFDN_E_Ubx-20" target="o1A0--Sq_GG2lv819rfo-56">
          <mxGeometry relative="1" as="geometry">
            <mxPoint x="1800" y="-640" as="sourcePoint" />
            <mxPoint x="2147" y="-640" as="targetPoint" />
          </mxGeometry>
        </mxCell>
        <mxCell id="q5Wzd799PpqzLv_GGQuX-14" value="" style="endArrow=block;endFill=1;html=1;edgeStyle=orthogonalEdgeStyle;align=left;verticalAlign=top;rounded=0;strokeWidth=2;fillColor=#1ba1e2;strokeColor=#006EAF;entryX=0.25;entryY=0;entryDx=0;entryDy=0;" edge="1" parent="WIyWlLk6GJQsqaUBKTNV-1" target="o1A0--Sq_GG2lv819rfo-217">
          <mxGeometry x="-1" relative="1" as="geometry">
            <mxPoint x="1360" y="850" as="sourcePoint" />
            <mxPoint x="1360" y="940" as="targetPoint" />
          </mxGeometry>
        </mxCell>
        <mxCell id="q5Wzd799PpqzLv_GGQuX-17" value="" style="endArrow=block;endFill=1;html=1;edgeStyle=orthogonalEdgeStyle;align=left;verticalAlign=top;rounded=0;strokeWidth=2;fillColor=#1ba1e2;strokeColor=#006EAF;entryX=0.25;entryY=0;entryDx=0;entryDy=0;" edge="1" parent="WIyWlLk6GJQsqaUBKTNV-1">
          <mxGeometry x="-1" relative="1" as="geometry">
            <mxPoint x="1610" y="850" as="sourcePoint" />
            <mxPoint x="1610" y="1020" as="targetPoint" />
          </mxGeometry>
        </mxCell>
        <mxCell id="q5Wzd799PpqzLv_GGQuX-19" value="" style="endArrow=block;endFill=1;html=1;edgeStyle=orthogonalEdgeStyle;align=left;verticalAlign=top;rounded=0;strokeWidth=2;fillColor=#1ba1e2;strokeColor=#006EAF;entryX=0.25;entryY=0;entryDx=0;entryDy=0;" edge="1" parent="WIyWlLk6GJQsqaUBKTNV-1">
          <mxGeometry x="-1" relative="1" as="geometry">
            <mxPoint x="1940" y="850" as="sourcePoint" />
            <mxPoint x="1940" y="1020" as="targetPoint" />
          </mxGeometry>
        </mxCell>
        <mxCell id="q5Wzd799PpqzLv_GGQuX-20" value="" style="endArrow=block;endFill=1;html=1;edgeStyle=orthogonalEdgeStyle;align=left;verticalAlign=top;rounded=0;strokeWidth=2;fillColor=#1ba1e2;strokeColor=#006EAF;entryX=0.25;entryY=0;entryDx=0;entryDy=0;" edge="1" parent="WIyWlLk6GJQsqaUBKTNV-1">
          <mxGeometry x="-1" relative="1" as="geometry">
            <mxPoint x="2237.5" y="850" as="sourcePoint" />
            <mxPoint x="2237.5" y="1020" as="targetPoint" />
          </mxGeometry>
        </mxCell>
        <mxCell id="q5Wzd799PpqzLv_GGQuX-21" value="" style="endArrow=block;endFill=1;html=1;edgeStyle=orthogonalEdgeStyle;align=left;verticalAlign=top;rounded=0;strokeWidth=2;fillColor=#1ba1e2;strokeColor=#006EAF;entryX=0.25;entryY=0;entryDx=0;entryDy=0;" edge="1" parent="WIyWlLk6GJQsqaUBKTNV-1">
          <mxGeometry x="-1" relative="1" as="geometry">
            <mxPoint x="2450" y="850" as="sourcePoint" />
            <mxPoint x="2450" y="1020" as="targetPoint" />
          </mxGeometry>
        </mxCell>
        <mxCell id="q5Wzd799PpqzLv_GGQuX-22" value="" style="endArrow=block;endFill=1;html=1;edgeStyle=orthogonalEdgeStyle;align=left;verticalAlign=top;rounded=0;strokeWidth=2;fillColor=#1ba1e2;strokeColor=#006EAF;entryX=0.25;entryY=0;entryDx=0;entryDy=0;" edge="1" parent="WIyWlLk6GJQsqaUBKTNV-1">
          <mxGeometry x="-1" relative="1" as="geometry">
            <mxPoint x="2720" y="850" as="sourcePoint" />
            <mxPoint x="2720" y="1020" as="targetPoint" />
          </mxGeometry>
        </mxCell>
        <mxCell id="q5Wzd799PpqzLv_GGQuX-23" value="" style="endArrow=block;endFill=1;html=1;edgeStyle=orthogonalEdgeStyle;align=left;verticalAlign=top;rounded=0;strokeWidth=2;fillColor=#1ba1e2;strokeColor=#006EAF;entryX=0.25;entryY=0;entryDx=0;entryDy=0;" edge="1" parent="WIyWlLk6GJQsqaUBKTNV-1">
          <mxGeometry x="-1" relative="1" as="geometry">
            <mxPoint x="1070" y="850" as="sourcePoint" />
            <mxPoint x="3060" y="1020" as="targetPoint" />
          </mxGeometry>
        </mxCell>
        <mxCell id="q5Wzd799PpqzLv_GGQuX-25" value="" style="endArrow=block;endFill=1;html=1;edgeStyle=orthogonalEdgeStyle;align=left;verticalAlign=top;rounded=0;strokeWidth=2;strokeColor=#2D7600;exitX=0.504;exitY=1.001;exitDx=0;exitDy=0;exitPerimeter=0;" edge="1" parent="WIyWlLk6GJQsqaUBKTNV-1" source="o1A0--Sq_GG2lv819rfo-63">
          <mxGeometry x="-1" relative="1" as="geometry">
            <mxPoint x="1530" y="560" as="sourcePoint" />
            <mxPoint x="1100" y="1024.0044444444443" as="targetPoint" />
            <Array as="points">
              <mxPoint x="1559" y="830" />
              <mxPoint x="1100" y="830" />
            </Array>
          </mxGeometry>
        </mxCell>
        <mxCell id="q5Wzd799PpqzLv_GGQuX-27" value="" style="endArrow=block;endFill=1;html=1;edgeStyle=orthogonalEdgeStyle;align=left;verticalAlign=top;rounded=0;strokeWidth=2;strokeColor=#2D7600;entryX=0.25;entryY=0;entryDx=0;entryDy=0;" edge="1" parent="WIyWlLk6GJQsqaUBKTNV-1">
          <mxGeometry x="-1" relative="1" as="geometry">
            <mxPoint x="1660" y="830" as="sourcePoint" />
            <mxPoint x="1660" y="1020" as="targetPoint" />
            <Array as="points">
              <mxPoint x="1660" y="970" />
              <mxPoint x="1660" y="970" />
            </Array>
          </mxGeometry>
        </mxCell>
        <mxCell id="q5Wzd799PpqzLv_GGQuX-28" value="" style="endArrow=block;endFill=1;html=1;edgeStyle=orthogonalEdgeStyle;align=left;verticalAlign=top;rounded=0;strokeWidth=2;strokeColor=#2D7600;entryX=0.25;entryY=0;entryDx=0;entryDy=0;" edge="1" parent="WIyWlLk6GJQsqaUBKTNV-1">
          <mxGeometry x="-1" relative="1" as="geometry">
            <mxPoint x="1990" y="830" as="sourcePoint" />
            <mxPoint x="1990" y="1020" as="targetPoint" />
            <Array as="points">
              <mxPoint x="1990" y="970" />
              <mxPoint x="1990" y="970" />
            </Array>
          </mxGeometry>
        </mxCell>
        <mxCell id="q5Wzd799PpqzLv_GGQuX-29" value="" style="endArrow=block;endFill=1;html=1;edgeStyle=orthogonalEdgeStyle;align=left;verticalAlign=top;rounded=0;strokeWidth=2;strokeColor=#2D7600;entryX=0.25;entryY=0;entryDx=0;entryDy=0;" edge="1" parent="WIyWlLk6GJQsqaUBKTNV-1">
          <mxGeometry x="-1" relative="1" as="geometry">
            <mxPoint x="1544.2857142857142" y="830" as="sourcePoint" />
            <mxPoint x="2780" y="1020" as="targetPoint" />
            <Array as="points">
              <mxPoint x="2780" y="970" />
              <mxPoint x="2780" y="970" />
            </Array>
          </mxGeometry>
        </mxCell>
        <mxCell id="q5Wzd799PpqzLv_GGQuX-30" value="" style="endArrow=block;endFill=1;html=1;edgeStyle=orthogonalEdgeStyle;align=left;verticalAlign=top;rounded=0;strokeWidth=2;strokeColor=#FF0000;exitX=0.5;exitY=1.002;exitDx=0;exitDy=0;exitPerimeter=0;entryX=0.5;entryY=0;entryDx=0;entryDy=0;" edge="1" parent="WIyWlLk6GJQsqaUBKTNV-1" source="o1A0--Sq_GG2lv819rfo-42" target="o1A0--Sq_GG2lv819rfo-222">
          <mxGeometry x="-1" relative="1" as="geometry">
            <mxPoint x="1855" y="670" as="sourcePoint" />
            <mxPoint x="1210" y="880" as="targetPoint" />
            <Array as="points">
              <mxPoint x="1958" y="880" />
              <mxPoint x="1135" y="880" />
            </Array>
          </mxGeometry>
        </mxCell>
        <mxCell id="q5Wzd799PpqzLv_GGQuX-33" value="" style="endArrow=block;endFill=1;html=1;edgeStyle=orthogonalEdgeStyle;align=left;verticalAlign=top;rounded=0;strokeWidth=2;strokeColor=#FF0000;" edge="1" parent="WIyWlLk6GJQsqaUBKTNV-1">
          <mxGeometry x="-1" relative="1" as="geometry">
            <mxPoint x="1707.5" y="880" as="sourcePoint" />
            <mxPoint x="1708" y="1020" as="targetPoint" />
            <Array as="points">
              <mxPoint x="1707.5" y="1020" />
              <mxPoint x="1707.5" y="1020" />
            </Array>
          </mxGeometry>
        </mxCell>
        <mxCell id="q5Wzd799PpqzLv_GGQuX-34" value="" style="endArrow=block;endFill=1;html=1;edgeStyle=orthogonalEdgeStyle;align=left;verticalAlign=top;rounded=0;strokeWidth=2;strokeColor=#FF0000;" edge="1" parent="WIyWlLk6GJQsqaUBKTNV-1">
          <mxGeometry x="-1" relative="1" as="geometry">
            <mxPoint x="2030" y="880" as="sourcePoint" />
            <mxPoint x="2030.5" y="1020" as="targetPoint" />
            <Array as="points">
              <mxPoint x="2030" y="1020" />
              <mxPoint x="2030" y="1020" />
            </Array>
          </mxGeometry>
        </mxCell>
        <mxCell id="q5Wzd799PpqzLv_GGQuX-35" value="" style="endArrow=block;endFill=1;html=1;edgeStyle=orthogonalEdgeStyle;align=left;verticalAlign=top;rounded=0;strokeWidth=2;strokeColor=#FF0000;" edge="1" parent="WIyWlLk6GJQsqaUBKTNV-1">
          <mxGeometry x="-1" relative="1" as="geometry">
            <mxPoint x="2501.94" y="880" as="sourcePoint" />
            <mxPoint x="2502.44" y="1020" as="targetPoint" />
            <Array as="points">
              <mxPoint x="2501.94" y="1020" />
              <mxPoint x="2501.94" y="1020" />
            </Array>
          </mxGeometry>
        </mxCell>
        <mxCell id="q5Wzd799PpqzLv_GGQuX-36" value="" style="endArrow=block;endFill=1;html=1;edgeStyle=orthogonalEdgeStyle;align=left;verticalAlign=top;rounded=0;strokeWidth=2;strokeColor=#FF0000;" edge="1" parent="WIyWlLk6GJQsqaUBKTNV-1">
          <mxGeometry x="-1" relative="1" as="geometry">
            <mxPoint x="2850.05" y="880" as="sourcePoint" />
            <mxPoint x="2850.55" y="1020" as="targetPoint" />
            <Array as="points">
              <mxPoint x="2850.05" y="1020" />
              <mxPoint x="2850.05" y="1020" />
            </Array>
          </mxGeometry>
        </mxCell>
        <mxCell id="q5Wzd799PpqzLv_GGQuX-37" value="" style="endArrow=block;endFill=1;html=1;edgeStyle=orthogonalEdgeStyle;align=left;verticalAlign=top;rounded=0;strokeWidth=2;strokeColor=#FF0000;" edge="1" parent="WIyWlLk6GJQsqaUBKTNV-1">
          <mxGeometry x="-1" relative="1" as="geometry">
            <mxPoint x="1950" y="880" as="sourcePoint" />
            <mxPoint x="3120.55" y="1020" as="targetPoint" />
            <Array as="points">
              <mxPoint x="3121" y="880" />
            </Array>
          </mxGeometry>
        </mxCell>
        <mxCell id="q5Wzd799PpqzLv_GGQuX-39" value="" style="endArrow=block;endFill=1;html=1;edgeStyle=orthogonalEdgeStyle;align=left;verticalAlign=top;rounded=0;exitX=0.497;exitY=0.999;exitDx=0;exitDy=0;exitPerimeter=0;entryX=0.813;entryY=-0.004;entryDx=0;entryDy=0;entryPerimeter=0;strokeColor=#D29EFF;strokeWidth=2;" edge="1" parent="WIyWlLk6GJQsqaUBKTNV-1">
          <mxGeometry x="-1" relative="1" as="geometry">
            <mxPoint x="2378" y="640.9180000000001" as="sourcePoint" />
            <mxPoint x="1170" y="1024" as="targetPoint" />
            <Array as="points">
              <mxPoint x="2379" y="901" />
              <mxPoint x="1170" y="901" />
            </Array>
          </mxGeometry>
        </mxCell>
        <mxCell id="q5Wzd799PpqzLv_GGQuX-42" value="" style="endArrow=block;endFill=1;html=1;edgeStyle=orthogonalEdgeStyle;align=left;verticalAlign=top;rounded=0;strokeWidth=2;strokeColor=#D29EFF;" edge="1" parent="WIyWlLk6GJQsqaUBKTNV-1">
          <mxGeometry x="-1" relative="1" as="geometry">
            <mxPoint x="1420" y="900" as="sourcePoint" />
            <mxPoint x="1420.24" y="1024" as="targetPoint" />
            <Array as="points">
              <mxPoint x="1419.74" y="1024" />
              <mxPoint x="1419.74" y="1024" />
            </Array>
          </mxGeometry>
        </mxCell>
        <mxCell id="q5Wzd799PpqzLv_GGQuX-43" value="" style="endArrow=block;endFill=1;html=1;edgeStyle=orthogonalEdgeStyle;align=left;verticalAlign=top;rounded=0;strokeWidth=2;strokeColor=#D29EFF;" edge="1" parent="WIyWlLk6GJQsqaUBKTNV-1">
          <mxGeometry x="-1" relative="1" as="geometry">
            <mxPoint x="1760" y="900" as="sourcePoint" />
            <mxPoint x="1760.24" y="1020" as="targetPoint" />
            <Array as="points">
              <mxPoint x="1759.74" y="1020" />
              <mxPoint x="1759.74" y="1020" />
            </Array>
          </mxGeometry>
        </mxCell>
        <mxCell id="q5Wzd799PpqzLv_GGQuX-44" value="" style="endArrow=block;endFill=1;html=1;edgeStyle=orthogonalEdgeStyle;align=left;verticalAlign=top;rounded=0;strokeWidth=2;strokeColor=#D29EFF;" edge="1" parent="WIyWlLk6GJQsqaUBKTNV-1">
          <mxGeometry x="-1" relative="1" as="geometry">
            <mxPoint x="2060" y="900" as="sourcePoint" />
            <mxPoint x="2060.24" y="1020" as="targetPoint" />
            <Array as="points">
              <mxPoint x="2059.74" y="1020" />
              <mxPoint x="2059.74" y="1020" />
            </Array>
          </mxGeometry>
        </mxCell>
        <mxCell id="q5Wzd799PpqzLv_GGQuX-45" value="" style="endArrow=block;endFill=1;html=1;edgeStyle=orthogonalEdgeStyle;align=left;verticalAlign=top;rounded=0;strokeWidth=2;strokeColor=#D29EFF;" edge="1" parent="WIyWlLk6GJQsqaUBKTNV-1">
          <mxGeometry x="-1" relative="1" as="geometry">
            <mxPoint x="2290" y="900" as="sourcePoint" />
            <mxPoint x="2290.24" y="1020" as="targetPoint" />
            <Array as="points">
              <mxPoint x="2289.74" y="1020" />
              <mxPoint x="2289.74" y="1020" />
            </Array>
          </mxGeometry>
        </mxCell>
        <mxCell id="q5Wzd799PpqzLv_GGQuX-46" value="" style="endArrow=block;endFill=1;html=1;edgeStyle=orthogonalEdgeStyle;align=left;verticalAlign=top;rounded=0;strokeWidth=2;strokeColor=#D29EFF;" edge="1" parent="WIyWlLk6GJQsqaUBKTNV-1">
          <mxGeometry x="-1" relative="1" as="geometry">
            <mxPoint x="2540" y="900" as="sourcePoint" />
            <mxPoint x="2540.24" y="1020" as="targetPoint" />
            <Array as="points">
              <mxPoint x="2539.74" y="1020" />
              <mxPoint x="2539.74" y="1020" />
            </Array>
          </mxGeometry>
        </mxCell>
        <mxCell id="q5Wzd799PpqzLv_GGQuX-47" value="" style="endArrow=block;endFill=1;html=1;edgeStyle=orthogonalEdgeStyle;align=left;verticalAlign=top;rounded=0;strokeWidth=2;strokeColor=#D29EFF;" edge="1" parent="WIyWlLk6GJQsqaUBKTNV-1">
          <mxGeometry x="-1" relative="1" as="geometry">
            <mxPoint x="2810" y="899.97" as="sourcePoint" />
            <mxPoint x="2810.24" y="1019.97" as="targetPoint" />
            <Array as="points">
              <mxPoint x="2809.74" y="1019.97" />
              <mxPoint x="2809.74" y="1019.97" />
            </Array>
          </mxGeometry>
        </mxCell>
        <mxCell id="q5Wzd799PpqzLv_GGQuX-48" value="" style="endArrow=block;endFill=1;html=1;edgeStyle=orthogonalEdgeStyle;align=left;verticalAlign=top;rounded=0;strokeWidth=2;strokeColor=#D29EFF;" edge="1" parent="WIyWlLk6GJQsqaUBKTNV-1">
          <mxGeometry x="-1" relative="1" as="geometry">
            <mxPoint x="2375" y="901" as="sourcePoint" />
            <mxPoint x="3160.12" y="1020" as="targetPoint" />
            <Array as="points">
              <mxPoint x="2380" y="901" />
              <mxPoint x="3160" y="900" />
            </Array>
          </mxGeometry>
        </mxCell>
        <mxCell id="QzqUqXhoPKJTjenks_hg-37" value="" style="endArrow=block;endFill=1;html=1;edgeStyle=orthogonalEdgeStyle;align=left;verticalAlign=top;rounded=0;entryX=0.78;entryY=0.004;entryDx=0;entryDy=0;entryPerimeter=0;exitX=0.502;exitY=1.001;exitDx=0;exitDy=0;exitPerimeter=0;strokeColor=#4D9900;strokeWidth=2;" parent="WIyWlLk6GJQsqaUBKTNV-1" source="o1A0--Sq_GG2lv819rfo-38" target="o1A0--Sq_GG2lv819rfo-222" edge="1">
          <mxGeometry x="-1" relative="1" as="geometry">
            <mxPoint x="2842" y="577" as="sourcePoint" />
            <mxPoint x="1203" y="1034" as="targetPoint" />
            <Array as="points">
              <mxPoint x="3213" y="926" />
              <mxPoint x="1200" y="926" />
              <mxPoint x="1200" y="990" />
              <mxPoint x="1199" y="990" />
            </Array>
          </mxGeometry>
        </mxCell>
        <mxCell id="QzqUqXhoPKJTjenks_hg-35" value="" style="endArrow=block;endFill=1;html=1;edgeStyle=orthogonalEdgeStyle;align=left;verticalAlign=top;rounded=0;entryX=0.902;entryY=0.001;entryDx=0;entryDy=0;entryPerimeter=0;exitX=0.498;exitY=1.003;exitDx=0;exitDy=0;strokeColor=#C73500;fillColor=#fa6800;exitPerimeter=0;strokeWidth=2;" parent="WIyWlLk6GJQsqaUBKTNV-1" source="o1A0--Sq_GG2lv819rfo-54" target="o1A0--Sq_GG2lv819rfo-222" edge="1">
          <mxGeometry x="-1" relative="1" as="geometry">
            <mxPoint x="2820" y="780" as="sourcePoint" />
            <mxPoint x="2660" y="780" as="targetPoint" />
            <Array as="points">
              <mxPoint x="2832" y="950" />
              <mxPoint x="1228" y="950" />
            </Array>
          </mxGeometry>
        </mxCell>
        <mxCell id="bF6cEsMJnZBFDN_E_Ubx-70" style="edgeStyle=orthogonalEdgeStyle;rounded=0;orthogonalLoop=1;jettySize=auto;html=1;exitX=-0.001;exitY=0.462;exitDx=0;exitDy=0;entryX=0;entryY=0.5;entryDx=0;entryDy=0;exitPerimeter=0;" parent="WIyWlLk6GJQsqaUBKTNV-1" source="o1A0--Sq_GG2lv819rfo-36" target="bF6cEsMJnZBFDN_E_Ubx-57" edge="1">
          <mxGeometry relative="1" as="geometry">
            <Array as="points">
              <mxPoint x="3020" y="350" />
              <mxPoint x="3020" y="770" />
              <mxPoint x="260" y="770" />
              <mxPoint x="260" y="488" />
            </Array>
            <mxPoint x="2210" y="840" as="sourcePoint" />
          </mxGeometry>
        </mxCell>
        <mxCell id="bF6cEsMJnZBFDN_E_Ubx-69" style="edgeStyle=orthogonalEdgeStyle;rounded=0;orthogonalLoop=1;jettySize=auto;html=1;" parent="WIyWlLk6GJQsqaUBKTNV-1" source="o1A0--Sq_GG2lv819rfo-36" target="bF6cEsMJnZBFDN_E_Ubx-59" edge="1">
          <mxGeometry relative="1" as="geometry">
            <Array as="points">
              <mxPoint x="3040" y="370" />
              <mxPoint x="3040" y="780" />
              <mxPoint x="430" y="780" />
            </Array>
          </mxGeometry>
        </mxCell>
        <mxCell id="bF6cEsMJnZBFDN_E_Ubx-68" style="edgeStyle=orthogonalEdgeStyle;rounded=0;orthogonalLoop=1;jettySize=auto;html=1;" parent="WIyWlLk6GJQsqaUBKTNV-1" source="o1A0--Sq_GG2lv819rfo-40" target="bF6cEsMJnZBFDN_E_Ubx-61" edge="1">
          <mxGeometry relative="1" as="geometry">
            <Array as="points">
              <mxPoint x="1750" y="255" />
              <mxPoint x="1750" y="620" />
              <mxPoint x="1204" y="620" />
              <mxPoint x="1204" y="580" />
              <mxPoint x="650" y="580" />
              <mxPoint x="650" y="420" />
              <mxPoint x="435" y="420" />
            </Array>
          </mxGeometry>
        </mxCell>
        <mxCell id="bF6cEsMJnZBFDN_E_Ubx-64" style="edgeStyle=orthogonalEdgeStyle;rounded=0;orthogonalLoop=1;jettySize=auto;html=1;exitX=-0.003;exitY=0.574;exitDx=0;exitDy=0;exitPerimeter=0;" parent="WIyWlLk6GJQsqaUBKTNV-1" source="o1A0--Sq_GG2lv819rfo-61" target="bF6cEsMJnZBFDN_E_Ubx-53" edge="1">
          <mxGeometry relative="1" as="geometry">
            <Array as="points">
              <mxPoint x="1370" y="286" />
              <mxPoint x="1370" y="550" />
              <mxPoint x="700" y="550" />
              <mxPoint x="700" y="220" />
            </Array>
          </mxGeometry>
        </mxCell>
        <mxCell id="bF6cEsMJnZBFDN_E_Ubx-63" style="edgeStyle=orthogonalEdgeStyle;rounded=0;orthogonalLoop=1;jettySize=auto;html=1;exitX=0;exitY=0.5;exitDx=0;exitDy=0;" parent="WIyWlLk6GJQsqaUBKTNV-1" source="o1A0--Sq_GG2lv819rfo-61" target="bF6cEsMJnZBFDN_E_Ubx-55" edge="1">
          <mxGeometry relative="1" as="geometry">
            <Array as="points">
              <mxPoint x="1350" y="264" />
              <mxPoint x="1350" y="540" />
              <mxPoint x="720" y="540" />
              <mxPoint x="720" y="120" />
            </Array>
          </mxGeometry>
        </mxCell>
        <mxCell id="bF6cEsMJnZBFDN_E_Ubx-65" style="edgeStyle=orthogonalEdgeStyle;rounded=0;orthogonalLoop=1;jettySize=auto;html=1;exitX=0;exitY=0.5;exitDx=0;exitDy=0;" parent="WIyWlLk6GJQsqaUBKTNV-1" source="o1A0--Sq_GG2lv819rfo-52" target="bF6cEsMJnZBFDN_E_Ubx-55" edge="1">
          <mxGeometry relative="1" as="geometry">
            <Array as="points">
              <mxPoint x="2600" y="254" />
              <mxPoint x="2600" y="720" />
              <mxPoint x="750" y="720" />
              <mxPoint x="750" y="140" />
            </Array>
          </mxGeometry>
        </mxCell>
        <mxCell id="q5Wzd799PpqzLv_GGQuX-50" value="" style="endArrow=block;endFill=1;html=1;edgeStyle=orthogonalEdgeStyle;align=left;verticalAlign=top;rounded=0;strokeWidth=2;strokeColor=#C73500;" edge="1" parent="WIyWlLk6GJQsqaUBKTNV-1">
          <mxGeometry x="-1" relative="1" as="geometry">
            <mxPoint x="1810" y="950" as="sourcePoint" />
            <mxPoint x="1810.24" y="1020" as="targetPoint" />
            <Array as="points">
              <mxPoint x="1809.74" y="1020" />
              <mxPoint x="1809.74" y="1020" />
            </Array>
          </mxGeometry>
        </mxCell>
        <mxCell id="q5Wzd799PpqzLv_GGQuX-52" value="" style="endArrow=block;endFill=1;html=1;edgeStyle=orthogonalEdgeStyle;align=left;verticalAlign=top;rounded=0;strokeWidth=2;strokeColor=#C73500;" edge="1" parent="WIyWlLk6GJQsqaUBKTNV-1">
          <mxGeometry x="-1" relative="1" as="geometry">
            <mxPoint x="2090" y="950" as="sourcePoint" />
            <mxPoint x="2090.24" y="1020" as="targetPoint" />
            <Array as="points">
              <mxPoint x="2089.74" y="1020" />
              <mxPoint x="2089.74" y="1020" />
            </Array>
          </mxGeometry>
        </mxCell>
        <mxCell id="q5Wzd799PpqzLv_GGQuX-53" value="" style="endArrow=block;endFill=1;html=1;edgeStyle=orthogonalEdgeStyle;align=left;verticalAlign=top;rounded=0;strokeWidth=2;strokeColor=#C73500;" edge="1" parent="WIyWlLk6GJQsqaUBKTNV-1">
          <mxGeometry x="-1" relative="1" as="geometry">
            <mxPoint x="2750" y="950" as="sourcePoint" />
            <mxPoint x="2750.24" y="1020" as="targetPoint" />
            <Array as="points">
              <mxPoint x="2749.74" y="1020" />
              <mxPoint x="2749.74" y="1020" />
            </Array>
          </mxGeometry>
        </mxCell>
        <mxCell id="q5Wzd799PpqzLv_GGQuX-56" value="" style="endArrow=block;endFill=1;html=1;edgeStyle=orthogonalEdgeStyle;align=left;verticalAlign=top;rounded=0;strokeWidth=2;strokeColor=#4D9900;" edge="1" parent="WIyWlLk6GJQsqaUBKTNV-1">
          <mxGeometry x="-1" relative="1" as="geometry">
            <mxPoint x="1850" y="926" as="sourcePoint" />
            <mxPoint x="1850.24" y="1020" as="targetPoint" />
            <Array as="points">
              <mxPoint x="1850" y="1010" />
              <mxPoint x="1850" y="1010" />
            </Array>
          </mxGeometry>
        </mxCell>
        <mxCell id="q5Wzd799PpqzLv_GGQuX-57" value="" style="endArrow=block;endFill=1;html=1;edgeStyle=orthogonalEdgeStyle;align=left;verticalAlign=top;rounded=0;strokeWidth=2;strokeColor=#4D9900;" edge="1" parent="WIyWlLk6GJQsqaUBKTNV-1">
          <mxGeometry x="-1" relative="1" as="geometry">
            <mxPoint x="2115.01" y="926" as="sourcePoint" />
            <mxPoint x="2115.25" y="1020" as="targetPoint" />
            <Array as="points">
              <mxPoint x="2115.01" y="1010" />
              <mxPoint x="2115.01" y="1010" />
            </Array>
          </mxGeometry>
        </mxCell>
        <mxCell id="q5Wzd799PpqzLv_GGQuX-58" value="" style="endArrow=block;endFill=1;html=1;edgeStyle=orthogonalEdgeStyle;align=left;verticalAlign=top;rounded=0;strokeWidth=2;strokeColor=#4D9900;" edge="1" parent="WIyWlLk6GJQsqaUBKTNV-1">
          <mxGeometry x="-1" relative="1" as="geometry">
            <mxPoint x="2890.02" y="926" as="sourcePoint" />
            <mxPoint x="2890.2599999999998" y="1020" as="targetPoint" />
            <Array as="points">
              <mxPoint x="2890.02" y="980" />
              <mxPoint x="2890.02" y="980" />
            </Array>
          </mxGeometry>
        </mxCell>
        <mxCell id="q5Wzd799PpqzLv_GGQuX-59" value="" style="endArrow=block;endFill=1;html=1;edgeStyle=orthogonalEdgeStyle;align=left;verticalAlign=top;rounded=0;strokeWidth=2;strokeColor=#4D9900;" edge="1" parent="WIyWlLk6GJQsqaUBKTNV-1">
          <mxGeometry x="-1" relative="1" as="geometry">
            <mxPoint x="3200.02" y="926" as="sourcePoint" />
            <mxPoint x="3200.2599999999998" y="1020" as="targetPoint" />
            <Array as="points">
              <mxPoint x="3200.02" y="980" />
              <mxPoint x="3200.02" y="980" />
            </Array>
          </mxGeometry>
        </mxCell>
        <mxCell id="q5Wzd799PpqzLv_GGQuX-60" value="" style="endArrow=none;html=1;rounded=0;entryX=0.5;entryY=0;entryDx=0;entryDy=0;" edge="1" parent="WIyWlLk6GJQsqaUBKTNV-1" target="o1A0--Sq_GG2lv819rfo-35">
          <mxGeometry width="50" height="50" relative="1" as="geometry">
            <mxPoint x="1300" y="-30" as="sourcePoint" />
            <mxPoint x="2890" y="-10" as="targetPoint" />
            <Array as="points">
              <mxPoint x="3213" y="-30" />
            </Array>
          </mxGeometry>
        </mxCell>
        <mxCell id="q5Wzd799PpqzLv_GGQuX-61" value="" style="endArrow=none;html=1;rounded=0;exitX=0.5;exitY=0;exitDx=0;exitDy=0;" edge="1" parent="WIyWlLk6GJQsqaUBKTNV-1" source="o1A0--Sq_GG2lv819rfo-60">
          <mxGeometry width="50" height="50" relative="1" as="geometry">
            <mxPoint x="1540" y="80" as="sourcePoint" />
            <mxPoint x="1558" y="-30" as="targetPoint" />
          </mxGeometry>
        </mxCell>
        <mxCell id="q5Wzd799PpqzLv_GGQuX-62" value="" style="endArrow=none;html=1;rounded=0;exitX=0.5;exitY=0;exitDx=0;exitDy=0;" edge="1" parent="WIyWlLk6GJQsqaUBKTNV-1" source="o1A0--Sq_GG2lv819rfo-39">
          <mxGeometry width="50" height="50" relative="1" as="geometry">
            <mxPoint x="1957.22" y="91" as="sourcePoint" />
            <mxPoint x="1957.22" y="-30" as="targetPoint" />
          </mxGeometry>
        </mxCell>
        <mxCell id="q5Wzd799PpqzLv_GGQuX-63" value="" style="endArrow=none;html=1;rounded=0;exitX=0.5;exitY=0;exitDx=0;exitDy=0;" edge="1" parent="WIyWlLk6GJQsqaUBKTNV-1" source="o1A0--Sq_GG2lv819rfo-43">
          <mxGeometry width="50" height="50" relative="1" as="geometry">
            <mxPoint x="2390.7799999999997" y="91" as="sourcePoint" />
            <mxPoint x="2378" y="-30" as="targetPoint" />
          </mxGeometry>
        </mxCell>
        <mxCell id="q5Wzd799PpqzLv_GGQuX-64" value="" style="endArrow=none;html=1;rounded=0;exitX=0.5;exitY=0;exitDx=0;exitDy=0;" edge="1" parent="WIyWlLk6GJQsqaUBKTNV-1" source="o1A0--Sq_GG2lv819rfo-51">
          <mxGeometry width="50" height="50" relative="1" as="geometry">
            <mxPoint x="2730.7799999999997" y="111" as="sourcePoint" />
            <mxPoint x="2833" y="-30" as="targetPoint" />
          </mxGeometry>
        </mxCell>
        <mxCell id="q5Wzd799PpqzLv_GGQuX-68" style="edgeStyle=orthogonalEdgeStyle;rounded=0;orthogonalLoop=1;jettySize=auto;html=1;dashed=1;exitX=0.75;exitY=0;exitDx=0;exitDy=0;entryX=0.003;entryY=0.103;entryDx=0;entryDy=0;entryPerimeter=0;dashPattern=12 12;" edge="1" parent="WIyWlLk6GJQsqaUBKTNV-1" source="o1A0--Sq_GG2lv819rfo-60" target="o1A0--Sq_GG2lv819rfo-143">
          <mxGeometry relative="1" as="geometry">
            <mxPoint x="1170" y="-70" as="sourcePoint" />
            <mxPoint x="4213" y="279" as="targetPoint" />
            <Array as="points">
              <mxPoint x="1633" y="-100" />
              <mxPoint x="3560" y="-100" />
              <mxPoint x="3560" y="145" />
            </Array>
          </mxGeometry>
        </mxCell>
        <mxCell id="q5Wzd799PpqzLv_GGQuX-69" style="edgeStyle=orthogonalEdgeStyle;rounded=0;orthogonalLoop=1;jettySize=auto;html=1;dashed=1;exitX=0.75;exitY=0;exitDx=0;exitDy=0;entryX=0;entryY=0.2;entryDx=0;entryDy=0;entryPerimeter=0;dashPattern=12 12;" edge="1" parent="WIyWlLk6GJQsqaUBKTNV-1" source="o1A0--Sq_GG2lv819rfo-43" target="o1A0--Sq_GG2lv819rfo-143">
          <mxGeometry relative="1" as="geometry">
            <mxPoint x="1610.46" y="101" as="sourcePoint" />
            <mxPoint x="4175.500000000001" y="186.38200000000006" as="targetPoint" />
            <Array as="points">
              <mxPoint x="2447" y="-80" />
              <mxPoint x="3537" y="-80" />
              <mxPoint x="3537" y="170" />
              <mxPoint x="4175" y="170" />
            </Array>
          </mxGeometry>
        </mxCell>
        <mxCell id="q5Wzd799PpqzLv_GGQuX-70" style="edgeStyle=orthogonalEdgeStyle;rounded=0;orthogonalLoop=1;jettySize=auto;html=1;dashed=1;exitX=0.75;exitY=0;exitDx=0;exitDy=0;entryX=-0.002;entryY=0.296;entryDx=0;entryDy=0;entryPerimeter=0;dashPattern=12 12;" edge="1" parent="WIyWlLk6GJQsqaUBKTNV-1" source="o1A0--Sq_GG2lv819rfo-51" target="o1A0--Sq_GG2lv819rfo-143">
          <mxGeometry relative="1" as="geometry">
            <mxPoint x="2458" y="101" as="sourcePoint" />
            <mxPoint x="4193" y="180" as="targetPoint" />
            <Array as="points">
              <mxPoint x="2913" y="80" />
              <mxPoint x="2913" y="-60" />
              <mxPoint x="3510" y="-60" />
              <mxPoint x="3510" y="196" />
            </Array>
          </mxGeometry>
        </mxCell>
        <mxCell id="q5Wzd799PpqzLv_GGQuX-75" style="edgeStyle=orthogonalEdgeStyle;rounded=0;orthogonalLoop=1;jettySize=auto;html=1;dashed=1;entryX=-0.003;entryY=0.395;entryDx=0;entryDy=0;entryPerimeter=0;exitX=0.75;exitY=0;exitDx=0;exitDy=0;dashPattern=12 12;" edge="1" parent="WIyWlLk6GJQsqaUBKTNV-1" source="o1A0--Sq_GG2lv819rfo-35" target="o1A0--Sq_GG2lv819rfo-143">
          <mxGeometry relative="1" as="geometry">
            <mxPoint x="3350" y="220" as="sourcePoint" />
            <mxPoint x="4180" y="230" as="targetPoint" />
            <Array as="points">
              <mxPoint x="3283" y="70" />
              <mxPoint x="3490" y="70" />
              <mxPoint x="3490" y="222" />
            </Array>
          </mxGeometry>
        </mxCell>
        <mxCell id="q5Wzd799PpqzLv_GGQuX-77" style="edgeStyle=orthogonalEdgeStyle;rounded=0;orthogonalLoop=1;jettySize=auto;html=1;dashed=1;entryX=0;entryY=0.5;entryDx=0;entryDy=0;exitX=1;exitY=0.5;exitDx=0;exitDy=0;dashPattern=12 12;" edge="1" parent="WIyWlLk6GJQsqaUBKTNV-1" source="o1A0--Sq_GG2lv819rfo-42" target="o1A0--Sq_GG2lv819rfo-90">
          <mxGeometry relative="1" as="geometry">
            <mxPoint x="1640" y="660" as="sourcePoint" />
            <mxPoint x="4010" y="950" as="targetPoint" />
            <Array as="points">
              <mxPoint x="2140" y="545" />
              <mxPoint x="2140" y="820" />
              <mxPoint x="3988" y="820" />
              <mxPoint x="3988" y="928" />
            </Array>
          </mxGeometry>
        </mxCell>
        <mxCell id="q5Wzd799PpqzLv_GGQuX-78" style="edgeStyle=orthogonalEdgeStyle;rounded=0;orthogonalLoop=1;jettySize=auto;html=1;dashed=1;startArrow=none;startFill=0;dashPattern=12 12;entryX=1;entryY=0.5;entryDx=0;entryDy=0;exitX=0;exitY=0.5;exitDx=0;exitDy=0;" edge="1" parent="WIyWlLk6GJQsqaUBKTNV-1" source="bF6cEsMJnZBFDN_E_Ubx-53" target="o1A0--Sq_GG2lv819rfo-147">
          <mxGeometry relative="1" as="geometry">
            <mxPoint x="220" y="220" as="sourcePoint" />
            <mxPoint x="5020" y="1280" as="targetPoint" />
            <Array as="points">
              <mxPoint x="210" y="228" />
              <mxPoint x="210" y="2060" />
              <mxPoint x="5270" y="2060" />
              <mxPoint x="5270" y="1334" />
            </Array>
          </mxGeometry>
        </mxCell>
        <mxCell id="q5Wzd799PpqzLv_GGQuX-79" style="edgeStyle=orthogonalEdgeStyle;rounded=0;orthogonalLoop=1;jettySize=auto;html=1;dashed=1;entryX=0;entryY=0.5;entryDx=0;entryDy=0;exitX=0.798;exitY=1.014;exitDx=0;exitDy=0;exitPerimeter=0;dashPattern=12 12;" edge="1" parent="WIyWlLk6GJQsqaUBKTNV-1" source="o1A0--Sq_GG2lv819rfo-38" target="o1A0--Sq_GG2lv819rfo-145">
          <mxGeometry relative="1" as="geometry">
            <mxPoint x="3368.4615384615386" y="890" as="sourcePoint" />
            <mxPoint x="3940" y="1220" as="targetPoint" />
            <Array as="points">
              <mxPoint x="3296" y="930" />
              <mxPoint x="3918" y="930" />
              <mxPoint x="3918" y="1228" />
            </Array>
          </mxGeometry>
        </mxCell>
        <mxCell id="q5Wzd799PpqzLv_GGQuX-80" style="edgeStyle=orthogonalEdgeStyle;rounded=0;orthogonalLoop=1;jettySize=auto;html=1;dashed=1;entryX=0;entryY=0.5;entryDx=0;entryDy=0;exitX=0.741;exitY=1.006;exitDx=0;exitDy=0;exitPerimeter=0;dashPattern=12 12;" edge="1" parent="WIyWlLk6GJQsqaUBKTNV-1" source="o1A0--Sq_GG2lv819rfo-54">
          <mxGeometry relative="1" as="geometry">
            <mxPoint x="3296" y="830" as="sourcePoint" />
            <mxPoint x="4105" y="1255" as="targetPoint" />
            <Array as="points">
              <mxPoint x="2910" y="950" />
              <mxPoint x="3900" y="950" />
              <mxPoint x="3900" y="1255" />
            </Array>
          </mxGeometry>
        </mxCell>
        <mxCell id="q5Wzd799PpqzLv_GGQuX-81" style="edgeStyle=orthogonalEdgeStyle;rounded=0;orthogonalLoop=1;jettySize=auto;html=1;dashed=1;entryX=0;entryY=0.5;entryDx=0;entryDy=0;dashPattern=12 12;exitX=0.574;exitY=1.006;exitDx=0;exitDy=0;exitPerimeter=0;" edge="1" parent="WIyWlLk6GJQsqaUBKTNV-1" source="o1A0--Sq_GG2lv819rfo-63">
          <mxGeometry relative="1" as="geometry">
            <mxPoint x="2160" y="440" as="sourcePoint" />
            <mxPoint x="4105" y="1283" as="targetPoint" />
            <Array as="points">
              <mxPoint x="1580" y="970" />
              <mxPoint x="3880" y="970" />
              <mxPoint x="3880" y="1283" />
            </Array>
          </mxGeometry>
        </mxCell>
        <mxCell id="q5Wzd799PpqzLv_GGQuX-82" style="edgeStyle=orthogonalEdgeStyle;rounded=0;orthogonalLoop=1;jettySize=auto;html=1;dashed=1;startArrow=none;startFill=0;dashPattern=12 12;exitX=1;exitY=0.5;exitDx=0;exitDy=0;" edge="1" parent="WIyWlLk6GJQsqaUBKTNV-1" source="o1A0--Sq_GG2lv819rfo-249">
          <mxGeometry relative="1" as="geometry">
            <mxPoint x="3480" y="1310" as="sourcePoint" />
            <mxPoint x="4105" y="1310" as="targetPoint" />
            <Array as="points">
              <mxPoint x="3300" y="1164" />
              <mxPoint x="3300" y="1310" />
            </Array>
          </mxGeometry>
        </mxCell>
        <mxCell id="q5Wzd799PpqzLv_GGQuX-84" style="edgeStyle=orthogonalEdgeStyle;rounded=0;orthogonalLoop=1;jettySize=auto;html=1;dashed=1;startArrow=none;startFill=0;dashPattern=12 12;exitX=1;exitY=0.5;exitDx=0;exitDy=0;" edge="1" parent="WIyWlLk6GJQsqaUBKTNV-1" source="o1A0--Sq_GG2lv819rfo-229">
          <mxGeometry relative="1" as="geometry">
            <mxPoint x="1820" y="1350" as="sourcePoint" />
            <mxPoint x="4105" y="1336" as="targetPoint" />
            <Array as="points">
              <mxPoint x="1930" y="1174" />
              <mxPoint x="1930" y="1320" />
              <mxPoint x="3180" y="1320" />
              <mxPoint x="3180" y="1336" />
            </Array>
          </mxGeometry>
        </mxCell>
        <mxCell id="q5Wzd799PpqzLv_GGQuX-85" style="edgeStyle=orthogonalEdgeStyle;rounded=0;orthogonalLoop=1;jettySize=auto;html=1;dashed=1;startArrow=none;startFill=0;dashPattern=12 12;exitX=1;exitY=0.5;exitDx=0;exitDy=0;" edge="1" parent="WIyWlLk6GJQsqaUBKTNV-1" source="o1A0--Sq_GG2lv819rfo-137">
          <mxGeometry relative="1" as="geometry">
            <mxPoint x="3560" y="1360" as="sourcePoint" />
            <mxPoint x="4105" y="1360" as="targetPoint" />
            <Array as="points">
              <mxPoint x="3320" y="1503" />
              <mxPoint x="3320" y="1360" />
            </Array>
          </mxGeometry>
        </mxCell>
        <mxCell id="q5Wzd799PpqzLv_GGQuX-86" style="edgeStyle=orthogonalEdgeStyle;rounded=0;orthogonalLoop=1;jettySize=auto;html=1;dashed=1;startArrow=none;startFill=0;dashPattern=12 12;exitX=0.596;exitY=1.027;exitDx=0;exitDy=0;exitPerimeter=0;" edge="1" parent="WIyWlLk6GJQsqaUBKTNV-1" source="o1A0--Sq_GG2lv819rfo-108">
          <mxGeometry relative="1" as="geometry">
            <mxPoint x="1940" y="1890" as="sourcePoint" />
            <mxPoint x="4105" y="1380" as="targetPoint" />
            <Array as="points">
              <mxPoint x="1746" y="1800" />
              <mxPoint x="3360" y="1800" />
              <mxPoint x="3360" y="1380" />
            </Array>
          </mxGeometry>
        </mxCell>
        <mxCell id="q5Wzd799PpqzLv_GGQuX-87" style="edgeStyle=orthogonalEdgeStyle;rounded=0;orthogonalLoop=1;jettySize=auto;html=1;dashed=1;startArrow=none;startFill=0;dashPattern=12 12;exitX=1;exitY=0.5;exitDx=0;exitDy=0;entryX=1;entryY=0.5;entryDx=0;entryDy=0;" edge="1" parent="WIyWlLk6GJQsqaUBKTNV-1" source="o1A0--Sq_GG2lv819rfo-96" target="o1A0--Sq_GG2lv819rfo-90">
          <mxGeometry relative="1" as="geometry">
            <mxPoint x="1360" y="1880" as="sourcePoint" />
            <mxPoint x="4680" y="930" as="targetPoint" />
            <Array as="points">
              <mxPoint x="1310" y="1714" />
              <mxPoint x="1310" y="1840" />
              <mxPoint x="5030" y="1840" />
              <mxPoint x="5030" y="928" />
            </Array>
          </mxGeometry>
        </mxCell>
        <mxCell id="q5Wzd799PpqzLv_GGQuX-88" value="" style="endArrow=none;html=1;rounded=0;dashed=1;dashPattern=12 12;entryX=1;entryY=0.5;entryDx=0;entryDy=0;" edge="1" parent="WIyWlLk6GJQsqaUBKTNV-1" target="o1A0--Sq_GG2lv819rfo-225">
          <mxGeometry width="50" height="50" relative="1" as="geometry">
            <mxPoint x="1310" y="1720" as="sourcePoint" />
            <mxPoint x="1390" y="1640" as="targetPoint" />
            <Array as="points">
              <mxPoint x="1310" y="1190" />
            </Array>
          </mxGeometry>
        </mxCell>
        <mxCell id="q5Wzd799PpqzLv_GGQuX-89" style="edgeStyle=orthogonalEdgeStyle;rounded=0;orthogonalLoop=1;jettySize=auto;html=1;dashed=1;startArrow=none;startFill=0;dashPattern=12 12;entryX=1;entryY=0.5;entryDx=0;entryDy=0;exitX=1;exitY=0.302;exitDx=0;exitDy=0;exitPerimeter=0;" edge="1" parent="WIyWlLk6GJQsqaUBKTNV-1" source="o1A0--Sq_GG2lv819rfo-249" target="o1A0--Sq_GG2lv819rfo-143">
          <mxGeometry relative="1" as="geometry">
            <mxPoint x="2180" y="1730" as="sourcePoint" />
            <mxPoint x="5010" y="230" as="targetPoint" />
            <Array as="points">
              <mxPoint x="3450" y="1130" />
              <mxPoint x="3450" y="1900" />
              <mxPoint x="5190" y="1900" />
              <mxPoint x="5190" y="249" />
            </Array>
          </mxGeometry>
        </mxCell>
        <mxCell id="q5Wzd799PpqzLv_GGQuX-91" value="" style="endArrow=none;html=1;rounded=0;exitX=1;exitY=0.5;exitDx=0;exitDy=0;dashed=1;dashPattern=12 12;" edge="1" parent="WIyWlLk6GJQsqaUBKTNV-1" source="o1A0--Sq_GG2lv819rfo-139">
          <mxGeometry width="50" height="50" relative="1" as="geometry">
            <mxPoint x="3450" y="1610" as="sourcePoint" />
            <mxPoint x="3450" y="1654" as="targetPoint" />
          </mxGeometry>
        </mxCell>
        <mxCell id="q5Wzd799PpqzLv_GGQuX-92" style="edgeStyle=orthogonalEdgeStyle;rounded=0;orthogonalLoop=1;jettySize=auto;html=1;dashed=1;startArrow=none;startFill=0;dashPattern=12 12;entryX=1;entryY=0.5;entryDx=0;entryDy=0;exitX=0.998;exitY=0.301;exitDx=0;exitDy=0;exitPerimeter=0;" edge="1" parent="WIyWlLk6GJQsqaUBKTNV-1" source="o1A0--Sq_GG2lv819rfo-229">
          <mxGeometry relative="1" as="geometry">
            <mxPoint x="2560" y="1290" as="sourcePoint" />
            <mxPoint x="4663" y="220" as="targetPoint" />
            <Array as="points">
              <mxPoint x="1900" y="1136" />
              <mxPoint x="1900" y="1930" />
              <mxPoint x="5210" y="1930" />
              <mxPoint x="5210" y="220" />
            </Array>
          </mxGeometry>
        </mxCell>
        <mxCell id="q5Wzd799PpqzLv_GGQuX-93" value="" style="edgeStyle=orthogonalEdgeStyle;rounded=0;orthogonalLoop=1;jettySize=auto;html=1;" edge="1" parent="WIyWlLk6GJQsqaUBKTNV-1" source="o1A0--Sq_GG2lv819rfo-233" target="o1A0--Sq_GG2lv819rfo-237">
          <mxGeometry relative="1" as="geometry" />
        </mxCell>
        <mxCell id="q5Wzd799PpqzLv_GGQuX-94" value="" style="endArrow=none;html=1;rounded=0;exitX=1;exitY=0.5;exitDx=0;exitDy=0;dashed=1;dashPattern=12 12;" edge="1" parent="WIyWlLk6GJQsqaUBKTNV-1" source="o1A0--Sq_GG2lv819rfo-108">
          <mxGeometry width="50" height="50" relative="1" as="geometry">
            <mxPoint x="1970" y="1660" as="sourcePoint" />
            <mxPoint x="1900" y="1599" as="targetPoint" />
          </mxGeometry>
        </mxCell>
        <mxCell id="q5Wzd799PpqzLv_GGQuX-95" value="" style="endArrow=none;dashed=1;html=1;rounded=0;entryX=0;entryY=0.5;entryDx=0;entryDy=0;dashPattern=12 12;" edge="1" parent="WIyWlLk6GJQsqaUBKTNV-1" target="bF6cEsMJnZBFDN_E_Ubx-59">
          <mxGeometry width="50" height="50" relative="1" as="geometry">
            <mxPoint x="210" y="608" as="sourcePoint" />
            <mxPoint x="110" y="570" as="targetPoint" />
          </mxGeometry>
        </mxCell>
        <mxCell id="q5Wzd799PpqzLv_GGQuX-96" style="edgeStyle=orthogonalEdgeStyle;rounded=0;orthogonalLoop=1;jettySize=auto;html=1;dashed=1;startArrow=none;startFill=0;dashPattern=12 12;entryX=1;entryY=0.5;entryDx=0;entryDy=0;exitX=0;exitY=0.5;exitDx=0;exitDy=0;" edge="1" parent="WIyWlLk6GJQsqaUBKTNV-1" source="bF6cEsMJnZBFDN_E_Ubx-61" target="o1A0--Sq_GG2lv819rfo-92">
          <mxGeometry relative="1" as="geometry">
            <mxPoint x="300" y="-110" as="sourcePoint" />
            <mxPoint x="4815" y="996" as="targetPoint" />
            <Array as="points">
              <mxPoint x="160" y="370" />
              <mxPoint x="160" y="2080" />
              <mxPoint x="5290" y="2080" />
              <mxPoint x="5290" y="1019" />
            </Array>
          </mxGeometry>
        </mxCell>
        <mxCell id="q5Wzd799PpqzLv_GGQuX-97" style="edgeStyle=orthogonalEdgeStyle;rounded=0;orthogonalLoop=1;jettySize=auto;html=1;dashed=1;startArrow=none;startFill=0;dashPattern=12 12;entryX=1;entryY=0.5;entryDx=0;entryDy=0;exitX=0;exitY=0.5;exitDx=0;exitDy=0;" edge="1" parent="WIyWlLk6GJQsqaUBKTNV-1" source="bF6cEsMJnZBFDN_E_Ubx-55" target="o1A0--Sq_GG2lv819rfo-141">
          <mxGeometry relative="1" as="geometry">
            <mxPoint x="539.9300000000001" y="-589" as="sourcePoint" />
            <mxPoint x="4867.5" y="49" as="targetPoint" />
            <Array as="points">
              <mxPoint x="100" y="128" />
              <mxPoint x="100" y="2100" />
              <mxPoint x="5310" y="2100" />
              <mxPoint x="5310" y="48" />
            </Array>
          </mxGeometry>
        </mxCell>
        <mxCell id="q5Wzd799PpqzLv_GGQuX-98" value="" style="endArrow=none;dashed=1;html=1;rounded=0;entryX=0;entryY=0.25;entryDx=0;entryDy=0;dashPattern=12 12;" edge="1" parent="WIyWlLk6GJQsqaUBKTNV-1" target="bF6cEsMJnZBFDN_E_Ubx-56">
          <mxGeometry width="50" height="50" relative="1" as="geometry">
            <mxPoint x="100" y="458" as="sourcePoint" />
            <mxPoint x="170" y="480" as="targetPoint" />
          </mxGeometry>
        </mxCell>
      </root>
    </mxGraphModel>
  </diagram>
</mxfile>
